{
.appVersion = "1075";
classes = (
{
automatic = 1;
code = "A Aacute Acircumflex Adieresis Agrave Aring Atilde AE B C Ccedilla D Eth E Eacute Ecircumflex Edieresis Egrave F G H I Iacute Icircumflex Idieresis Igrave J K L M N Ntilde O Oacute Ocircumflex Odieresis Ograve Oslash Otilde OE P Thorn Q R S T U Uacute Ucircumflex Udieresis Ugrave V W X Y Yacute Z";
name = Uppercase;
}
);
copyright = "Copyright (c) 2011, Cyreal (www.cyreal.org)";
customParameters = (
{
name = licenseURL;
value = "http://scripts.sil.org/OFL";
},
{
name = license;
value = "This Font Software is licensed under the SIL Open Font License, Version 1.1. This license is available with a FAQ at: http://scripts.sil.org/OFL";
},
{
name = fsType;
value = (
);
},
{
name = "Use Typo Metrics";
value = 1;
},
{
name = "Disable Last Change";
value = 1;
},
{
name = "Use Line Breaks";
value = 1;
},
{
name = vendorID;
value = CYRE;
}
);
date = "2017-11-25 19:00:59 +0000";
designer = "Eugene Spizhovy";
designerURL = "http://behance.net/spizh";
familyName = "Marko One";
featurePrefixes = (
{
automatic = 1;
code = "languagesystem DFLT dflt;
";
name = Languagesystems;
}
);
features = (
{
automatic = 1;
code = "feature ccmp;
feature sups;
feature frac;
feature ordn;
feature case;
";
name = aalt;
},
{
automatic = 1;
code = "lookup ccmp_Other_1 {
	@CombiningTopAccents = [acutecomb caroncomb circumflexcomb dieresiscomb gravecomb macroncomb ringcomb tildecomb];
	@CombiningNonTopAccents = [cedillacomb];
	sub [i]' @CombiningTopAccents by [idotless];
	sub [i]' @CombiningNonTopAccents @CombiningTopAccents by [idotless];
	@Markscomb = [dieresiscomb gravecomb acutecomb circumflexcomb caroncomb tildecomb acute caron circumflex dieresis grave tilde];
	@MarkscombCase = [dieresiscomb.case gravecomb.case acutecomb.case circumflexcomb.case caroncomb.case tildecomb.case acute.case caron.case circumflex.case dieresis.case grave.case tilde.case];
	sub @Markscomb @Markscomb' by @MarkscombCase;

glyphs = (
{
glyphname = A;
layers = (
{
anchors = (
{
name = top;
position = "{784, 1548}";
}
);
layerId = UUID0;
paths = (
{
closed = 1;
nodes = (
"1298 465 OFFCURVE",
"1278 389 OFFCURVE",
"1346 2 CURVE",
"1302 -12 OFFCURVE",
"1232 -21 OFFCURVE",
"1166 -21 CURVE SMOOTH",
"1111 -21 OFFCURVE",
"1060 -15 OFFCURVE",
"1030 2 CURVE",
"999 90 OFFCURVE",
"979 272 OFFCURVE",
"967 477 CURVE",
"559 496 LINE",
"508 223 OFFCURVE",
"416 -10 OFFCURVE",
"236 -33 CURVE",
"141 -43 OFFCURVE",
"31 23 OFFCURVE",
"31 111 CURVE",
"328 311 OFFCURVE",
"451 901 OFFCURVE",
"444 1196 CURVE SMOOTH",
"442 1270 OFFCURVE",
"424 1309 OFFCURVE",
"356 1319 CURVE",
"344 1334 OFFCURVE",
"340 1373 OFFCURVE",
"340 1407 CURVE SMOOTH",
"340 1426 OFFCURVE",
"341 1444 OFFCURVE",
"344 1454 CURVE",
"672 1436 OFFCURVE",
"879 1436 OFFCURVE",
"1069 1434 CURVE",
"1167 1403 OFFCURVE",
"1200 1286 OFFCURVE",
"1208 1206 CURVE"
);
},
{
closed = 1;
nodes = (
"932 1237 OFFCURVE",
"926 1257 OFFCURVE",
"868 1266 CURVE",
"801 1274 OFFCURVE",
"692 1274 OFFCURVE",
"625 1274 CURVE",
"618 1143 OFFCURVE",
"614 893 OFFCURVE",
"582 647 CURVE",
"594 647 OFFCURVE",
"607 647 OFFCURVE",
"620 647 CURVE SMOOTH",
"731 647 OFFCURVE",
"856 640 OFFCURVE",
"956 629 CURVE",
"950 752 OFFCURVE",
"946 874 OFFCURVE",
"942 989 CURVE SMOOTH"
);
}
);
width = 1427;
}
);
unicode = 0041;
},
{
glyphname = AE;
layers = (
{
layerId = UUID0;
paths = (
{
closed = 1;
nodes = (
"1180 801 LINE",
"1180 822 OFFCURVE",
"1180 843 OFFCURVE",
"1180 863 CURVE SMOOTH",
"1180 1094 OFFCURVE",
"1170 1212 OFFCURVE",
"1155 1280 CURVE",
"1290 1280 OFFCURVE",
"1524 1272 OFFCURVE",
"1649 1266 CURVE",
"1649 1145 LINE",
"1649 1145 OFFCURVE",
"1677 1092 OFFCURVE",
"1780 1092 CURVE SMOOTH",
"1876 1092 OFFCURVE",
"1915 1159 OFFCURVE",
"1915 1356 CURVE SMOOTH",
"1915 1425 OFFCURVE",
"1913 1442 OFFCURVE",
"1898 1454 CURVE",
"1444 1434 OFFCURVE",
"1233 1438 OFFCURVE",
"907 1434 CURVE",
"756 1436 OFFCURVE",
"582 1440 OFFCURVE",
"344 1454 CURVE",
"341 1444 OFFCURVE",
"340 1426 OFFCURVE",
"340 1407 CURVE SMOOTH",
"340 1373 OFFCURVE",
"344 1334 OFFCURVE",
"356 1319 CURVE",
"424 1309 OFFCURVE",
"442 1270 OFFCURVE",
"444 1196 CURVE SMOOTH",
"451 901 OFFCURVE",
"328 311 OFFCURVE",
"31 111 CURVE",
"31 23 OFFCURVE",
"141 -43 OFFCURVE",
"236 -33 CURVE",
"416 -10 OFFCURVE",
"508 223 OFFCURVE",
"559 496 CURVE",
"901 479 LINE",
"903 258 LINE",
"903 258 OFFCURVE",
"903 0 OFFCURVE",
"999 0 CURVE",
"1278 -2 OFFCURVE",
"1473 -2 OFFCURVE",
"1898 -20 CURVE",
"1913 -8 OFFCURVE",
"1915 8 OFFCURVE",
"1915 78 CURVE SMOOTH",
"1915 274 OFFCURVE",
"1876 342 OFFCURVE",
"1780 342 CURVE SMOOTH",
"1677 342 OFFCURVE",
"1649 289 OFFCURVE",
"1649 289 CURVE",
"1649 168 LINE",
"1524 162 OFFCURVE",
"1331 154 OFFCURVE",
"1196 154 CURVE",
"1178 160 OFFCURVE",
"1173 201 OFFCURVE",
"1173 268 CURVE SMOOTH",
"1173 348 OFFCURVE",
"1180 466 OFFCURVE",
"1180 610 CURVE SMOOTH",
"1180 620 OFFCURVE",
"1180 631 OFFCURVE",
"1180 641 CURVE",
"1278 630 OFFCURVE",
"1397 621 OFFCURVE",
"1502 621 CURVE SMOOTH",
"1555 621 OFFCURVE",
"1604 623 OFFCURVE",
"1645 629 CURVE",
"1649 652 OFFCURVE",
"1655 697 OFFCURVE",
"1655 739 CURVE SMOOTH",
"1655 775 OFFCURVE",
"1651 809 OFFCURVE",
"1638 823 CURVE"
);
},
{
closed = 1;
nodes = (
"891 1260 LINE",
"897 1241 OFFCURVE",
"901 1214 OFFCURVE",
"901 1176 CURVE SMOOTH",
"901 635 LINE",
"812 642 OFFCURVE",
"714 647 OFFCURVE",
"623 647 CURVE SMOOTH",
"609 647 OFFCURVE",
"595 647 OFFCURVE",
"582 647 CURVE",
"614 893 OFFCURVE",
"618 1143 OFFCURVE",
"625 1274 CURVE",
"692 1274 OFFCURVE",
"801 1274 OFFCURVE",
"868 1266 CURVE"
);
}
);
width = 2007;
}
);
unicode = 00C6;
},
{
glyphname = B;
layers = (
{
layerId = UUID0;
paths = (
{
closed = 1;
nodes = (
"221 82 OFFCURVE",
"242 -4 OFFCURVE",
"283 -10 CURVE SMOOTH",
"405 -27 OFFCURVE",
"552 -43 OFFCURVE",
"698 -43 CURVE SMOOTH",
"1033 -43 OFFCURVE",
"1362 43 OFFCURVE",
"1362 406 CURVE SMOOTH",
"1362 610 OFFCURVE",
"1221 743 OFFCURVE",
"1063 768 CURVE",
"1169 846 OFFCURVE",
"1255 979 OFFCURVE",
"1255 1102 CURVE SMOOTH",
"1255 1413 OFFCURVE",
"1020 1470 OFFCURVE",
"750 1475 CURVE SMOOTH",
"726 1475 OFFCURVE",
"702 1476 OFFCURVE",
"679 1476 CURVE SMOOTH",
"318 1476 OFFCURVE",
"117 1434 OFFCURVE",
"117 1434 CURVE",
"117 1427 LINE",
"111 1401 OFFCURVE",
"119 1333 OFFCURVE",
"129 1309 CURVE",
"197 1303 OFFCURVE",
"213 1262 OFFCURVE",
"221 1192 CURVE SMOOTH",
"231 1097 OFFCURVE",
"235 967 OFFCURVE",
"235 829 CURVE SMOOTH",
"235 601 OFFCURVE",
"225 349 OFFCURVE",
"223 182 CURVE SMOOTH"
);
},
{
closed = 1;
nodes = (
"1047 165 OFFCURVE",
"862 112 OFFCURVE",
"686 112 CURVE SMOOTH",
"645 112 OFFCURVE",
"605 115 OFFCURVE",
"567 119 CURVE",
"532 141 OFFCURVE",
"526 208 OFFCURVE",
"526 262 CURVE SMOOTH",
"526 293 OFFCURVE",
"528 321 OFFCURVE",
"528 332 CURVE SMOOTH",
"532 440 OFFCURVE",
"535 541 OFFCURVE",
"535 639 CURVE",
"589 645 OFFCURVE",
"639 648 OFFCURVE",
"685 648 CURVE SMOOTH",
"917 648 OFFCURVE",
"1047 572 OFFCURVE",
"1047 389 CURVE SMOOTH"
);
},
{
closed = 1;
nodes = (
"859 802 OFFCURVE",
"829 803 OFFCURVE",
"799 803 CURVE SMOOTH",
"705 803 OFFCURVE",
"605 797 OFFCURVE",
"535 791 CURVE",
"530 963 OFFCURVE",
"541 1133 OFFCURVE",
"504 1305 CURVE",
"567 1317 OFFCURVE",
"664 1321 OFFCURVE",
"666 1321 CURVE SMOOTH",
"894 1321 OFFCURVE",
"979 1208 OFFCURVE",
"979 1072 CURVE SMOOTH",
"979 983 OFFCURVE",
"943 884 OFFCURVE",
"887 801 CURVE"
);
}
);
width = 1454;
}
);
unicode = 0042;
},
{
glyphname = C;
layers = (
{
anchors = (
{
name = bottom;
position = "{834, -104}";
}
);
layerId = UUID0;
paths = (
{
closed = 1;
nodes = (
"123 193 OFFCURVE",
"424 -35 OFFCURVE",
"799 -35 CURVE SMOOTH",
"1010 -35 OFFCURVE",
"1171 31 OFFCURVE",
"1307 172 CURVE",
"1294 215 OFFCURVE",
"1268 252 OFFCURVE",
"1227 272 CURVE",
"1135 193 OFFCURVE",
"1044 145 OFFCURVE",
"928 145 CURVE SMOOTH",
"662 145 OFFCURVE",
"459 350 OFFCURVE",
"459 762 CURVE SMOOTH",
"459 1171 OFFCURVE",
"637 1319 OFFCURVE",
"848 1319 CURVE SMOOTH",
"897 1319 OFFCURVE",
"971 1317 OFFCURVE",
"1024 1278 CURVE",
"1023 1259 OFFCURVE",
"1022 1239 OFFCURVE",
"1022 1218 CURVE SMOOTH",
"1022 1130 OFFCURVE",
"1040 1036 OFFCURVE",
"1165 1036 CURVE SMOOTH",
"1223 1036 OFFCURVE",
"1278 1073 OFFCURVE",
"1278 1073 CURVE",
"1292 1294 LINE",
"1294 1348 OFFCURVE",
"1288 1376 OFFCURVE",
"1274 1393 CURVE",
"1161 1446 OFFCURVE",
"1016 1475 OFFCURVE",
"893 1475 CURVE SMOOTH",
"438 1475 OFFCURVE",
"123 1165 OFFCURVE",
"123 707 CURVE SMOOTH"
);
}
);
width = 1399;
}
);
unicode = 0043;
},
{
glyphname = Ccedilla;
layers = (
{
layerId = UUID0;
paths = (
{
closed = 1;
nodes = (
"977 -461 OFFCURVE",
"1180 -416 OFFCURVE",
"1180 -274 CURVE SMOOTH",
"1180 -119 OFFCURVE",
"926 -113 OFFCURVE",
"879 -115 CURVE",
"920 -36 LINE",
"1089 -20 OFFCURVE",
"1223 45 OFFCURVE",
"1339 166 CURVE",
"1327 209 OFFCURVE",
"1300 246 OFFCURVE",
"1260 266 CURVE",
"1167 186 OFFCURVE",
"1077 139 OFFCURVE",
"961 139 CURVE SMOOTH",
"694 139 OFFCURVE",
"459 336 OFFCURVE",
"459 762 CURVE SMOOTH",
"459 1198 OFFCURVE",
"670 1321 OFFCURVE",
"881 1321 CURVE SMOOTH",
"930 1321 OFFCURVE",
"1020 1319 OFFCURVE",
"1057 1280 CURVE",
"1056 1261 OFFCURVE",
"1055 1239 OFFCURVE",
"1055 1218 CURVE SMOOTH",
"1055 1131 OFFCURVE",
"1073 1038 OFFCURVE",
"1198 1038 CURVE SMOOTH",
"1255 1038 OFFCURVE",
"1311 1075 OFFCURVE",
"1311 1075 CURVE",
"1325 1296 LINE",
"1327 1350 OFFCURVE",
"1321 1378 OFFCURVE",
"1307 1395 CURVE",
"1194 1448 OFFCURVE",
"1110 1477 OFFCURVE",
"942 1477 CURVE SMOOTH",
"459 1477 OFFCURVE",
"123 1200 OFFCURVE",
"123 707 CURVE SMOOTH",
"123 174 OFFCURVE",
"451 -37 OFFCURVE",
"821 -41 CURVE",
"772 -150 LINE",
"784 -174 OFFCURVE",
"809 -203 OFFCURVE",
"852 -203 CURVE SMOOTH",
"920 -203 OFFCURVE",
"1006 -217 OFFCURVE",
"1006 -276 CURVE SMOOTH",
"1006 -338 OFFCURVE",
"934 -350 OFFCURVE",
"881 -350 CURVE SMOOTH",
"770 -350 OFFCURVE",
"748 -276 OFFCURVE",
"743 -276 CURVE SMOOTH",
"709 -276 OFFCURVE",
"664 -295 OFFCURVE",
"664 -346 CURVE SMOOTH",
"664 -428 OFFCURVE",
"793 -461 OFFCURVE",
"887 -461 CURVE SMOOTH"
);
}
);
width = 1432;
}
);
unicode = 00C7;
},
{
glyphname = D;
layers = (
{
layerId = UUID0;
paths = (
{
closed = 1;
nodes = (
"373 -14 OFFCURVE",
"469 -25 OFFCURVE",
"578 -25 CURVE SMOOTH",
"1118 -25 OFFCURVE",
"1503 281 OFFCURVE",
"1503 791 CURVE SMOOTH",
"1503 1319 OFFCURVE",
"1069 1454 OFFCURVE",
"729 1477 CURVE SMOOTH",
"700 1479 OFFCURVE",
"673 1480 OFFCURVE",
"645 1480 CURVE SMOOTH",
"468 1480 OFFCURVE",
"305 1444 OFFCURVE",
"119 1403 CURVE",
"116 1394 OFFCURVE",
"115 1379 OFFCURVE",
"115 1362 CURVE SMOOTH",
"115 1331 OFFCURVE",
"119 1296 OFFCURVE",
"127 1290 CURVE",
"170 1274 OFFCURVE",
"213 1266 OFFCURVE",
"221 1159 CURVE",
"224 1078 OFFCURVE",
"225 1011 OFFCURVE",
"225 953 CURVE SMOOTH",
"225 813 OFFCURVE",
"219 726 OFFCURVE",
"219 629 CURVE SMOOTH",
"219 539 OFFCURVE",
"219 462 OFFCURVE",
"219 397 CURVE SMOOTH",
"219 96 OFFCURVE",
"225 32 OFFCURVE",
"301 0 CURVE"
);
},
{
closed = 1;
nodes = (
"891 1335 OFFCURVE",
"1174 1167 OFFCURVE",
"1174 741 CURVE SMOOTH",
"1174 309 OFFCURVE",
"944 127 OFFCURVE",
"719 113 CURVE SMOOTH",
"694 112 OFFCURVE",
"671 111 OFFCURVE",
"649 111 CURVE SMOOTH",
"609 111 OFFCURVE",
"575 113 OFFCURVE",
"551 117 CURVE",
"516 145 OFFCURVE",
"516 283 OFFCURVE",
"516 336 CURVE SMOOTH",
"516 360 OFFCURVE",
"516 382 OFFCURVE",
"516 404 CURVE SMOOTH",
"516 622 OFFCURVE",
"524 738 OFFCURVE",
"526 1012 CURVE SMOOTH",
"526 1032 OFFCURVE",
"526 1051 OFFCURVE",
"526 1072 CURVE SMOOTH",
"526 1144 OFFCURVE",
"524 1225 OFFCURVE",
"502 1321 CURVE",
"545 1333 OFFCURVE",
"623 1335 OFFCURVE",
"672 1335 CURVE SMOOTH"
);
}
);
width = 1626;
}
);
unicode = 0044;
},
{
glyphname = Eth;
layers = (
{
layerId = UUID0;
paths = (
{
closed = 1;
nodes = (
"391 -14 OFFCURVE",
"487 -25 OFFCURVE",
"596 -25 CURVE SMOOTH",
"1137 -25 OFFCURVE",
"1522 281 OFFCURVE",
"1522 791 CURVE SMOOTH",
"1522 1319 OFFCURVE",
"1087 1454 OFFCURVE",
"748 1477 CURVE SMOOTH",
"719 1479 OFFCURVE",
"692 1480 OFFCURVE",
"664 1480 CURVE SMOOTH",
"487 1480 OFFCURVE",
"323 1444 OFFCURVE",
"137 1403 CURVE",
"134 1394 OFFCURVE",
"133 1379 OFFCURVE",
"133 1362 CURVE SMOOTH",
"133 1331 OFFCURVE",
"137 1296 OFFCURVE",
"145 1290 CURVE",
"188 1274 OFFCURVE",
"231 1266 OFFCURVE",
"240 1159 CURVE",
"242 1072 OFFCURVE",
"243 1000 OFFCURVE",
"243 938 CURVE SMOOTH",
"243 894 OFFCURVE",
"243 856 OFFCURVE",
"242 821 CURVE",
"197 819 OFFCURVE",
"158 815 OFFCURVE",
"133 811 CURVE",
"126 803 OFFCURVE",
"123 773 OFFCURVE",
"123 742 CURVE SMOOTH",
"123 706 OFFCURVE",
"128 669 OFFCURVE",
"135 659 CURVE",
"238 657 LINE",
"238 629 LINE SMOOTH",
"238 532 OFFCURVE",
"238 450 OFFCURVE",
"238 381 CURVE SMOOTH",
"238 93 OFFCURVE",
"245 31 OFFCURVE",
"319 0 CURVE"
);
},
{
closed = 1;
nodes = (
"766 653 LINE",
"786 690 OFFCURVE",
"794 723 OFFCURVE",
"794 753 CURVE SMOOTH",
"794 774 OFFCURVE",
"790 794 OFFCURVE",
"784 813 CURVE",
"743 817 OFFCURVE",
"639 821 OFFCURVE",
"543 823 CURVE",
"543 879 OFFCURVE",
"545 938 OFFCURVE",
"545 1012 CURVE SMOOTH",
"545 1031 OFFCURVE",
"545 1051 OFFCURVE",
"545 1071 CURVE SMOOTH",
"545 1144 OFFCURVE",
"543 1225 OFFCURVE",
"520 1321 CURVE",
"563 1333 OFFCURVE",
"641 1335 OFFCURVE",
"690 1335 CURVE SMOOTH",
"909 1335 OFFCURVE",
"1192 1167 OFFCURVE",
"1192 741 CURVE SMOOTH",
"1192 309 OFFCURVE",
"963 127 OFFCURVE",
"737 113 CURVE SMOOTH",
"713 112 OFFCURVE",
"689 111 OFFCURVE",
"667 111 CURVE SMOOTH",
"627 111 OFFCURVE",
"593 113 OFFCURVE",
"569 117 CURVE",
"535 145 OFFCURVE",
"535 283 OFFCURVE",
"535 336 CURVE",
"534 375 OFFCURVE",
"534 411 OFFCURVE",
"534 445 CURVE SMOOTH",
"534 522 OFFCURVE",
"536 588 OFFCURVE",
"537 655 CURVE"
);
}
);
width = 1645;
}
);
unicode = 00D0;
},
{
glyphname = E;
layers = (
{
anchors = (
{
name = top;
position = "{649, 1548}";
}
);
layerId = UUID0;
paths = (
{
closed = 1;
nodes = (
"201 528 LINE SMOOTH",
"201 238 OFFCURVE",
"172 0 OFFCURVE",
"172 0 CURVE",
"516 -4 OFFCURVE",
"731 0 OFFCURVE",
"1198 -20 CURVE",
"1212 -8 OFFCURVE",
"1214 8 OFFCURVE",
"1214 78 CURVE SMOOTH",
"1214 274 OFFCURVE",
"1176 342 OFFCURVE",
"1079 342 CURVE SMOOTH",
"977 342 OFFCURVE",
"948 289 OFFCURVE",
"948 289 CURVE",
"948 168 LINE",
"823 162 OFFCURVE",
"618 154 OFFCURVE",
"483 154 CURVE",
"500 227 OFFCURVE",
"510 360 OFFCURVE",
"508 446 CURVE",
"508 641 LINE",
"606 630 OFFCURVE",
"712 621 OFFCURVE",
"809 621 CURVE SMOOTH",
"857 621 OFFCURVE",
"903 623 OFFCURVE",
"944 629 CURVE",
"948 653 OFFCURVE",
"954 699 OFFCURVE",
"954 742 CURVE SMOOTH",
"954 777 OFFCURVE",
"950 809 OFFCURVE",
"938 823 CURVE",
"508 801 LINE",
"508 987 LINE",
"510 1073 OFFCURVE",
"500 1206 OFFCURVE",
"483 1280 CURVE",
"618 1280 OFFCURVE",
"823 1272 OFFCURVE",
"948 1266 CURVE",
"948 1145 LINE",
"948 1145 OFFCURVE",
"977 1092 OFFCURVE",
"1079 1092 CURVE SMOOTH",
"1176 1092 OFFCURVE",
"1214 1159 OFFCURVE",
"1214 1356 CURVE SMOOTH",
"1214 1425 OFFCURVE",
"1212 1442 OFFCURVE",
"1198 1454 CURVE",
"709 1434 OFFCURVE",
"502 1438 OFFCURVE",
"127 1434 CURVE",
"125 1422 OFFCURVE",
"124 1408 OFFCURVE",
"124 1394 CURVE SMOOTH",
"124 1357 OFFCURVE",
"130 1319 OFFCURVE",
"139 1307 CURVE",
"180 1292 OFFCURVE",
"201 1274 OFFCURVE",
"201 1176 CURVE SMOOTH"
);
}
);
width = 1286;
}
);
unicode = 0045;
},
{
glyphname = F;
layers = (
{
layerId = UUID0;
paths = (
{
closed = 1;
nodes = (
"199 1288 OFFCURVE",
"227 1274 OFFCURVE",
"227 1176 CURVE SMOOTH",
"227 629 LINE SMOOTH",
"227 354 OFFCURVE",
"215 160 OFFCURVE",
"197 0 CURVE",
"219 -18 OFFCURVE",
"276 -26 OFFCURVE",
"340 -26 CURVE SMOOTH",
"418 -26 OFFCURVE",
"508 -15 OFFCURVE",
"557 0 CURVE",
"541 94 OFFCURVE",
"530 188 OFFCURVE",
"530 356 CURVE",
"532 641 LINE",
"624 630 OFFCURVE",
"716 621 OFFCURVE",
"803 621 CURVE SMOOTH",
"847 621 OFFCURVE",
"889 623 OFFCURVE",
"930 629 CURVE",
"934 652 OFFCURVE",
"940 699 OFFCURVE",
"940 741 CURVE SMOOTH",
"940 777 OFFCURVE",
"936 809 OFFCURVE",
"924 823 CURVE",
"532 801 LINE",
"535 987 LINE SMOOTH",
"537 1073 OFFCURVE",
"526 1206 OFFCURVE",
"510 1280 CURVE",
"645 1280 OFFCURVE",
"772 1272 OFFCURVE",
"897 1266 CURVE",
"897 1145 LINE",
"897 1145 OFFCURVE",
"926 1092 OFFCURVE",
"1028 1092 CURVE SMOOTH",
"1124 1092 OFFCURVE",
"1163 1159 OFFCURVE",
"1163 1356 CURVE SMOOTH",
"1163 1425 OFFCURVE",
"1161 1442 OFFCURVE",
"1147 1454 CURVE",
"657 1434 OFFCURVE",
"502 1438 OFFCURVE",
"127 1434 CURVE",
"125 1422 OFFCURVE",
"124 1408 OFFCURVE",
"124 1394 CURVE SMOOTH",
"124 1357 OFFCURVE",
"130 1319 OFFCURVE",
"139 1307 CURVE"
);
}
);
width = 1194;
}
);
unicode = 0046;
},
{
glyphname = G;
layers = (
{
layerId = UUID0;
paths = (
{
closed = 1;
nodes = (
"1157 -35 OFFCURVE",
"1360 61 OFFCURVE",
"1411 180 CURVE",
"1416 256 OFFCURVE",
"1419 333 OFFCURVE",
"1419 408 CURVE SMOOTH",
"1419 454 OFFCURVE",
"1418 499 OFFCURVE",
"1415 543 CURVE",
"1415 596 OFFCURVE",
"1399 627 OFFCURVE",
"1384 643 CURVE",
"1301 648 OFFCURVE",
"1227 650 OFFCURVE",
"1164 650 CURVE SMOOTH",
"1094 650 OFFCURVE",
"1039 647 OFFCURVE",
"1001 643 CURVE",
"999 633 OFFCURVE",
"998 621 OFFCURVE",
"998 609 CURVE SMOOTH",
"998 570 OFFCURVE",
"1007 528 OFFCURVE",
"1016 516 CURVE",
"1059 500 OFFCURVE",
"1116 518 OFFCURVE",
"1118 356 CURVE SMOOTH",
"1118 330 OFFCURVE",
"1119 308 OFFCURVE",
"1119 290 CURVE SMOOTH",
"1119 205 OFFCURVE",
"1115 191 OFFCURVE",
"1110 184 CURVE SMOOTH",
"1085 150 OFFCURVE",
"1055 137 OFFCURVE",
"956 137 CURVE SMOOTH",
"725 137 OFFCURVE",
"449 330 OFFCURVE",
"449 756 CURVE SMOOTH",
"449 1190 OFFCURVE",
"694 1325 OFFCURVE",
"905 1325 CURVE SMOOTH",
"954 1325 OFFCURVE",
"1032 1323 OFFCURVE",
"1081 1305 CURVE",
"1080 1286 OFFCURVE",
"1079 1266 OFFCURVE",
"1079 1245 CURVE SMOOTH",
"1079 1157 OFFCURVE",
"1097 1065 OFFCURVE",
"1223 1065 CURVE SMOOTH",
"1280 1065 OFFCURVE",
"1343 1102 OFFCURVE",
"1343 1102 CURVE",
"1358 1339 LINE",
"1360 1393 OFFCURVE",
"1354 1421 OFFCURVE",
"1339 1438 CURVE",
"1227 1464 OFFCURVE",
"1116 1477 OFFCURVE",
"1011 1477 CURVE SMOOTH",
"512 1477 OFFCURVE",
"123 1192 OFFCURVE",
"123 688 CURVE SMOOTH",
"123 152 OFFCURVE",
"565 -35 OFFCURVE",
"897 -35 CURVE SMOOTH"
);
}
);
width = 1513;
}
);
unicode = 0047;
},
{
glyphname = H;
layers = (
{
layerId = UUID0;
paths = (
{
closed = 1;
nodes = (
"1077 809 LINE",
"970 822 OFFCURVE",
"817 835 OFFCURVE",
"681 835 CURVE SMOOTH",
"624 835 OFFCURVE",
"571 833 OFFCURVE",
"524 827 CURVE",
"524 993 OFFCURVE",
"528 1188 OFFCURVE",
"537 1434 CURVE",
"441 1441 OFFCURVE",
"356 1444 OFFCURVE",
"287 1444 CURVE SMOOTH",
"212 1444 OFFCURVE",
"157 1440 OFFCURVE",
"127 1434 CURVE",
"125 1422 OFFCURVE",
"124 1407 OFFCURVE",
"124 1393 CURVE SMOOTH",
"124 1356 OFFCURVE",
"130 1317 OFFCURVE",
"139 1305 CURVE",
"203 1286 OFFCURVE",
"229 1286 OFFCURVE",
"229 1124 CURVE SMOOTH",
"229 322 LINE SMOOTH",
"229 211 OFFCURVE",
"205 0 OFFCURVE",
"205 0 CURVE",
"225 -12 OFFCURVE",
"260 -20 OFFCURVE",
"285 -23 CURVE SMOOTH",
"304 -25 OFFCURVE",
"326 -26 OFFCURVE",
"350 -26 CURVE SMOOTH",
"420 -26 OFFCURVE",
"502 -17 OFFCURVE",
"553 0 CURVE",
"543 182 OFFCURVE",
"528 362 OFFCURVE",
"524 674 CURVE",
"1077 649 LINE",
"1077 322 LINE SMOOTH",
"1077 244 OFFCURVE",
"1061 0 OFFCURVE",
"1061 0 CURVE",
"1081 -12 OFFCURVE",
"1106 -20 OFFCURVE",
"1130 -23 CURVE SMOOTH",
"1149 -25 OFFCURVE",
"1172 -26 OFFCURVE",
"1197 -26 CURVE SMOOTH",
"1270 -26 OFFCURVE",
"1358 -17 OFFCURVE",
"1409 0 CURVE",
"1391 123 OFFCURVE",
"1384 242 OFFCURVE",
"1384 401 CURVE SMOOTH",
"1384 1022 LINE SMOOTH",
"1384 1159 OFFCURVE",
"1399 1356 OFFCURVE",
"1399 1356 CURVE",
"1403 1409 OFFCURVE",
"1393 1436 OFFCURVE",
"1378 1452 CURVE",
"1063 1436 LINE",
"1063 1436 OFFCURVE",
"1077 1274 OFFCURVE",
"1077 1133 CURVE"
);
}
);
width = 1563;
}
);
unicode = 0048;
},
{
glyphname = I;
layers = (
{
anchors = (
{
name = top;
position = "{377, 1548}";
}
);
layerId = UUID0;
paths = (
{
closed = 1;
nodes = (
"264 322 LINE SMOOTH",
"264 211 OFFCURVE",
"236 0 OFFCURVE",
"236 0 CURVE",
"258 -18 OFFCURVE",
"314 -26 OFFCURVE",
"376 -26 CURVE SMOOTH",
"452 -26 OFFCURVE",
"539 -15 OFFCURVE",
"588 0 CURVE",
"588 0 OFFCURVE",
"571 197 OFFCURVE",
"571 319 CURVE SMOOTH",
"571 1434 LINE",
"476 1441 OFFCURVE",
"382 1444 OFFCURVE",
"305 1444 CURVE SMOOTH",
"221 1444 OFFCURVE",
"157 1440 OFFCURVE",
"127 1434 CURVE",
"125 1422 OFFCURVE",
"124 1407 OFFCURVE",
"124 1393 CURVE SMOOTH",
"124 1356 OFFCURVE",
"130 1317 OFFCURVE",
"139 1305 CURVE",
"182 1288 OFFCURVE",
"264 1286 OFFCURVE",
"264 1124 CURVE SMOOTH"
);
}
);
width = 743;
}
);
unicode = 0049;
},
{
glyphname = J;
layers = (
{
layerId = UUID0;
paths = (
{
closed = 1;
nodes = (
"399 913 OFFCURVE",
"397 356 OFFCURVE",
"399 109 CURVE SMOOTH",
"399 33 OFFCURVE",
"451 -94 OFFCURVE",
"451 -180 CURVE SMOOTH",
"451 -258 OFFCURVE",
"420 -295 OFFCURVE",
"358 -295 CURVE SMOOTH",
"296 -295 OFFCURVE",
"255 -226 OFFCURVE",
"255 -128 CURVE SMOOTH",
"255 -118 OFFCURVE",
"255 -107 OFFCURVE",
"256 -96 CURVE SMOOTH",
"256 -94 OFFCURVE",
"236 -35 OFFCURVE",
"133 -35 CURVE SMOOTH",
"27 -35 OFFCURVE",
"-41 -121 OFFCURVE",
"-41 -199 CURVE SMOOTH",
"-41 -362 OFFCURVE",
"164 -432 OFFCURVE",
"330 -432 CURVE SMOOTH",
"502 -432 OFFCURVE",
"686 -332 OFFCURVE",
"686 -8 CURVE",
"689 22 OFFCURVE",
"691 106 OFFCURVE",
"691 259 CURVE SMOOTH",
"691 412 OFFCURVE",
"689 636 OFFCURVE",
"684 946 CURVE",
"684 1059 OFFCURVE",
"694 1393 OFFCURVE",
"694 1434 CURVE",
"599 1441 OFFCURVE",
"507 1444 OFFCURVE",
"431 1444 CURVE SMOOTH",
"349 1444 OFFCURVE",
"286 1440 OFFCURVE",
"256 1434 CURVE",
"254 1422 OFFCURVE",
"253 1407 OFFCURVE",
"253 1393 CURVE SMOOTH",
"253 1356 OFFCURVE",
"259 1317 OFFCURVE",
"268 1305 CURVE",
"311 1288 OFFCURVE",
"393 1286 OFFCURVE",
"393 1124 CURVE"
);
}
);
width = 850;
}
);
unicode = 004A;
},
{
glyphname = K;
layers = (
{
layerId = UUID0;
paths = (
{
closed = 1;
nodes = (
"1224 1053 OFFCURVE",
"1236 1052 OFFCURVE",
"1248 1052 CURVE SMOOTH",
"1363 1052 OFFCURVE",
"1466 1140 OFFCURVE",
"1462 1255 CURVE SMOOTH",
"1456 1397 OFFCURVE",
"1358 1460 OFFCURVE",
"1231 1460 CURVE SMOOTH",
"950 1460 OFFCURVE",
"705 1022 OFFCURVE",
"571 811 CURVE",
"571 1434 LINE",
"476 1441 OFFCURVE",
"382 1444 OFFCURVE",
"305 1444 CURVE SMOOTH",
"221 1444 OFFCURVE",
"157 1440 OFFCURVE",
"127 1434 CURVE",
"125 1422 OFFCURVE",
"124 1407 OFFCURVE",
"124 1393 CURVE SMOOTH",
"124 1356 OFFCURVE",
"130 1317 OFFCURVE",
"139 1305 CURVE",
"182 1288 OFFCURVE",
"264 1286 OFFCURVE",
"264 1124 CURVE SMOOTH",
"264 322 LINE",
"252 0 LINE",
"274 -18 OFFCURVE",
"326 -26 OFFCURVE",
"385 -26 CURVE SMOOTH",
"457 -26 OFFCURVE",
"539 -15 OFFCURVE",
"588 0 CURVE",
"571 319 LINE",
"571 612 LINE",
"606 647 OFFCURVE",
"647 696 OFFCURVE",
"690 754 CURVE",
"762 526 OFFCURVE",
"973 -47 OFFCURVE",
"1202 -47 CURVE SMOOTH",
"1366 -47 OFFCURVE",
"1464 111 OFFCURVE",
"1464 111 CURVE",
"1423 178 LINE",
"1423 178 OFFCURVE",
"1391 152 OFFCURVE",
"1346 152 CURVE SMOOTH",
"1253 152 OFFCURVE",
"1006 557 OFFCURVE",
"784 885 CURVE",
"905 1049 OFFCURVE",
"1030 1217 OFFCURVE",
"1120 1217 CURVE SMOOTH",
"1200 1217 OFFCURVE",
"1212 1100 OFFCURVE",
"1212 1055 CURVE"
);
}
);
width = 1495;
}
);
unicode = 004B;
},
{
glyphname = L;
layers = (
{
layerId = UUID0;
paths = (
{
closed = 1;
nodes = (
"266 287 LINE",
"266 168 LINE SMOOTH",
"266 57 OFFCURVE",
"295 8 OFFCURVE",
"317 0 CURVE",
"512 0 LINE SMOOTH",
"1157 0 OFFCURVE",
"1192 0 OFFCURVE",
"1278 2 CURVE",
"1292 18 OFFCURVE",
"1296 47 OFFCURVE",
"1296 100 CURVE SMOOTH",
"1296 133 OFFCURVE",
"1292 190 OFFCURVE",
"1284 240 CURVE SMOOTH",
"1272 319 OFFCURVE",
"1245 365 OFFCURVE",
"1147 365 CURVE SMOOTH",
"1065 365 OFFCURVE",
"1028 313 OFFCURVE",
"1028 313 CURVE",
"1014 188 LINE",
"872 176 OFFCURVE",
"754 170 OFFCURVE",
"600 158 CURVE",
"576 184 OFFCURVE",
"573 228 OFFCURVE",
"573 309 CURVE SMOOTH",
"573 338 OFFCURVE",
"573 373 OFFCURVE",
"573 412 CURVE SMOOTH",
"573 1022 LINE",
"588 1411 LINE SMOOTH",
"590 1452 OFFCURVE",
"571 1454 OFFCURVE",
"571 1454 CURVE",
"526 1457 OFFCURVE",
"482 1459 OFFCURVE",
"439 1459 CURVE SMOOTH",
"294 1459 OFFCURVE",
"171 1443 OFFCURVE",
"127 1434 CURVE",
"125 1422 OFFCURVE",
"124 1407 OFFCURVE",
"124 1393 CURVE SMOOTH",
"124 1356 OFFCURVE",
"130 1317 OFFCURVE",
"139 1305 CURVE",
"182 1288 OFFCURVE",
"264 1286 OFFCURVE",
"264 1124 CURVE SMOOTH"
);
}
);
width = 1348;
}
);
unicode = 004C;
},
{
glyphname = M;
layers = (
{
layerId = UUID0;
paths = (
{
closed = 1;
nodes = (
"1812 1325 OFFCURVE",
"1755 1409 OFFCURVE",
"1692 1430 CURVE SMOOTH",
"1673 1436 OFFCURVE",
"1648 1439 OFFCURVE",
"1619 1439 CURVE SMOOTH",
"1584 1439 OFFCURVE",
"1544 1435 OFFCURVE",
"1501 1432 CURVE",
"1434 1251 OFFCURVE",
"1221 684 OFFCURVE",
"1155 459 CURVE",
"1083 600 OFFCURVE",
"791 1421 OFFCURVE",
"725 1434 CURVE",
"629 1441 OFFCURVE",
"556 1444 OFFCURVE",
"500 1444 CURVE SMOOTH",
"439 1444 OFFCURVE",
"399 1440 OFFCURVE",
"369 1434 CURVE",
"366 1422 OFFCURVE",
"365 1408 OFFCURVE",
"365 1393 CURVE SMOOTH",
"365 1356 OFFCURVE",
"372 1316 OFFCURVE",
"381 1305 CURVE",
"421 1289 OFFCURVE",
"470 1286 OFFCURVE",
"470 1155 CURVE SMOOTH",
"470 1145 OFFCURVE",
"470 1135 OFFCURVE",
"469 1124 CURVE SMOOTH",
"455 852 OFFCURVE",
"348 311 OFFCURVE",
"51 111 CURVE",
"51 23 OFFCURVE",
"162 -43 OFFCURVE",
"256 -33 CURVE",
"551 4 OFFCURVE",
"610 633 OFFCURVE",
"629 1034 CURVE",
"633 1092 LINE",
"786 670 OFFCURVE",
"928 203 OFFCURVE",
"977 61 CURVE",
"994 33 OFFCURVE",
"1050 17 OFFCURVE",
"1113 17 CURVE SMOOTH",
"1170 17 OFFCURVE",
"1232 30 OFFCURVE",
"1276 61 CURVE",
"1268 389 OFFCURVE",
"1493 946 OFFCURVE",
"1550 1081 CURVE",
"1585 838 OFFCURVE",
"1669 168 OFFCURVE",
"1757 2 CURVE",
"1787 -15 OFFCURVE",
"1837 -21 OFFCURVE",
"1891 -21 CURVE SMOOTH",
"1956 -21 OFFCURVE",
"2025 -12 OFFCURVE",
"2068 2 CURVE",
"1982 389 OFFCURVE",
"1942 461 OFFCURVE",
"1831 1202 CURVE SMOOTH"
);
}
);
width = 2120;
}
);
unicode = 004D;
},
{
glyphname = N;
layers = (
{
layerId = UUID0;
paths = (
{
closed = 1;
nodes = (
"1372 401 OFFCURVE",
"1370 690 OFFCURVE",
"1370 899 CURVE SMOOTH",
"1370 1318 OFFCURVE",
"1378 1417 OFFCURVE",
"1378 1417 CURVE",
"1354 1437 OFFCURVE",
"1316 1446 OFFCURVE",
"1272 1446 CURVE SMOOTH",
"1227 1446 OFFCURVE",
"1176 1437 OFFCURVE",
"1130 1423 CURVE",
"1182 367 LINE",
"926 774 OFFCURVE",
"637 1362 OFFCURVE",
"477 1434 CURVE",
"382 1441 OFFCURVE",
"311 1444 OFFCURVE",
"256 1444 CURVE SMOOTH",
"197 1444 OFFCURVE",
"157 1440 OFFCURVE",
"127 1434 CURVE",
"125 1422 OFFCURVE",
"124 1407 OFFCURVE",
"124 1393 CURVE SMOOTH",
"124 1356 OFFCURVE",
"130 1317 OFFCURVE",
"139 1305 CURVE",
"195 1288 OFFCURVE",
"231 1286 OFFCURVE",
"231 1124 CURVE",
"232 1014 OFFCURVE",
"233 915 OFFCURVE",
"233 825 CURVE SMOOTH",
"233 165 OFFCURVE",
"207 8 OFFCURVE",
"207 8 CURVE",
"229 -10 OFFCURVE",
"271 -17 OFFCURVE",
"319 -17 CURVE SMOOTH",
"379 -17 OFFCURVE",
"448 -6 OFFCURVE",
"498 8 CURVE",
"498 8 OFFCURVE",
"463 319 OFFCURVE",
"412 1147 CURVE",
"563 864 OFFCURVE",
"950 143 OFFCURVE",
"1153 2 CURVE",
"1225 -6 OFFCURVE",
"1263 -10 OFFCURVE",
"1290 -10 CURVE SMOOTH",
"1322 -10 OFFCURVE",
"1338 -5 OFFCURVE",
"1378 4 CURVE"
);
}
);
width = 1501;
}
);
unicode = 004E;
},
{
glyphname = O;
layers = (
{
anchors = (
{
name = top;
position = "{870, 1548}";
}
);
layerId = UUID0;
paths = (
{
closed = 1;
nodes = (
"1614 1224 OFFCURVE",
"1236 1475 OFFCURVE",
"872 1475 CURVE SMOOTH",
"806 1475 OFFCURVE",
"741 1467 OFFCURVE",
"678 1450 CURVE SMOOTH",
"326 1356 OFFCURVE",
"123 1102 OFFCURVE",
"123 682 CURVE SMOOTH",
"123 224 OFFCURVE",
"495 -34 OFFCURVE",
"880 -34 CURVE SMOOTH",
"960 -34 OFFCURVE",
"1040 -23 OFFCURVE",
"1118 0 CURVE SMOOTH",
"1436 96 OFFCURVE",
"1614 362 OFFCURVE",
"1614 768 CURVE SMOOTH"
);
},
{
closed = 1;
nodes = (
"446 950 OFFCURVE",
"496 1221 OFFCURVE",
"696 1298 CURVE SMOOTH",
"746 1318 OFFCURVE",
"796 1327 OFFCURVE",
"844 1327 CURVE SMOOTH",
"1098 1327 OFFCURVE",
"1303 1062 OFFCURVE",
"1303 682 CURVE SMOOTH",
"1303 455 OFFCURVE",
"1235 209 OFFCURVE",
"1042 137 CURVE",
"994 120 OFFCURVE",
"945 112 OFFCURVE",
"899 112 CURVE SMOOTH",
"652 112 OFFCURVE",
"446 344 OFFCURVE",
"446 750 CURVE SMOOTH"
);
}
);
width = 1737;
}
);
unicode = 004F;
},
{
glyphname = Oslash;
layers = (
{
layerId = UUID0;
paths = (
{
closed = 1;
nodes = (
"1614 1036 OFFCURVE",
"1483 1233 OFFCURVE",
"1302 1350 CURVE",
"1371 1485 LINE",
"1334 1505 OFFCURVE",
"1252 1513 OFFCURVE",
"1215 1509 CURVE",
"1204 1493 OFFCURVE",
"1187 1462 OFFCURVE",
"1164 1420 CURVE",
"1071 1456 OFFCURVE",
"970 1475 OFFCURVE",
"871 1475 CURVE SMOOTH",
"805 1475 OFFCURVE",
"740 1467 OFFCURVE",
"678 1450 CURVE SMOOTH",
"326 1356 OFFCURVE",
"123 1102 OFFCURVE",
"123 682 CURVE SMOOTH",
"123 405 OFFCURVE",
"259 201 OFFCURVE",
"452 83 CURVE",
"420 16 OFFCURVE",
"397 -32 OFFCURVE",
"388 -57 CURVE",
"398 -68 OFFCURVE",
"465 -79 OFFCURVE",
"508 -79 CURVE SMOOTH",
"521 -79 OFFCURVE",
"532 -78 OFFCURVE",
"538 -76 CURVE",
"586 18 LINE",
"679 -16 OFFCURVE",
"779 -34 OFFCURVE",
"880 -34 CURVE SMOOTH",
"960 -34 OFFCURVE",
"1040 -23 OFFCURVE",
"1118 0 CURVE SMOOTH",
"1436 96 OFFCURVE",
"1614 362 OFFCURVE",
"1614 768 CURVE SMOOTH"
);
},
{
closed = 1;
nodes = (
"1303 455 OFFCURVE",
"1235 209 OFFCURVE",
"1042 137 CURVE",
"994 120 OFFCURVE",
"946 112 OFFCURVE",
"899 112 CURVE SMOOTH",
"822 112 OFFCURVE",
"748 135 OFFCURVE",
"684 179 CURVE",
"1176 1136 LINE",
"1255 1023 OFFCURVE",
"1303 866 OFFCURVE",
"1303 682 CURVE SMOOTH"
);
},
{
closed = 1;
nodes = (
"446 950 OFFCURVE",
"496 1221 OFFCURVE",
"696 1298 CURVE SMOOTH",
"746 1318 OFFCURVE",
"795 1327 OFFCURVE",
"842 1327 CURVE SMOOTH",
"921 1327 OFFCURVE",
"995 1301 OFFCURVE",
"1060 1255 CURVE",
"921 992 OFFCURVE",
"715 587 OFFCURVE",
"569 294 CURVE",
"493 402 OFFCURVE",
"446 556 OFFCURVE",
"446 750 CURVE SMOOTH"
);
}
);
width = 1737;
}
);
unicode = 00D8;
},
{
glyphname = OE;
layers = (
{
layerId = UUID0;
paths = (
{
closed = 1;
nodes = (
"1156 317 OFFCURVE",
"1169 493 OFFCURVE",
"1169 675 CURVE SMOOTH",
"1169 857 OFFCURVE",
"1156 1046 OFFCURVE",
"1116 1202 CURVE",
"1041 1279 OFFCURVE",
"947 1321 OFFCURVE",
"845 1321 CURVE SMOOTH",
"797 1321 OFFCURVE",
"747 1312 OFFCURVE",
"696 1292 CURVE SMOOTH",
"496 1214 OFFCURVE",
"446 946 OFFCURVE",
"446 745 CURVE SMOOTH",
"446 339 OFFCURVE",
"653 104 OFFCURVE",
"901 104 CURVE SMOOTH",
"947 104 OFFCURVE",
"994 112 OFFCURVE",
"1042 129 CURVE SMOOTH",
"1079 143 OFFCURVE",
"1114 164 OFFCURVE",
"1143 190 CURVE"
);
},
{
closed = 1;
nodes = (
"1118 -8 LINE SMOOTH",
"1038 -35 OFFCURVE",
"954 -48 OFFCURVE",
"871 -48 CURVE SMOOTH",
"491 -48 OFFCURVE",
"123 224 OFFCURVE",
"123 678 CURVE SMOOTH",
"123 1098 OFFCURVE",
"326 1350 OFFCURVE",
"678 1444 CURVE",
"741 1460 OFFCURVE",
"806 1469 OFFCURVE",
"872 1469 CURVE SMOOTH",
"978 1469 OFFCURVE",
"1085 1448 OFFCURVE",
"1184 1407 CURVE",
"1550 1417 OFFCURVE",
"1659 1421 OFFCURVE",
"2144 1454 CURVE",
"2159 1442 OFFCURVE",
"2161 1425 OFFCURVE",
"2161 1356 CURVE SMOOTH",
"2161 1159 OFFCURVE",
"2122 1092 OFFCURVE",
"2025 1092 CURVE SMOOTH",
"1923 1092 OFFCURVE",
"1894 1145 OFFCURVE",
"1894 1145 CURVE",
"1894 1266 LINE",
"1769 1272 OFFCURVE",
"1565 1280 OFFCURVE",
"1430 1280 CURVE",
"1446 1206 OFFCURVE",
"1456 1073 OFFCURVE",
"1462 801 CURVE",
"1892 823 LINE",
"1904 809 OFFCURVE",
"1909 776 OFFCURVE",
"1909 740 CURVE SMOOTH",
"1909 698 OFFCURVE",
"1903 652 OFFCURVE",
"1898 629 CURVE",
"1857 623 OFFCURVE",
"1812 621 OFFCURVE",
"1764 621 CURVE SMOOTH",
"1668 621 OFFCURVE",
"1561 630 OFFCURVE",
"1462 641 CURVE",
"1456 360 OFFCURVE",
"1446 217 OFFCURVE",
"1430 143 CURVE",
"1565 143 OFFCURVE",
"1769 162 OFFCURVE",
"1894 168 CURVE",
"1894 289 LINE",
"1894 289 OFFCURVE",
"1923 342 OFFCURVE",
"2025 342 CURVE SMOOTH",
"2122 342 OFFCURVE",
"2161 274 OFFCURVE",
"2161 78 CURVE SMOOTH",
"2161 8 OFFCURVE",
"2159 -8 OFFCURVE",
"2144 -20 CURVE",
"1688 0 OFFCURVE",
"1473 -4 OFFCURVE",
"1143 0 CURVE"
);
}
);
width = 2253;
}
);
unicode = 0152;
},
{
glyphname = P;
layers = (
{
layerId = UUID0;
paths = (
{
closed = 1;
nodes = (
"553 539 LINE",
"1130 545 OFFCURVE",
"1300 772 OFFCURVE",
"1300 1067 CURVE SMOOTH",
"1300 1346 OFFCURVE",
"1051 1470 OFFCURVE",
"780 1475 CURVE SMOOTH",
"760 1475 OFFCURVE",
"741 1475 OFFCURVE",
"722 1475 CURVE SMOOTH",
"457 1475 OFFCURVE",
"249 1451 OFFCURVE",
"125 1432 CURVE",
"121 1389 OFFCURVE",
"133 1325 OFFCURVE",
"139 1309 CURVE",
"182 1292 OFFCURVE",
"246 1286 OFFCURVE",
"246 1124 CURVE SMOOTH",
"246 322 LINE SMOOTH",
"246 211 OFFCURVE",
"217 0 OFFCURVE",
"217 0 CURVE",
"239 -18 OFFCURVE",
"295 -26 OFFCURVE",
"357 -26 CURVE SMOOTH",
"433 -26 OFFCURVE",
"520 -15 OFFCURVE",
"569 0 CURVE",
"569 0 OFFCURVE",
"553 229 OFFCURVE",
"553 319 CURVE SMOOTH"
);
},
{
closed = 1;
nodes = (
"1004 823 OFFCURVE",
"950 709 OFFCURVE",
"553 694 CURVE",
"553 1012 LINE SMOOTH",
"553 1116 OFFCURVE",
"549 1219 OFFCURVE",
"528 1311 CURVE",
"573 1317 OFFCURVE",
"627 1321 OFFCURVE",
"690 1321 CURVE SMOOTH",
"918 1321 OFFCURVE",
"1004 1204 OFFCURVE",
"1004 1014 CURVE SMOOTH"
);
}
);
width = 1393;
}
);
unicode = 0050;
},
{
glyphname = Thorn;
layers = (
{
layerId = UUID0;
paths = (
{
closed = 1;
nodes = (
"266 322 LINE SMOOTH",
"266 211 OFFCURVE",
"238 0 OFFCURVE",
"238 0 CURVE",
"260 -18 OFFCURVE",
"312 -26 OFFCURVE",
"371 -26 CURVE SMOOTH",
"443 -26 OFFCURVE",
"526 -15 OFFCURVE",
"575 0 CURVE",
"575 0 OFFCURVE",
"559 332 OFFCURVE",
"559 340 CURVE",
"1137 346 OFFCURVE",
"1321 573 OFFCURVE",
"1321 868 CURVE SMOOTH",
"1321 1147 OFFCURVE",
"1063 1272 OFFCURVE",
"793 1276 CURVE",
"715 1276 OFFCURVE",
"631 1276 OFFCURVE",
"557 1274 CURVE",
"557 1389 LINE SMOOTH",
"557 1430 OFFCURVE",
"541 1460 OFFCURVE",
"532 1460 CURVE",
"446 1466 OFFCURVE",
"367 1468 OFFCURVE",
"300 1468 CURVE SMOOTH",
"219 1468 OFFCURVE",
"157 1465 OFFCURVE",
"127 1458 CURVE",
"125 1446 OFFCURVE",
"124 1432 OFFCURVE",
"124 1418 CURVE SMOOTH",
"124 1381 OFFCURVE",
"130 1341 OFFCURVE",
"139 1329 CURVE",
"182 1313 OFFCURVE",
"264 1311 OFFCURVE",
"264 1149 CURVE SMOOTH"
);
},
{
closed = 1;
nodes = (
"1024 625 OFFCURVE",
"956 510 OFFCURVE",
"559 496 CURVE",
"557 1114 LINE",
"596 1118 OFFCURVE",
"649 1122 OFFCURVE",
"702 1122 CURVE SMOOTH",
"930 1122 OFFCURVE",
"1024 1006 OFFCURVE",
"1024 815 CURVE SMOOTH"
);
}
);
width = 1413;
}
);
unicode = 00DE;
},
{
glyphname = Q;
layers = (
{
layerId = UUID0;
paths = (
{
closed = 1;
nodes = (
"1090 -268 OFFCURVE",
"1118 -383 OFFCURVE",
"1399 -383 CURVE SMOOTH",
"1534 -383 OFFCURVE",
"1653 -297 OFFCURVE",
"1653 -168 CURVE SMOOTH",
"1653 -102 OFFCURVE",
"1612 -74 OFFCURVE",
"1571 -51 CURVE",
"1518 -125 OFFCURVE",
"1444 -172 OFFCURVE",
"1323 -174 CURVE SMOOTH",
"1072 -177 OFFCURVE",
"1018 -89 OFFCURVE",
"846 -89 CURVE SMOOTH",
"813 -89 OFFCURVE",
"775 -92 OFFCURVE",
"731 -100 CURVE",
"724 -113 OFFCURVE",
"721 -135 OFFCURVE",
"721 -159 CURVE SMOOTH",
"721 -194 OFFCURVE",
"728 -235 OFFCURVE",
"745 -268 CURVE"
);
},
{
closed = 1;
nodes = (
"1614 1224 OFFCURVE",
"1236 1475 OFFCURVE",
"872 1475 CURVE SMOOTH",
"806 1475 OFFCURVE",
"741 1467 OFFCURVE",
"678 1450 CURVE SMOOTH",
"326 1356 OFFCURVE",
"123 1102 OFFCURVE",
"123 682 CURVE SMOOTH",
"123 224 OFFCURVE",
"495 -34 OFFCURVE",
"880 -34 CURVE SMOOTH",
"960 -34 OFFCURVE",
"1040 -23 OFFCURVE",
"1118 0 CURVE SMOOTH",
"1436 96 OFFCURVE",
"1614 362 OFFCURVE",
"1614 768 CURVE SMOOTH"
);
},
{
closed = 1;
nodes = (
"446 950 OFFCURVE",
"496 1221 OFFCURVE",
"696 1298 CURVE SMOOTH",
"746 1318 OFFCURVE",
"796 1327 OFFCURVE",
"844 1327 CURVE SMOOTH",
"1098 1327 OFFCURVE",
"1303 1062 OFFCURVE",
"1303 682 CURVE SMOOTH",
"1303 455 OFFCURVE",
"1235 209 OFFCURVE",
"1042 137 CURVE",
"994 120 OFFCURVE",
"945 112 OFFCURVE",
"899 112 CURVE SMOOTH",
"652 112 OFFCURVE",
"446 344 OFFCURVE",
"446 750 CURVE SMOOTH"
);
}
);
width = 1737;
}
);
unicode = 0051;
},
{
glyphname = R;
layers = (
{
layerId = UUID0;
paths = (
{
closed = 1;
nodes = (
"182 1292 OFFCURVE",
"246 1286 OFFCURVE",
"246 1124 CURVE SMOOTH",
"246 322 LINE SMOOTH",
"246 211 OFFCURVE",
"217 0 OFFCURVE",
"217 0 CURVE",
"239 -18 OFFCURVE",
"295 -26 OFFCURVE",
"357 -26 CURVE SMOOTH",
"433 -26 OFFCURVE",
"520 -15 OFFCURVE",
"569 0 CURVE",
"569 0 OFFCURVE",
"553 229 OFFCURVE",
"553 319 CURVE SMOOTH",
"553 539 LINE",
"625 539 OFFCURVE",
"690 543 OFFCURVE",
"750 551 CURVE",
"813 328 OFFCURVE",
"975 -29 OFFCURVE",
"1186 -51 CURVE SMOOTH",
"1196 -52 OFFCURVE",
"1206 -53 OFFCURVE",
"1215 -53 CURVE SMOOTH",
"1362 -53 OFFCURVE",
"1462 78 OFFCURVE",
"1462 78 CURVE",
"1430 150 LINE",
"1430 150 OFFCURVE",
"1393 127 OFFCURVE",
"1348 131 CURVE SMOOTH",
"1266 139 OFFCURVE",
"1165 309 OFFCURVE",
"954 594 CURVE",
"1214 678 OFFCURVE",
"1300 850 OFFCURVE",
"1300 1059 CURVE SMOOTH",
"1300 1337 OFFCURVE",
"1044 1470 OFFCURVE",
"774 1475 CURVE SMOOTH",
"755 1475 OFFCURVE",
"736 1475 OFFCURVE",
"717 1475 CURVE SMOOTH",
"423 1475 OFFCURVE",
"210 1447 OFFCURVE",
"125 1434 CURVE",
"121 1391 OFFCURVE",
"133 1325 OFFCURVE",
"139 1309 CURVE"
);
},
{
closed = 1;
nodes = (
"553 1313 LINE",
"592 1317 OFFCURVE",
"639 1321 OFFCURVE",
"690 1321 CURVE SMOOTH",
"918 1321 OFFCURVE",
"1004 1221 OFFCURVE",
"1004 1057 CURVE SMOOTH",
"1004 866 OFFCURVE",
"950 711 OFFCURVE",
"553 694 CURVE"
);
}
);
width = 1493;
}
);
unicode = 0052;
},
{
glyphname = S;
layers = (
{
layerId = UUID0;
paths = (
{
closed = 1;
nodes = (
"438 1286 OFFCURVE",
"524 1358 OFFCURVE",
"659 1358 CURVE SMOOTH",
"795 1358 OFFCURVE",
"858 1249 OFFCURVE",
"854 1100 CURVE",
"901 1077 OFFCURVE",
"938 1063 OFFCURVE",
"1006 1063 CURVE SMOOTH",
"1102 1063 OFFCURVE",
"1143 1116 OFFCURVE",
"1143 1180 CURVE SMOOTH",
"1143 1315 OFFCURVE",
"999 1475 OFFCURVE",
"674 1475 CURVE SMOOTH",
"393 1475 OFFCURVE",
"166 1341 OFFCURVE",
"166 1079 CURVE SMOOTH",
"166 639 OFFCURVE",
"866 670 OFFCURVE",
"866 303 CURVE SMOOTH",
"866 162 OFFCURVE",
"793 98 OFFCURVE",
"610 98 CURVE SMOOTH",
"442 98 OFFCURVE",
"383 199 OFFCURVE",
"383 360 CURVE SMOOTH",
"383 358 OFFCURVE",
"336 393 OFFCURVE",
"260 395 CURVE SMOOTH",
"158 397 OFFCURVE",
"117 360 OFFCURVE",
"115 283 CURVE SMOOTH",
"111 147 OFFCURVE",
"287 -35 OFFCURVE",
"627 -35 CURVE SMOOTH",
"926 -35 OFFCURVE",
"1167 121 OFFCURVE",
"1167 371 CURVE SMOOTH",
"1167 846 OFFCURVE",
"438 831 OFFCURVE",
"438 1137 CURVE SMOOTH"
);
}
);
width = 1239;
}
);
unicode = 0053;
},
{
glyphname = T;
layers = (
{
layerId = UUID0;
paths = (
{
closed = 1;
nodes = (
"1137 1135 LINE",
"1137 1135 OFFCURVE",
"1174 1083 OFFCURVE",
"1255 1083 CURVE SMOOTH",
"1354 1083 OFFCURVE",
"1380 1128 OFFCURVE",
"1393 1208 CURVE SMOOTH",
"1401 1257 OFFCURVE",
"1405 1315 OFFCURVE",
"1405 1348 CURVE SMOOTH",
"1405 1401 OFFCURVE",
"1401 1430 OFFCURVE",
"1386 1446 CURVE",
"1169 1438 OFFCURVE",
"936 1434 OFFCURVE",
"705 1434 CURVE SMOOTH",
"471 1434 OFFCURVE",
"240 1436 OFFCURVE",
"29 1446 CURVE",
"14 1430 OFFCURVE",
"10 1401 OFFCURVE",
"10 1348 CURVE SMOOTH",
"10 1315 OFFCURVE",
"14 1257 OFFCURVE",
"23 1208 CURVE",
"35 1128 OFFCURVE",
"61 1083 OFFCURVE",
"160 1083 CURVE SMOOTH",
"242 1083 OFFCURVE",
"279 1135 OFFCURVE",
"279 1135 CURVE",
"279 1274 LINE",
"563 1264 LINE",
"563 322 LINE",
"537 0 LINE",
"557 -12 OFFCURVE",
"592 -20 OFFCURVE",
"616 -23 CURVE SMOOTH",
"635 -25 OFFCURVE",
"658 -26 OFFCURVE",
"683 -26 CURVE SMOOTH",
"756 -26 OFFCURVE",
"844 -17 OFFCURVE",
"895 0 CURVE",
"877 123 OFFCURVE",
"870 242 OFFCURVE",
"870 401 CURVE SMOOTH",
"870 1264 LINE",
"979 1266 OFFCURVE",
"1061 1270 OFFCURVE",
"1137 1276 CURVE"
);
}
);
width = 1415;
}
);
unicode = 0054;
},
{
glyphname = U;
layers = (
{
anchors = (
{
name = top;
position = "{766, 1548}";
}
);
layerId = UUID0;
paths = (
{
closed = 1;
nodes = (
"1366 1407 OFFCURVE",
"1356 1434 OFFCURVE",
"1341 1450 CURVE",
"1071 1436 LINE",
"1071 1436 OFFCURVE",
"1083 1274 OFFCURVE",
"1087 719 CURVE SMOOTH",
"1087 694 OFFCURVE",
"1087 670 OFFCURVE",
"1087 647 CURVE SMOOTH",
"1087 237 OFFCURVE",
"1042 121 OFFCURVE",
"854 121 CURVE SMOOTH",
"628 121 OFFCURVE",
"491 245 OFFCURVE",
"491 688 CURVE SMOOTH",
"491 708 OFFCURVE",
"491 729 OFFCURVE",
"492 750 CURVE",
"494 1260 LINE",
"494 1434 LINE",
"398 1441 OFFCURVE",
"311 1444 OFFCURVE",
"240 1444 CURVE SMOOTH",
"163 1444 OFFCURVE",
"106 1440 OFFCURVE",
"76 1434 CURVE",
"74 1424 OFFCURVE",
"73 1414 OFFCURVE",
"73 1402 CURVE SMOOTH",
"73 1362 OFFCURVE",
"83 1317 OFFCURVE",
"92 1305 CURVE",
"143 1292 OFFCURVE",
"180 1286 OFFCURVE",
"180 1124 CURVE",
"178 672 LINE SMOOTH",
"176 207 OFFCURVE",
"442 -35 OFFCURVE",
"774 -35 CURVE SMOOTH",
"1225 -35 OFFCURVE",
"1341 219 OFFCURVE",
"1364 811 CURVE SMOOTH",
"1367 889 OFFCURVE",
"1367 967 OFFCURVE",
"1367 1045 CURVE SMOOTH",
"1367 1149 OFFCURVE",
"1366 1252 OFFCURVE",
"1366 1354 CURVE SMOOTH"
);
}
);
width = 1481;
}
);
unicode = 0055;
},
{
glyphname = V;
layers = (
{
layerId = UUID0;
paths = (
{
closed = 1;
nodes = (
"1114 647 OFFCURVE",
"1366 1073 OFFCURVE",
"1366 1294 CURVE SMOOTH",
"1366 1370 OFFCURVE",
"1317 1475 OFFCURVE",
"1186 1475 CURVE SMOOTH",
"1118 1475 OFFCURVE",
"1098 1450 OFFCURVE",
"1098 1448 CURVE SMOOTH",
"1098 1446 OFFCURVE",
"1116 1436 OFFCURVE",
"1116 1373 CURVE SMOOTH",
"1116 1361 OFFCURVE",
"1116 1347 OFFCURVE",
"1114 1331 CURVE SMOOTH",
"1104 1231 OFFCURVE",
"817 246 OFFCURVE",
"817 246 CURVE",
"639 815 OFFCURVE",
"438 1389 OFFCURVE",
"393 1436 CURVE",
"379 1437 OFFCURVE",
"364 1437 OFFCURVE",
"350 1437 CURVE SMOOTH",
"237 1437 OFFCURVE",
"125 1415 OFFCURVE",
"12 1352 CURVE",
"8 1327 OFFCURVE",
"18 1290 OFFCURVE",
"27 1268 CURVE",
"53 1266 OFFCURVE",
"96 1266 OFFCURVE",
"119 1251 CURVE SMOOTH",
"260 1163 OFFCURVE",
"588 76 OFFCURVE",
"635 10 CURVE SMOOTH",
"658 -21 OFFCURVE",
"716 -33 OFFCURVE",
"790 -33 CURVE SMOOTH",
"815 -33 OFFCURVE",
"842 -32 OFFCURVE",
"870 -29 CURVE"
);
}
);
width = 1397;
}
);
unicode = 0056;
},
{
glyphname = W;
layers = (
{
layerId = UUID0;
paths = (
{
closed = 1;
nodes = (
"1741 442 OFFCURVE",
"2028 1073 OFFCURVE",
"2028 1294 CURVE SMOOTH",
"2028 1370 OFFCURVE",
"1956 1475 OFFCURVE",
"1825 1475 CURVE SMOOTH",
"1757 1475 OFFCURVE",
"1737 1450 OFFCURVE",
"1737 1448 CURVE SMOOTH",
"1737 1446 OFFCURVE",
"1755 1436 OFFCURVE",
"1755 1373 CURVE SMOOTH",
"1755 1361 OFFCURVE",
"1755 1347 OFFCURVE",
"1753 1331 CURVE SMOOTH",
"1743 1231 OFFCURVE",
"1483 258 OFFCURVE",
"1483 258 CURVE",
"1260 881 OFFCURVE",
"1329 1413 OFFCURVE",
"1069 1419 CURVE",
"1012 1421 OFFCURVE",
"936 1397 OFFCURVE",
"872 1352 CURVE",
"901 1284 OFFCURVE",
"932 1210 OFFCURVE",
"971 1102 CURVE",
"899 897 OFFCURVE",
"760 252 OFFCURVE",
"760 252 CURVE",
"590 807 OFFCURVE",
"449 1386 OFFCURVE",
"403 1434 CURVE",
"387 1435 OFFCURVE",
"370 1435 OFFCURVE",
"353 1435 CURVE SMOOTH",
"240 1435 OFFCURVE",
"123 1416 OFFCURVE",
"12 1354 CURVE",
"8 1329 OFFCURVE",
"18 1290 OFFCURVE",
"27 1268 CURVE",
"53 1266 OFFCURVE",
"92 1268 OFFCURVE",
"115 1253 CURVE SMOOTH",
"256 1165 OFFCURVE",
"541 82 OFFCURVE",
"588 16 CURVE SMOOTH",
"610 -15 OFFCURVE",
"675 -34 OFFCURVE",
"747 -34 CURVE SMOOTH",
"772 -34 OFFCURVE",
"798 -32 OFFCURVE",
"823 -27 CURVE",
"913 160 OFFCURVE",
"997 707 OFFCURVE",
"1061 834 CURVE",
"1126 641 OFFCURVE",
"1262 70 OFFCURVE",
"1300 16 CURVE SMOOTH",
"1323 -15 OFFCURVE",
"1393 -34 OFFCURVE",
"1467 -34 CURVE SMOOTH",
"1493 -34 OFFCURVE",
"1519 -32 OFFCURVE",
"1544 -27 CURVE"
);
}
);
width = 2058;
}
);
unicode = 0057;
},
{
glyphname = X;
layers = (
{
layerId = UUID0;
paths = (
{
closed = 1;
nodes = (
"295 1044 OFFCURVE",
"403 874 OFFCURVE",
"510 702 CURVE",
"338 522 OFFCURVE",
"84 268 OFFCURVE",
"84 137 CURVE SMOOTH",
"84 23 OFFCURVE",
"137 -28 OFFCURVE",
"230 -28 CURVE SMOOTH",
"258 -28 OFFCURVE",
"290 -23 OFFCURVE",
"326 -14 CURVE",
"399 233 OFFCURVE",
"508 414 OFFCURVE",
"598 565 CURVE",
"766 299 OFFCURVE",
"944 29 OFFCURVE",
"971 0 CURVE SMOOTH",
"990 -20 OFFCURVE",
"1066 -33 OFFCURVE",
"1145 -33 CURVE SMOOTH",
"1212 -33 OFFCURVE",
"1282 -24 OFFCURVE",
"1321 -2 CURVE",
"1176 207 OFFCURVE",
"987 475 OFFCURVE",
"817 741 CURVE",
"985 918 OFFCURVE",
"1227 1161 OFFCURVE",
"1227 1290 CURVE SMOOTH",
"1227 1405 OFFCURVE",
"1174 1456 OFFCURVE",
"1081 1456 CURVE SMOOTH",
"1053 1456 OFFCURVE",
"1021 1451 OFFCURVE",
"985 1442 CURVE",
"913 1206 OFFCURVE",
"811 1030 OFFCURVE",
"729 883 CURVE",
"618 1063 OFFCURVE",
"508 1253 OFFCURVE",
"424 1434 CURVE",
"395 1438 OFFCURVE",
"365 1440 OFFCURVE",
"337 1440 CURVE SMOOTH",
"230 1440 OFFCURVE",
"131 1413 OFFCURVE",
"35 1358 CURVE",
"29 1327 OFFCURVE",
"45 1280 OFFCURVE",
"49 1276 CURVE",
"113 1272 OFFCURVE",
"166 1282 OFFCURVE",
"244 1141 CURVE"
);
}
);
width = 1352;
}
);
unicode = 0058;
},
{
glyphname = Y;
layers = (
{
layerId = UUID0;
paths = (
{
closed = 1;
nodes = (
"854 586 LINE",
"1018 944 OFFCURVE",
"1241 1096 OFFCURVE",
"1241 1294 CURVE SMOOTH",
"1241 1370 OFFCURVE",
"1192 1475 OFFCURVE",
"1061 1475 CURVE SMOOTH",
"993 1475 OFFCURVE",
"973 1450 OFFCURVE",
"973 1448 CURVE SMOOTH",
"973 1446 OFFCURVE",
"991 1436 OFFCURVE",
"991 1373 CURVE SMOOTH",
"991 1361 OFFCURVE",
"991 1347 OFFCURVE",
"989 1331 CURVE SMOOTH",
"979 1231 OFFCURVE",
"764 750 OFFCURVE",
"764 750 CURVE",
"551 1307 OFFCURVE",
"412 1384 OFFCURVE",
"367 1432 CURVE",
"351 1433 OFFCURVE",
"335 1433 OFFCURVE",
"320 1433 CURVE SMOOTH",
"219 1433 OFFCURVE",
"144 1414 OFFCURVE",
"33 1352 CURVE",
"31 1331 OFFCURVE",
"33 1309 OFFCURVE",
"47 1270 CURVE",
"74 1268 OFFCURVE",
"123 1266 OFFCURVE",
"145 1251 CURVE",
"256 1182 OFFCURVE",
"455 807 OFFCURVE",
"569 608 CURVE",
"563 322 LINE",
"543 0 LINE",
"563 -12 OFFCURVE",
"598 -20 OFFCURVE",
"623 -23 CURVE SMOOTH",
"642 -25 OFFCURVE",
"664 -26 OFFCURVE",
"689 -26 CURVE SMOOTH",
"762 -26 OFFCURVE",
"851 -17 OFFCURVE",
"901 0 CURVE",
"883 123 OFFCURVE",
"858 242 OFFCURVE",
"858 401 CURVE"
);
}
);
width = 1272;
}
);
unicode = 0059;
},
{
glyphname = Z;
layers = (
{
layerId = UUID0;
paths = (
{
closed = 1;
nodes = (
"500 0 OFFCURVE",
"791 -19 OFFCURVE",
"958 -19 CURVE SMOOTH",
"976 -19 OFFCURVE",
"993 -18 OFFCURVE",
"1008 -18 CURVE",
"1188 -10 OFFCURVE",
"1272 143 OFFCURVE",
"1282 307 CURVE",
"1253 336 OFFCURVE",
"1217 356 OFFCURVE",
"1171 365 CURVE",
"1038 203 OFFCURVE",
"848 145 OFFCURVE",
"457 139 CURVE",
"678 516 OFFCURVE",
"938 874 OFFCURVE",
"1212 1223 CURVE",
"1212 1223 OFFCURVE",
"1233 1253 OFFCURVE",
"1233 1339 CURVE SMOOTH",
"1233 1432 OFFCURVE",
"1210 1436 OFFCURVE",
"1210 1436 CURVE",
"733 1436 OFFCURVE",
"569 1460 OFFCURVE",
"385 1460 CURVE SMOOTH",
"193 1460 OFFCURVE",
"72 1386 OFFCURVE",
"72 1198 CURVE SMOOTH",
"72 1059 OFFCURVE",
"160 1022 OFFCURVE",
"231 1022 CURVE SMOOTH",
"311 1022 OFFCURVE",
"354 1075 OFFCURVE",
"354 1077 CURVE SMOOTH",
"351 1097 OFFCURVE",
"349 1120 OFFCURVE",
"349 1142 CURVE SMOOTH",
"349 1213 OFFCURVE",
"370 1282 OFFCURVE",
"442 1282 CURVE",
"926 1307 LINE",
"700 940 OFFCURVE",
"436 584 OFFCURVE",
"172 236 CURVE",
"172 236 OFFCURVE",
"156 211 OFFCURVE",
"156 119 CURVE SMOOTH",
"156 33 OFFCURVE",
"176 0 OFFCURVE",
"176 0 CURVE"
);
}
);
width = 1333;
}
);
unicode = 005A;
},
{
glyphname = a;
layers = (
{
anchors = (
{
name = top;
position = "{647, 1118}";
}
);
layerId = UUID0;
paths = (
{
closed = 1;
nodes = (
"1100 -35 OFFCURVE",
"1190 43 OFFCURVE",
"1253 123 CURVE",
"1251 139 OFFCURVE",
"1231 174 OFFCURVE",
"1212 190 CURVE",
"1188 176 OFFCURVE",
"1155 164 OFFCURVE",
"1127 164 CURVE SMOOTH",
"1095 164 OFFCURVE",
"1071 180 OFFCURVE",
"1075 229 CURVE",
"1075 279 OFFCURVE",
"1081 420 OFFCURVE",
"1081 565 CURVE SMOOTH",
"1081 999 OFFCURVE",
"911 1061 OFFCURVE",
"659 1061 CURVE SMOOTH",
"440 1061 OFFCURVE",
"188 997 OFFCURVE",
"188 809 CURVE SMOOTH",
"188 745 OFFCURVE",
"233 690 OFFCURVE",
"336 696 CURVE",
"418 702 OFFCURVE",
"459 750 OFFCURVE",
"459 752 CURVE SMOOTH",
"459 874 OFFCURVE",
"512 934 OFFCURVE",
"598 934 CURVE SMOOTH",
"755 934 OFFCURVE",
"789 847 OFFCURVE",
"789 720 CURVE SMOOTH",
"789 681 OFFCURVE",
"786 638 OFFCURVE",
"782 592 CURVE",
"666 588 LINE",
"399 581 OFFCURVE",
"114 498 OFFCURVE",
"114 259 CURVE SMOOTH",
"114 241 OFFCURVE",
"116 222 OFFCURVE",
"119 203 CURVE SMOOTH",
"150 18 OFFCURVE",
"299 -35 OFFCURVE",
"457 -35 CURVE SMOOTH",
"610 -35 OFFCURVE",
"762 63 OFFCURVE",
"809 96 CURVE",
"840 20 OFFCURVE",
"893 -35 OFFCURVE",
"991 -35 CURVE SMOOTH"
);
},
{
closed = 1;
nodes = (
"453 143 OFFCURVE",
"410 182 OFFCURVE",
"410 293 CURVE SMOOTH",
"410 385 OFFCURVE",
"483 471 OFFCURVE",
"633 471 CURVE",
"772 477 LINE",
"771 445 OFFCURVE",
"769 412 OFFCURVE",
"769 380 CURVE SMOOTH",
"769 367 OFFCURVE",
"769 353 OFFCURVE",
"770 340 CURVE SMOOTH",
"772 295 OFFCURVE",
"774 246 OFFCURVE",
"782 201 CURVE",
"707 156 OFFCURVE",
"637 143 OFFCURVE",
"557 143 CURVE SMOOTH"
);
}
);
width = 1305;
}
);
unicode = 0061;
},
{
glyphname = ae;
layers = (
{
layerId = UUID0;
paths = (
{
closed = 1;
nodes = (
"1210 1061 OFFCURVE",
"1051 1012 OFFCURVE",
"977 903 CURVE",
"915 1006 OFFCURVE",
"801 1061 OFFCURVE",
"659 1061 CURVE SMOOTH",
"440 1061 OFFCURVE",
"188 997 OFFCURVE",
"188 809 CURVE SMOOTH",
"188 745 OFFCURVE",
"233 690 OFFCURVE",
"336 696 CURVE",
"418 702 OFFCURVE",
"459 750 OFFCURVE",
"459 752 CURVE SMOOTH",
"459 874 OFFCURVE",
"512 934 OFFCURVE",
"598 934 CURVE SMOOTH",
"755 934 OFFCURVE",
"789 844 OFFCURVE",
"789 715 CURVE SMOOTH",
"789 675 OFFCURVE",
"786 632 OFFCURVE",
"782 586 CURVE",
"666 582 LINE SMOOTH",
"399 574 OFFCURVE",
"114 492 OFFCURVE",
"114 253 CURVE SMOOTH",
"114 235 OFFCURVE",
"116 216 OFFCURVE",
"119 197 CURVE SMOOTH",
"150 12 OFFCURVE",
"299 -41 OFFCURVE",
"457 -41 CURVE SMOOTH",
"709 -41 OFFCURVE",
"858 90 OFFCURVE",
"915 131 CURVE",
"1024 16 OFFCURVE",
"1186 -41 OFFCURVE",
"1354 -41 CURVE SMOOTH",
"1628 -41 OFFCURVE",
"1776 131 OFFCURVE",
"1776 131 CURVE",
"1767 164 OFFCURVE",
"1739 193 OFFCURVE",
"1714 209 CURVE",
"1714 209 OFFCURVE",
"1593 96 OFFCURVE",
"1442 96 CURVE SMOOTH",
"1282 96 OFFCURVE",
"1135 254 OFFCURVE",
"1094 455 CURVE",
"1690 471 LINE",
"1765 477 OFFCURVE",
"1802 543 OFFCURVE",
"1802 651 CURVE SMOOTH",
"1802 926 OFFCURVE",
"1573 1061 OFFCURVE",
"1333 1061 CURVE SMOOTH"
);
},
{
closed = 1;
nodes = (
"1428 934 OFFCURVE",
"1534 846 OFFCURVE",
"1534 681 CURVE SMOOTH",
"1534 659 OFFCURVE",
"1532 636 OFFCURVE",
"1528 612 CURVE",
"1378 590 OFFCURVE",
"1233 588 OFFCURVE",
"1077 584 CURVE",
"1077 801 OFFCURVE",
"1143 934 OFFCURVE",
"1305 934 CURVE SMOOTH"
);
},
{
closed = 1;
nodes = (
"782 180 OFFCURVE",
"684 137 OFFCURVE",
"557 137 CURVE SMOOTH",
"453 137 OFFCURVE",
"410 176 OFFCURVE",
"410 287 CURVE SMOOTH",
"410 379 OFFCURVE",
"483 459 OFFCURVE",
"633 465 CURVE SMOOTH",
"780 471 LINE",
"786 373 OFFCURVE",
"811 287 OFFCURVE",
"852 217 CURVE"
);
}
);
width = 1874;
}
);
unicode = 00E6;
},
{
glyphname = b;
layers = (
{
layerId = UUID0;
paths = (
{
closed = 1;
nodes = (
"578 874 OFFCURVE",
"651 909 OFFCURVE",
"731 909 CURVE SMOOTH",
"852 909 OFFCURVE",
"945 820 OFFCURVE",
"945 550 CURVE SMOOTH",
"945 532 OFFCURVE",
"945 512 OFFCURVE",
"944 492 CURVE SMOOTH",
"932 225 OFFCURVE",
"760 86 OFFCURVE",
"598 86 CURVE SMOOTH",
"557 86 OFFCURVE",
"516 88 OFFCURVE",
"479 94 CURVE",
"475 260 OFFCURVE",
"475 413 OFFCURVE",
"475 552 CURVE SMOOTH",
"475 644 OFFCURVE",
"475 730 OFFCURVE",
"475 809 CURVE"
);
},
{
closed = 1;
nodes = (
"319 -33 OFFCURVE",
"498 -41 OFFCURVE",
"598 -41 CURVE SMOOTH",
"932 -41 OFFCURVE",
"1229 164 OFFCURVE",
"1249 512 CURVE SMOOTH",
"1250 534 OFFCURVE",
"1251 555 OFFCURVE",
"1251 576 CURVE SMOOTH",
"1251 882 OFFCURVE",
"1105 1065 OFFCURVE",
"791 1065 CURVE SMOOTH",
"682 1065 OFFCURVE",
"571 1026 OFFCURVE",
"477 954 CURVE",
"479 1143 OFFCURVE",
"482 1277 OFFCURVE",
"482 1342 CURVE SMOOTH",
"482 1357 OFFCURVE",
"481 1369 OFFCURVE",
"481 1376 CURVE SMOOTH",
"475 1466 OFFCURVE",
"469 1522 OFFCURVE",
"449 1548 CURVE",
"301 1550 OFFCURVE",
"190 1528 OFFCURVE",
"53 1475 CURVE",
"49 1450 OFFCURVE",
"55 1432 OFFCURVE",
"59 1405 CURVE",
"127 1399 OFFCURVE",
"180 1362 OFFCURVE",
"184 1292 CURVE",
"188 1166 OFFCURVE",
"190 975 OFFCURVE",
"190 771 CURVE SMOOTH",
"190 502 OFFCURVE",
"186 209 OFFCURVE",
"174 10 CURVE"
);
}
);
width = 1331;
}
);
unicode = 0062;
},
{
glyphname = c;
layers = (
{
layerId = UUID0;
paths = (
{
closed = 1;
nodes = (
"342 1069 OFFCURVE",
"113 831 OFFCURVE",
"113 500 CURVE SMOOTH",
"113 178 OFFCURVE",
"358 -37 OFFCURVE",
"684 -35 CURVE SMOOTH",
"958 -33 OFFCURVE",
"1104 164 OFFCURVE",
"1104 164 CURVE",
"1096 197 OFFCURVE",
"1055 236 OFFCURVE",
"1030 252 CURVE",
"1030 252 OFFCURVE",
"915 111 OFFCURVE",
"752 111 CURVE SMOOTH",
"580 111 OFFCURVE",
"408 326 OFFCURVE",
"408 580 CURVE SMOOTH",
"408 831 OFFCURVE",
"504 936 OFFCURVE",
"639 936 CURVE SMOOTH",
"766 936 OFFCURVE",
"857 858 OFFCURVE",
"857 731 CURVE SMOOTH",
"857 719 OFFCURVE",
"856 705 OFFCURVE",
"854 692 CURVE SMOOTH",
"854 690 OFFCURVE",
"893 665 OFFCURVE",
"956 665 CURVE SMOOTH",
"968 665 OFFCURVE",
"980 666 OFFCURVE",
"993 668 CURVE",
"1094 678 OFFCURVE",
"1114 754 OFFCURVE",
"1114 817 CURVE",
"1112 956 OFFCURVE",
"911 1073 OFFCURVE",
"678 1071 CURVE SMOOTH"
);
}
);
width = 1165;
}
);
unicode = 0063;
},
{
glyphname = ccedilla;
layers = (
{
layerId = UUID0;
paths = (
{
closed = 1;
nodes = (
"770 -477 OFFCURVE",
"973 -432 OFFCURVE",
"973 -291 CURVE SMOOTH",
"973 -135 OFFCURVE",
"719 -129 OFFCURVE",
"672 -131 CURVE",
"724 -33 LINE",
"972 -14 OFFCURVE",
"1104 164 OFFCURVE",
"1104 164 CURVE",
"1096 197 OFFCURVE",
"1055 236 OFFCURVE",
"1030 252 CURVE",
"1030 252 OFFCURVE",
"915 111 OFFCURVE",
"752 111 CURVE SMOOTH",
"580 111 OFFCURVE",
"408 326 OFFCURVE",
"408 580 CURVE SMOOTH",
"408 831 OFFCURVE",
"504 936 OFFCURVE",
"639 936 CURVE SMOOTH",
"766 936 OFFCURVE",
"857 858 OFFCURVE",
"857 731 CURVE SMOOTH",
"857 719 OFFCURVE",
"856 705 OFFCURVE",
"854 692 CURVE SMOOTH",
"854 690 OFFCURVE",
"893 665 OFFCURVE",
"956 665 CURVE SMOOTH",
"968 665 OFFCURVE",
"980 666 OFFCURVE",
"993 668 CURVE",
"1094 678 OFFCURVE",
"1114 754 OFFCURVE",
"1114 817 CURVE",
"1112 956 OFFCURVE",
"911 1073 OFFCURVE",
"678 1071 CURVE SMOOTH",
"342 1069 OFFCURVE",
"113 831 OFFCURVE",
"113 500 CURVE SMOOTH",
"113 197 OFFCURVE",
"329 -11 OFFCURVE",
"626 -33 CURVE",
"566 -166 LINE",
"578 -190 OFFCURVE",
"603 -219 OFFCURVE",
"646 -219 CURVE SMOOTH",
"713 -219 OFFCURVE",
"799 -233 OFFCURVE",
"799 -293 CURVE SMOOTH",
"799 -354 OFFCURVE",
"727 -367 OFFCURVE",
"674 -367 CURVE SMOOTH",
"564 -367 OFFCURVE",
"541 -293 OFFCURVE",
"537 -293 CURVE SMOOTH",
"502 -293 OFFCURVE",
"457 -311 OFFCURVE",
"457 -362 CURVE SMOOTH",
"457 -444 OFFCURVE",
"586 -477 OFFCURVE",
"680 -477 CURVE SMOOTH"
);
}
);
width = 1165;
}
);
unicode = 00E7;
},
{
glyphname = d;
layers = (
{
layerId = UUID0;
paths = (
{
closed = 1;
nodes = (
"354 -35 OFFCURVE",
"102 82 OFFCURVE",
"81 465 CURVE SMOOTH",
"80 477 OFFCURVE",
"80 490 OFFCURVE",
"80 502 CURVE SMOOTH",
"80 869 OFFCURVE",
"370 1053 OFFCURVE",
"677 1053 CURVE SMOOTH",
"737 1053 OFFCURVE",
"804 1044 OFFCURVE",
"868 1034 CURVE",
"862 1298 LINE",
"858 1368 OFFCURVE",
"804 1405 OFFCURVE",
"737 1411 CURVE",
"733 1438 OFFCURVE",
"727 1456 OFFCURVE",
"731 1481 CURVE",
"868 1534 OFFCURVE",
"978 1556 OFFCURVE",
"1126 1554 CURVE",
"1146 1528 OFFCURVE",
"1153 1473 OFFCURVE",
"1159 1382 CURVE SMOOTH",
"1160 1373 OFFCURVE",
"1160 1362 OFFCURVE",
"1160 1347 CURVE SMOOTH",
"1160 1263 OFFCURVE",
"1151 1075 OFFCURVE",
"1151 731 CURVE SMOOTH",
"1151 587 OFFCURVE",
"1153 416 OFFCURVE",
"1157 213 CURVE",
"1157 176 OFFCURVE",
"1167 145 OFFCURVE",
"1212 141 CURVE SMOOTH",
"1224 140 OFFCURVE",
"1236 140 OFFCURVE",
"1249 140 CURVE SMOOTH",
"1261 140 OFFCURVE",
"1274 140 OFFCURVE",
"1288 139 CURVE",
"1296 125 OFFCURVE",
"1299 109 OFFCURVE",
"1299 94 CURVE SMOOTH",
"1299 83 OFFCURVE",
"1298 73 OFFCURVE",
"1296 63 CURVE",
"1202 10 OFFCURVE",
"1105 -35 OFFCURVE",
"1003 -35 CURVE",
"950 -27 OFFCURVE",
"905 12 OFFCURVE",
"870 94 CURVE",
"778 6 OFFCURVE",
"694 -35 OFFCURVE",
"569 -35 CURVE SMOOTH"
);
},
{
closed = 1;
nodes = (
"544 907 OFFCURVE",
"390 798 OFFCURVE",
"390 528 CURVE SMOOTH",
"390 507 OFFCURVE",
"391 484 OFFCURVE",
"393 461 CURVE SMOOTH",
"413 207 OFFCURVE",
"540 119 OFFCURVE",
"649 119 CURVE SMOOTH",
"749 119 OFFCURVE",
"788 147 OFFCURVE",
"868 238 CURVE",
"873 332 OFFCURVE",
"875 461 OFFCURVE",
"875 599 CURVE SMOOTH",
"875 696 OFFCURVE",
"874 798 OFFCURVE",
"872 895 CURVE",
"823 903 OFFCURVE",
"774 907 OFFCURVE",
"727 907 CURVE SMOOTH"
);
}
);
width = 1351;
}
);
unicode = 0064;
},
{
glyphname = eth;
layers = (
{
layerId = UUID0;
paths = (
{
closed = 1;
nodes = (
"958 1378 LINE",
"944 1421 OFFCURVE",
"926 1448 OFFCURVE",
"903 1475 CURVE",
"866 1462 OFFCURVE",
"797 1423 OFFCURVE",
"719 1380 CURVE",
"604 1446 OFFCURVE",
"502 1475 OFFCURVE",
"463 1475 CURVE",
"432 1456 OFFCURVE",
"393 1430 OFFCURVE",
"379 1384 CURVE",
"410 1370 OFFCURVE",
"489 1350 OFFCURVE",
"578 1294 CURVE",
"524 1262 OFFCURVE",
"479 1231 OFFCURVE",
"453 1212 CURVE",
"449 1190 OFFCURVE",
"481 1137 OFFCURVE",
"500 1118 CURVE",
"674 1217 LINE",
"743 1149 OFFCURVE",
"811 1053 OFFCURVE",
"858 915 CURVE",
"801 973 OFFCURVE",
"723 1024 OFFCURVE",
"614 1024 CURVE SMOOTH",
"354 1024 OFFCURVE",
"113 827 OFFCURVE",
"113 477 CURVE SMOOTH",
"113 176 OFFCURVE",
"350 -43 OFFCURVE",
"604 -43 CURVE SMOOTH",
"975 -43 OFFCURVE",
"1182 186 OFFCURVE",
"1182 555 CURVE SMOOTH",
"1182 930 OFFCURVE",
"1008 1165 OFFCURVE",
"829 1305 CURVE"
);
},
{
closed = 1;
nodes = (
"920 272 OFFCURVE",
"829 82 OFFCURVE",
"696 82 CURVE SMOOTH",
"539 82 OFFCURVE",
"408 264 OFFCURVE",
"408 528 CURVE SMOOTH",
"408 698 OFFCURVE",
"471 893 OFFCURVE",
"625 893 CURVE SMOOTH",
"803 893 OFFCURVE",
"891 768 OFFCURVE",
"913 627 CURVE",
"918 582 OFFCURVE",
"920 532 OFFCURVE",
"920 481 CURVE SMOOTH"
);
}
);
width = 1294;
}
);
unicode = 00F0;
},
{
glyphname = e;
layers = (
{
anchors = (
{
name = top;
position = "{606, 1118}";
}
);
layerId = UUID0;
paths = (
{
closed = 1;
nodes = (
"393 1067 OFFCURVE",
"113 868 OFFCURVE",
"113 516 CURVE SMOOTH",
"113 143 OFFCURVE",
"387 -35 OFFCURVE",
"686 -35 CURVE SMOOTH",
"961 -35 OFFCURVE",
"1108 137 OFFCURVE",
"1108 137 CURVE",
"1100 170 OFFCURVE",
"1071 199 OFFCURVE",
"1047 215 CURVE",
"1047 215 OFFCURVE",
"926 102 OFFCURVE",
"774 102 CURVE SMOOTH",
"614 102 OFFCURVE",
"467 231 OFFCURVE",
"426 432 CURVE",
"1022 477 LINE SMOOTH",
"1098 483 OFFCURVE",
"1135 549 OFFCURVE",
"1135 657 CURVE SMOOTH",
"1135 932 OFFCURVE",
"905 1067 OFFCURVE",
"666 1067 CURVE SMOOTH"
);
},
{
closed = 1;
nodes = (
"760 940 OFFCURVE",
"866 852 OFFCURVE",
"866 687 CURVE SMOOTH",
"866 665 OFFCURVE",
"864 642 OFFCURVE",
"860 618 CURVE",
"711 596 OFFCURVE",
"565 578 OFFCURVE",
"410 561 CURVE",
"410 786 OFFCURVE",
"475 940 OFFCURVE",
"637 940 CURVE SMOOTH"
);
}
);
width = 1196;
}
);
unicode = 0065;
},
{
glyphname = f;
layers = (
{
layerId = UUID0;
paths = (
{
closed = 1;
nodes = (
"504 1020 LINE SMOOTH",
"504 1096 OFFCURVE",
"453 1223 OFFCURVE",
"453 1309 CURVE SMOOTH",
"453 1386 OFFCURVE",
"489 1430 OFFCURVE",
"551 1430 CURVE SMOOTH",
"606 1430 OFFCURVE",
"640 1372 OFFCURVE",
"640 1292 CURVE SMOOTH",
"640 1271 OFFCURVE",
"638 1248 OFFCURVE",
"633 1225 CURVE SMOOTH",
"633 1223 OFFCURVE",
"674 1169 OFFCURVE",
"756 1169 CURVE SMOOTH",
"872 1169 OFFCURVE",
"911 1255 OFFCURVE",
"911 1343 CURVE SMOOTH",
"911 1507 OFFCURVE",
"774 1567 OFFCURVE",
"592 1567 CURVE SMOOTH",
"420 1567 OFFCURVE",
"231 1456 OFFCURVE",
"217 1137 CURVE",
"215 1110 OFFCURVE",
"215 1044 OFFCURVE",
"213 940 CURVE",
"160 938 OFFCURVE",
"104 934 OFFCURVE",
"57 928 CURVE",
"54 925 OFFCURVE",
"52 899 OFFCURVE",
"52 872 CURVE SMOOTH",
"52 845 OFFCURVE",
"54 818 OFFCURVE",
"57 813 CURVE",
"104 813 OFFCURVE",
"160 809 OFFCURVE",
"213 803 CURVE",
"213 625 OFFCURVE",
"215 381 OFFCURVE",
"223 0 CURVE",
"268 -13 OFFCURVE",
"324 -19 OFFCURVE",
"378 -19 CURVE SMOOTH",
"436 -19 OFFCURVE",
"490 -12 OFFCURVE",
"524 2 CURVE",
"510 106 OFFCURVE",
"504 463 OFFCURVE",
"504 791 CURVE",
"600 791 OFFCURVE",
"705 797 OFFCURVE",
"772 805 CURVE SMOOTH",
"775 805 OFFCURVE",
"776 835 OFFCURVE",
"776 866 CURVE SMOOTH",
"776 897 OFFCURVE",
"775 928 OFFCURVE",
"772 928 CURVE SMOOTH",
"759 927 OFFCURVE",
"745 927 OFFCURVE",
"730 927 CURVE SMOOTH",
"665 927 OFFCURVE",
"582 933 OFFCURVE",
"504 936 CURVE"
);
}
);
width = 819;
}
);
unicode = 0066;
},
{
glyphname = g;
layers = (
{
layerId = UUID0;
paths = (
{
closed = 1;
nodes = (
"1176 694 OFFCURVE",
"1163 739 OFFCURVE",
"1145 782 CURVE",
"1176 821 OFFCURVE",
"1214 856 OFFCURVE",
"1255 860 CURVE SMOOTH",
"1298 864 OFFCURVE",
"1362 846 OFFCURVE",
"1391 803 CURVE",
"1462 831 OFFCURVE",
"1536 877 OFFCURVE",
"1536 979 CURVE SMOOTH",
"1536 1055 OFFCURVE",
"1487 1104 OFFCURVE",
"1384 1108 CURVE SMOOTH",
"1274 1112 OFFCURVE",
"1153 1018 OFFCURVE",
"1077 887 CURVE",
"987 991 OFFCURVE",
"846 1071 OFFCURVE",
"713 1071 CURVE SMOOTH",
"338 1071 OFFCURVE",
"88 911 OFFCURVE",
"88 573 CURVE SMOOTH",
"88 336 OFFCURVE",
"287 180 OFFCURVE",
"532 162 CURVE",
"543 86 OFFCURVE",
"596 23 OFFCURVE",
"664 -33 CURVE",
"449 -111 OFFCURVE",
"86 -76 OFFCURVE",
"63 -369 CURVE SMOOTH",
"43 -625 OFFCURVE",
"322 -727 OFFCURVE",
"639 -727 CURVE SMOOTH",
"1028 -727 OFFCURVE",
"1257 -578 OFFCURVE",
"1257 -283 CURVE SMOOTH",
"1257 -35 OFFCURVE",
"842 86 OFFCURVE",
"825 186 CURVE",
"1057 246 OFFCURVE",
"1176 401 OFFCURVE",
"1176 649 CURVE SMOOTH"
);
},
{
closed = 1;
nodes = (
"383 805 OFFCURVE",
"444 946 OFFCURVE",
"608 946 CURVE SMOOTH",
"764 946 OFFCURVE",
"887 803 OFFCURVE",
"887 578 CURVE SMOOTH",
"887 436 OFFCURVE",
"803 266 OFFCURVE",
"672 266 CURVE SMOOTH",
"512 266 OFFCURVE",
"383 389 OFFCURVE",
"383 625 CURVE SMOOTH"
);
},
{
closed = 1;
nodes = (
"1001 -487 OFFCURVE",
"909 -582 OFFCURVE",
"696 -582 CURVE SMOOTH",
"463 -582 OFFCURVE",
"365 -463 OFFCURVE",
"365 -346 CURVE SMOOTH",
"365 -154 OFFCURVE",
"651 -227 OFFCURVE",
"776 -115 CURVE",
"891 -195 OFFCURVE",
"1001 -266 OFFCURVE",
"1001 -356 CURVE SMOOTH"
);
}
);
width = 1485;
}
);
unicode = 0067;
},
{
glyphname = h;
layers = (
{
layerId = UUID0;
paths = (
{
closed = 1;
nodes = (
"1210 401 OFFCURVE",
"1227 511 OFFCURVE",
"1227 653 CURVE SMOOTH",
"1227 691 OFFCURVE",
"1226 731 OFFCURVE",
"1223 776 CURVE SMOOTH",
"1210 950 OFFCURVE",
"1124 1067 OFFCURVE",
"963 1067 CURVE SMOOTH",
"811 1067 OFFCURVE",
"643 997 OFFCURVE",
"518 846 CURVE",
"519 927 OFFCURVE",
"519 1001 OFFCURVE",
"519 1067 CURVE SMOOTH",
"519 1226 OFFCURVE",
"517 1334 OFFCURVE",
"516 1360 CURVE",
"510 1450 OFFCURVE",
"504 1505 OFFCURVE",
"483 1532 CURVE",
"336 1534 OFFCURVE",
"221 1511 OFFCURVE",
"84 1458 CURVE",
"80 1434 OFFCURVE",
"86 1415 OFFCURVE",
"90 1389 CURVE",
"158 1382 OFFCURVE",
"211 1346 OFFCURVE",
"215 1276 CURVE",
"221 1099 OFFCURVE",
"224 856 OFFCURVE",
"224 627 CURVE SMOOTH",
"224 357 OFFCURVE",
"219 105 OFFCURVE",
"205 0 CURVE",
"240 -13 OFFCURVE",
"281 -19 OFFCURVE",
"328 -19 CURVE SMOOTH",
"384 -19 OFFCURVE",
"447 -11 OFFCURVE",
"512 0 CURVE",
"514 266 OFFCURVE",
"518 500 OFFCURVE",
"518 696 CURVE",
"647 821 OFFCURVE",
"729 846 OFFCURVE",
"807 848 CURVE SMOOTH",
"877 850 OFFCURVE",
"911 821 OFFCURVE",
"924 772 CURVE SMOOTH",
"932 740 OFFCURVE",
"935 676 OFFCURVE",
"935 598 CURVE SMOOTH",
"935 507 OFFCURVE",
"931 396 OFFCURVE",
"928 297 CURVE",
"926 269 OFFCURVE",
"925 242 OFFCURVE",
"925 217 CURVE SMOOTH",
"925 49 OFFCURVE",
"971 -36 OFFCURVE",
"1084 -36 CURVE SMOOTH",
"1153 -36 OFFCURVE",
"1247 -4 OFFCURVE",
"1372 61 CURVE",
"1374 72 OFFCURVE",
"1374 94 OFFCURVE",
"1372 106 CURVE SMOOTH",
"1370 119 OFFCURVE",
"1368 127 OFFCURVE",
"1362 141 CURVE",
"1352 138 OFFCURVE",
"1338 137 OFFCURVE",
"1323 137 CURVE SMOOTH",
"1271 137 OFFCURVE",
"1202 154 OFFCURVE",
"1204 193 CURVE"
);
}
);
width = 1425;
}
);
unicode = 0068;
},
{
glyphname = i;
layers = (
{
layerId = UUID0;
paths = (
{
closed = 1;
nodes = (
"519 1321 OFFCURVE",
"543 1378 OFFCURVE",
"543 1432 CURVE SMOOTH",
"543 1468 OFFCURVE",
"532 1503 OFFCURVE",
"508 1530 CURVE SMOOTH",
"478 1565 OFFCURVE",
"434 1582 OFFCURVE",
"389 1582 CURVE SMOOTH",
"342 1582 OFFCURVE",
"294 1564 OFFCURVE",
"256 1532 CURVE",
"216 1495 OFFCURVE",
"193 1442 OFFCURVE",
"193 1390 CURVE SMOOTH",
"193 1354 OFFCURVE",
"204 1318 OFFCURVE",
"229 1290 CURVE SMOOTH",
"262 1255 OFFCURVE",
"308 1238 OFFCURVE",
"355 1238 CURVE SMOOTH",
"400 1238 OFFCURVE",
"444 1253 OFFCURVE",
"477 1282 CURVE SMOOTH"
);
},
{
closed = 1;
nodes = (
"233 680 OFFCURVE",
"235 575 OFFCURVE",
"235 482 CURVE SMOOTH",
"235 279 OFFCURVE",
"227 132 OFFCURVE",
"217 -2 CURVE",
"252 -15 OFFCURVE",
"295 -21 OFFCURVE",
"343 -21 CURVE SMOOTH",
"399 -21 OFFCURVE",
"462 -13 OFFCURVE",
"526 -2 CURVE",
"531 370 OFFCURVE",
"534 573 OFFCURVE",
"534 691 CURVE SMOOTH",
"534 822 OFFCURVE",
"531 849 OFFCURVE",
"526 885 CURVE",
"518 975 OFFCURVE",
"504 1030 OFFCURVE",
"487 1057 CURVE",
"470 1058 OFFCURVE",
"453 1058 OFFCURVE",
"435 1058 CURVE SMOOTH",
"319 1058 OFFCURVE",
"184 1039 OFFCURVE",
"74 977 CURVE",
"72 952 OFFCURVE",
"74 934 OFFCURVE",
"80 907 CURVE",
"106 905 OFFCURVE",
"152 899 OFFCURVE",
"176 891 CURVE",
"223 879 OFFCURVE",
"229 838 OFFCURVE",
"229 801 CURVE"
);
}
);
width = 653;
}
);
unicode = 0069;
},
{
glyphname = idotless;
layers = (
{
layerId = UUID0;
paths = (
{
closed = 1;
nodes = (
"233 690 OFFCURVE",
"235 584 OFFCURVE",
"235 490 CURVE SMOOTH",
"235 284 OFFCURVE",
"227 132 OFFCURVE",
"217 -2 CURVE",
"252 -15 OFFCURVE",
"295 -21 OFFCURVE",
"343 -21 CURVE SMOOTH",
"399 -21 OFFCURVE",
"462 -13 OFFCURVE",
"526 -2 CURVE",
"531 370 OFFCURVE",
"534 575 OFFCURVE",
"534 696 CURVE SMOOTH",
"534 829 OFFCURVE",
"531 859 OFFCURVE",
"526 895 CURVE",
"518 985 OFFCURVE",
"504 1040 OFFCURVE",
"487 1067 CURVE",
"470 1068 OFFCURVE",
"453 1068 OFFCURVE",
"435 1068 CURVE SMOOTH",
"319 1068 OFFCURVE",
"184 1049 OFFCURVE",
"74 987 CURVE",
"72 963 OFFCURVE",
"74 944 OFFCURVE",
"80 918 CURVE",
"106 915 OFFCURVE",
"152 909 OFFCURVE",
"176 901 CURVE",
"223 889 OFFCURVE",
"229 848 OFFCURVE",
"229 811 CURVE"
);
}
);
width = 637;
}
);
unicode = 0131;
},
{
glyphname = j;
layers = (
{
layerId = UUID0;
paths = (
{
closed = 1;
nodes = (
"305 666 OFFCURVE",
"305 535 OFFCURVE",
"305 396 CURVE SMOOTH",
"305 304 OFFCURVE",
"305 208 OFFCURVE",
"305 109 CURVE SMOOTH",
"305 33 OFFCURVE",
"356 -94 OFFCURVE",
"356 -180 CURVE SMOOTH",
"356 -258 OFFCURVE",
"326 -295 OFFCURVE",
"264 -295 CURVE SMOOTH",
"204 -295 OFFCURVE",
"174 -232 OFFCURVE",
"174 -139 CURVE SMOOTH",
"174 -125 OFFCURVE",
"175 -111 OFFCURVE",
"176 -96 CURVE SMOOTH",
"176 -94 OFFCURVE",
"135 -47 OFFCURVE",
"53 -41 CURVE",
"-49 -35 OFFCURVE",
"-113 -135 OFFCURVE",
"-113 -199 CURVE SMOOTH",
"-113 -362 OFFCURVE",
"53 -432 OFFCURVE",
"236 -432 CURVE SMOOTH",
"408 -432 OFFCURVE",
"592 -332 OFFCURVE",
"592 -8 CURVE SMOOTH",
"592 885 LINE",
"588 975 OFFCURVE",
"580 1030 OFFCURVE",
"559 1057 CURVE",
"412 1059 OFFCURVE",
"297 1036 OFFCURVE",
"160 983 CURVE",
"156 958 OFFCURVE",
"162 940 OFFCURVE",
"166 913 CURVE",
"233 907 OFFCURVE",
"297 862 OFFCURVE",
"301 793 CURVE"
);
},
{
closed = 1;
nodes = (
"603 1321 OFFCURVE",
"627 1378 OFFCURVE",
"627 1432 CURVE SMOOTH",
"627 1468 OFFCURVE",
"616 1503 OFFCURVE",
"592 1530 CURVE SMOOTH",
"562 1565 OFFCURVE",
"518 1582 OFFCURVE",
"473 1582 CURVE SMOOTH",
"426 1582 OFFCURVE",
"378 1564 OFFCURVE",
"340 1532 CURVE",
"300 1495 OFFCURVE",
"277 1442 OFFCURVE",
"277 1390 CURVE SMOOTH",
"277 1354 OFFCURVE",
"288 1318 OFFCURVE",
"313 1290 CURVE SMOOTH",
"346 1255 OFFCURVE",
"392 1238 OFFCURVE",
"439 1238 CURVE SMOOTH",
"484 1238 OFFCURVE",
"528 1253 OFFCURVE",
"561 1282 CURVE SMOOTH"
);
}
);
width = 758;
}
);
unicode = 006A;
},
{
glyphname = k;
layers = (
{
layerId = UUID0;
paths = (
{
closed = 1;
nodes = (
"1009 651 OFFCURVE",
"1021 650 OFFCURVE",
"1033 650 CURVE SMOOTH",
"1147 650 OFFCURVE",
"1245 735 OFFCURVE",
"1241 850 CURVE SMOOTH",
"1235 991 OFFCURVE",
"1143 1059 OFFCURVE",
"1016 1059 CURVE SMOOTH",
"778 1059 OFFCURVE",
"608 766 OFFCURVE",
"516 594 CURVE",
"517 812 OFFCURVE",
"517 990 OFFCURVE",
"517 1120 CURVE SMOOTH",
"517 1250 OFFCURVE",
"517 1332 OFFCURVE",
"516 1358 CURVE",
"510 1448 OFFCURVE",
"506 1503 OFFCURVE",
"485 1530 CURVE",
"338 1532 OFFCURVE",
"223 1511 OFFCURVE",
"84 1456 CURVE",
"80 1432 OFFCURVE",
"86 1413 OFFCURVE",
"90 1386 CURVE",
"158 1378 OFFCURVE",
"211 1346 OFFCURVE",
"217 1276 CURVE",
"226 1098 OFFCURVE",
"232 845 OFFCURVE",
"232 607 CURVE SMOOTH",
"232 350 OFFCURVE",
"225 111 OFFCURVE",
"207 2 CURVE",
"244 -13 OFFCURVE",
"288 -19 OFFCURVE",
"337 -19 CURVE SMOOTH",
"390 -19 OFFCURVE",
"448 -12 OFFCURVE",
"510 0 CURVE",
"512 147 OFFCURVE",
"514 283 OFFCURVE",
"514 410 CURVE",
"561 463 OFFCURVE",
"604 524 OFFCURVE",
"643 584 CURVE",
"694 377 OFFCURVE",
"809 -41 OFFCURVE",
"1040 -41 CURVE SMOOTH",
"1204 -41 OFFCURVE",
"1303 117 OFFCURVE",
"1303 117 CURVE",
"1262 184 LINE",
"1262 184 OFFCURVE",
"1229 158 OFFCURVE",
"1184 158 CURVE SMOOTH",
"1092 158 OFFCURVE",
"909 375 OFFCURVE",
"725 705 CURVE",
"784 784 OFFCURVE",
"831 836 OFFCURVE",
"905 836 CURVE SMOOTH",
"985 836 OFFCURVE",
"997 698 OFFCURVE",
"997 653 CURVE"
);
}
);
width = 1354;
}
);
unicode = 006B;
},
{
glyphname = l;
layers = (
{
layerId = UUID0;
paths = (
{
closed = 1;
nodes = (
"191 1083 OFFCURVE",
"196 814 OFFCURVE",
"196 568 CURVE SMOOTH",
"196 322 OFFCURVE",
"191 99 OFFCURVE",
"178 2 CURVE",
"212 -12 OFFCURVE",
"266 -19 OFFCURVE",
"324 -19 CURVE SMOOTH",
"377 -19 OFFCURVE",
"434 -13 OFFCURVE",
"479 0 CURVE",
"487 427 OFFCURVE",
"490 773 OFFCURVE",
"490 1010 CURVE SMOOTH",
"490 1206 OFFCURVE",
"488 1327 OFFCURVE",
"485 1358 CURVE",
"479 1448 OFFCURVE",
"475 1503 OFFCURVE",
"455 1530 CURVE",
"307 1532 OFFCURVE",
"193 1511 OFFCURVE",
"53 1456 CURVE",
"49 1432 OFFCURVE",
"55 1413 OFFCURVE",
"59 1386 CURVE",
"127 1378 OFFCURVE",
"174 1346 OFFCURVE",
"186 1276 CURVE"
);
}
);
width = 594;
}
);
unicode = 006C;
},
{
glyphname = m;
layers = (
{
layerId = UUID0;
paths = (
{
closed = 1;
nodes = (
"2042 119 OFFCURVE",
"2038 127 OFFCURVE",
"2032 141 CURVE",
"2022 138 OFFCURVE",
"2008 137 OFFCURVE",
"1993 137 CURVE SMOOTH",
"1941 137 OFFCURVE",
"1872 154 OFFCURVE",
"1874 193 CURVE",
"1880 414 OFFCURVE",
"1894 520 OFFCURVE",
"1901 678 CURVE SMOOTH",
"1902 693 OFFCURVE",
"1902 708 OFFCURVE",
"1902 722 CURVE SMOOTH",
"1902 1010 OFFCURVE",
"1786 1067 OFFCURVE",
"1628 1067 CURVE SMOOTH",
"1468 1067 OFFCURVE",
"1333 985 OFFCURVE",
"1221 858 CURVE",
"1210 1024 OFFCURVE",
"1075 1071 OFFCURVE",
"942 1067 CURVE",
"788 1061 OFFCURVE",
"653 956 OFFCURVE",
"541 854 CURVE",
"539 868 OFFCURVE",
"537 879 OFFCURVE",
"537 891 CURVE",
"526 981 OFFCURVE",
"514 1032 OFFCURVE",
"498 1057 CURVE",
"480 1058 OFFCURVE",
"462 1059 OFFCURVE",
"443 1059 CURVE SMOOTH",
"328 1059 OFFCURVE",
"193 1036 OFFCURVE",
"84 973 CURVE",
"80 948 OFFCURVE",
"86 930 OFFCURVE",
"90 903 CURVE",
"117 901 OFFCURVE",
"162 895 OFFCURVE",
"186 887 CURVE",
"233 877 OFFCURVE",
"242 836 OFFCURVE",
"242 799 CURVE",
"247 654 OFFCURVE",
"249 533 OFFCURVE",
"249 427 CURVE SMOOTH",
"249 252 OFFCURVE",
"243 120 OFFCURVE",
"236 -2 CURVE",
"270 -15 OFFCURVE",
"312 -21 OFFCURVE",
"359 -21 CURVE SMOOTH",
"416 -21 OFFCURVE",
"480 -13 OFFCURVE",
"545 0 CURVE",
"546 193 OFFCURVE",
"546 339 OFFCURVE",
"546 452 CURVE SMOOTH",
"546 565 OFFCURVE",
"546 644 OFFCURVE",
"545 705 CURVE",
"657 799 OFFCURVE",
"733 854 OFFCURVE",
"803 854 CURVE SMOOTH",
"909 854 OFFCURVE",
"943 800 OFFCURVE",
"943 577 CURVE SMOOTH",
"943 558 OFFCURVE",
"942 538 OFFCURVE",
"942 516 CURVE SMOOTH",
"939 370 OFFCURVE",
"929 200 OFFCURVE",
"929 65 CURVE SMOOTH",
"929 43 OFFCURVE",
"929 22 OFFCURVE",
"930 2 CURVE",
"961 -5 OFFCURVE",
"998 -14 OFFCURVE",
"1050 -14 CURVE SMOOTH",
"1098 -14 OFFCURVE",
"1159 -7 OFFCURVE",
"1241 16 CURVE",
"1227 119 OFFCURVE",
"1225 524 OFFCURVE",
"1223 731 CURVE",
"1335 827 OFFCURVE",
"1421 852 OFFCURVE",
"1493 852 CURVE SMOOTH",
"1583 852 OFFCURVE",
"1613 794 OFFCURVE",
"1613 590 CURVE SMOOTH",
"1613 514 OFFCURVE",
"1609 418 OFFCURVE",
"1602 297 CURVE SMOOTH",
"1601 275 OFFCURVE",
"1600 255 OFFCURVE",
"1600 235 CURVE SMOOTH",
"1600 54 OFFCURVE",
"1657 -41 OFFCURVE",
"1773 -41 CURVE SMOOTH",
"1842 -41 OFFCURVE",
"1932 -8 OFFCURVE",
"2042 61 CURVE",
"2046 72 OFFCURVE",
"2046 94 OFFCURVE",
"2044 106 CURVE SMOOTH"
);
}
);
width = 2097;
}
);
unicode = 006D;
},
{
glyphname = n;
layers = (
{
anchors = (
{
name = tpo;
position = "{731, 1118}";
}
);
layerId = UUID0;
paths = (
{
closed = 1;
nodes = (
"242 682 OFFCURVE",
"243 578 OFFCURVE",
"243 486 CURVE SMOOTH",
"243 281 OFFCURVE",
"235 133 OFFCURVE",
"225 -2 CURVE",
"260 -15 OFFCURVE",
"303 -21 OFFCURVE",
"351 -21 CURVE SMOOTH",
"407 -21 OFFCURVE",
"471 -13 OFFCURVE",
"535 -2 CURVE",
"539 373 OFFCURVE",
"541 569 OFFCURVE",
"541 690 CURVE",
"670 817 OFFCURVE",
"739 846 OFFCURVE",
"817 848 CURVE SMOOTH",
"887 850 OFFCURVE",
"922 821 OFFCURVE",
"934 772 CURVE SMOOTH",
"942 740 OFFCURVE",
"945 676 OFFCURVE",
"945 598 CURVE SMOOTH",
"945 507 OFFCURVE",
"941 396 OFFCURVE",
"938 297 CURVE",
"936 269 OFFCURVE",
"935 242 OFFCURVE",
"935 217 CURVE SMOOTH",
"935 49 OFFCURVE",
"981 -36 OFFCURVE",
"1094 -36 CURVE SMOOTH",
"1163 -36 OFFCURVE",
"1257 -4 OFFCURVE",
"1382 61 CURVE",
"1384 72 OFFCURVE",
"1384 94 OFFCURVE",
"1382 106 CURVE SMOOTH",
"1380 119 OFFCURVE",
"1378 127 OFFCURVE",
"1372 141 CURVE",
"1362 138 OFFCURVE",
"1348 137 OFFCURVE",
"1333 137 CURVE SMOOTH",
"1281 137 OFFCURVE",
"1212 154 OFFCURVE",
"1214 193 CURVE",
"1221 400 OFFCURVE",
"1237 510 OFFCURVE",
"1237 650 CURVE SMOOTH",
"1237 689 OFFCURVE",
"1236 730 OFFCURVE",
"1233 776 CURVE SMOOTH",
"1221 950 OFFCURVE",
"1135 1069 OFFCURVE",
"973 1067 CURVE",
"799 1063 OFFCURVE",
"659 981 OFFCURVE",
"539 827 CURVE",
"537 907 OFFCURVE",
"532 995 OFFCURVE",
"496 1057 CURVE",
"479 1058 OFFCURVE",
"462 1058 OFFCURVE",
"444 1058 CURVE SMOOTH",
"328 1058 OFFCURVE",
"196 1039 OFFCURVE",
"86 977 CURVE",
"83 967 OFFCURVE",
"82 958 OFFCURVE",
"82 948 CURVE SMOOTH",
"82 934 OFFCURVE",
"85 920 OFFCURVE",
"88 907 CURVE",
"115 905 OFFCURVE",
"160 899 OFFCURVE",
"184 891 CURVE",
"231 879 OFFCURVE",
"238 838 OFFCURVE",
"238 801 CURVE"
);
}
);
width = 1436;
}
);
unicode = 006E;
},
{
glyphname = o;
layers = (
{
anchors = (
{
name = top;
position = "{684, 1118}";
}
);
layerId = UUID0;
paths = (
{
closed = 1;
nodes = (
"1274 872 OFFCURVE",
"1024 1071 OFFCURVE",
"766 1071 CURVE SMOOTH",
"391 1071 OFFCURVE",
"113 870 OFFCURVE",
"113 485 CURVE SMOOTH",
"113 184 OFFCURVE",
"350 -37 OFFCURVE",
"637 -37 CURVE SMOOTH",
"1008 -37 OFFCURVE",
"1274 158 OFFCURVE",
"1274 561 CURVE SMOOTH"
);
},
{
closed = 1;
nodes = (
"408 717 OFFCURVE",
"463 936 OFFCURVE",
"662 936 CURVE SMOOTH",
"848 936 OFFCURVE",
"985 756 OFFCURVE",
"985 489 CURVE SMOOTH",
"985 301 OFFCURVE",
"948 88 OFFCURVE",
"739 88 CURVE SMOOTH",
"567 88 OFFCURVE",
"408 272 OFFCURVE",
"408 537 CURVE SMOOTH"
);
}
);
width = 1386;
}
);
unicode = 006F;
},
{
glyphname = oslash;
layers = (
{
layerId = UUID0;
paths = (
{
closed = 1;
nodes = (
"1274 744 OFFCURVE",
"1187 889 OFFCURVE",
"1062 977 CURVE",
"1139 1106 LINE",
"1104 1128 OFFCURVE",
"1028 1141 OFFCURVE",
"991 1139 CURVE",
"983 1127 OFFCURVE",
"963 1094 OFFCURVE",
"934 1042 CURVE",
"880 1061 OFFCURVE",
"823 1071 OFFCURVE",
"766 1071 CURVE SMOOTH",
"391 1071 OFFCURVE",
"113 870 OFFCURVE",
"113 485 CURVE SMOOTH",
"113 308 OFFCURVE",
"195 159 OFFCURVE",
"320 66 CURVE",
"274 -15 OFFCURVE",
"243 -75 OFFCURVE",
"236 -92 CURVE",
"246 -109 OFFCURVE",
"352 -129 OFFCURVE",
"379 -119 CURVE",
"447 -3 LINE",
"506 -25 OFFCURVE",
"570 -37 OFFCURVE",
"637 -37 CURVE SMOOTH",
"1008 -37 OFFCURVE",
"1274 158 OFFCURVE",
"1274 561 CURVE SMOOTH"
);
},
{
closed = 1;
nodes = (
"985 301 OFFCURVE",
"948 88 OFFCURVE",
"739 88 CURVE SMOOTH",
"676 88 OFFCURVE",
"614 112 OFFCURVE",
"562 157 CURVE",
"921 769 LINE",
"961 695 OFFCURVE",
"985 599 OFFCURVE",
"985 489 CURVE SMOOTH"
);
},
{
closed = 1;
nodes = (
"408 717 OFFCURVE",
"463 936 OFFCURVE",
"662 936 CURVE SMOOTH",
"720 936 OFFCURVE",
"773 918 OFFCURVE",
"819 886 CURVE",
"715 712 OFFCURVE",
"578 478 OFFCURVE",
"465 283 CURVE",
"430 353 OFFCURVE",
"408 439 OFFCURVE",
"408 537 CURVE SMOOTH"
);
}
);
width = 1386;
}
);
unicode = 00F8;
},
{
glyphname = oe;
layers = (
{
layerId = UUID0;
paths = (
{
closed = 1;
nodes = (
"1372 1061 OFFCURVE",
"1233 1004 OFFCURVE",
"1135 899 CURVE",
"1042 1006 OFFCURVE",
"907 1065 OFFCURVE",
"766 1065 CURVE SMOOTH",
"391 1065 OFFCURVE",
"113 862 OFFCURVE",
"113 477 CURVE SMOOTH",
"113 176 OFFCURVE",
"350 -43 OFFCURVE",
"637 -43 CURVE SMOOTH",
"840 -43 OFFCURVE",
"1006 12 OFFCURVE",
"1116 131 CURVE",
"1217 14 OFFCURVE",
"1370 -41 OFFCURVE",
"1538 -41 CURVE SMOOTH",
"1812 -41 OFFCURVE",
"1960 131 OFFCURVE",
"1960 131 CURVE",
"1952 164 OFFCURVE",
"1923 193 OFFCURVE",
"1898 209 CURVE",
"1898 209 OFFCURVE",
"1778 96 OFFCURVE",
"1626 96 CURVE SMOOTH",
"1466 96 OFFCURVE",
"1300 225 OFFCURVE",
"1260 426 CURVE",
"1874 471 LINE SMOOTH",
"1950 477 OFFCURVE",
"1987 543 OFFCURVE",
"1987 651 CURVE SMOOTH",
"1987 926 OFFCURVE",
"1757 1061 OFFCURVE",
"1518 1061 CURVE SMOOTH"
);
},
{
closed = 1;
nodes = (
"408 709 OFFCURVE",
"463 930 OFFCURVE",
"662 930 CURVE SMOOTH",
"848 930 OFFCURVE",
"985 748 OFFCURVE",
"985 481 CURVE SMOOTH",
"985 293 OFFCURVE",
"948 82 OFFCURVE",
"739 82 CURVE SMOOTH",
"567 82 OFFCURVE",
"408 264 OFFCURVE",
"408 528 CURVE SMOOTH"
);
},
{
closed = 1;
nodes = (
"1612 934 OFFCURVE",
"1718 846 OFFCURVE",
"1718 681 CURVE SMOOTH",
"1718 659 OFFCURVE",
"1716 636 OFFCURVE",
"1712 612 CURVE",
"1563 590 OFFCURVE",
"1399 571 OFFCURVE",
"1243 555 CURVE",
"1243 780 OFFCURVE",
"1327 934 OFFCURVE",
"1489 934 CURVE SMOOTH"
);
}
);
width = 2058;
}
);
unicode = 0153;
},
{
glyphname = p;
layers = (
{
layerId = UUID0;
paths = (
{
closed = 1;
nodes = (
"217 666 OFFCURVE",
"231 283 OFFCURVE",
"231 -75 CURVE SMOOTH",
"231 -297 OFFCURVE",
"225 -510 OFFCURVE",
"211 -649 CURVE",
"251 -664 OFFCURVE",
"296 -671 OFFCURVE",
"348 -671 CURVE SMOOTH",
"396 -671 OFFCURVE",
"449 -665 OFFCURVE",
"506 -655 CURVE",
"508 -428 OFFCURVE",
"510 -211 OFFCURVE",
"510 -12 CURVE",
"580 -35 OFFCURVE",
"635 -41 OFFCURVE",
"727 -41 CURVE SMOOTH",
"968 -41 OFFCURVE",
"1295 149 OFFCURVE",
"1295 549 CURVE SMOOTH",
"1295 561 OFFCURVE",
"1295 573 OFFCURVE",
"1294 586 CURVE SMOOTH",
"1276 969 OFFCURVE",
"1063 1065 OFFCURVE",
"848 1065 CURVE SMOOTH",
"725 1065 OFFCURVE",
"594 1012 OFFCURVE",
"502 928 CURVE",
"496 995 OFFCURVE",
"487 1032 OFFCURVE",
"471 1057 CURVE",
"324 1059 OFFCURVE",
"221 1036 OFFCURVE",
"84 983 CURVE",
"80 958 OFFCURVE",
"86 940 OFFCURVE",
"90 913 CURVE",
"158 907 OFFCURVE",
"199 870 OFFCURVE",
"203 801 CURVE"
);
},
{
closed = 1;
nodes = (
"842 903 OFFCURVE",
"971 844 OFFCURVE",
"987 590 CURVE SMOOTH",
"988 569 OFFCURVE",
"989 549 OFFCURVE",
"989 530 CURVE SMOOTH",
"989 220 OFFCURVE",
"820 94 OFFCURVE",
"674 94 CURVE SMOOTH",
"614 94 OFFCURVE",
"567 96 OFFCURVE",
"510 117 CURVE",
"510 436 OFFCURVE",
"508 696 OFFCURVE",
"506 821 CURVE",
"596 889 OFFCURVE",
"662 903 OFFCURVE",
"733 903 CURVE SMOOTH"
);
}
);
width = 1375;
}
);
unicode = 0070;
},
{
glyphname = thorn;
layers = (
{
layerId = UUID0;
paths = (
{
closed = 1;
nodes = (
"250 1153 OFFCURVE",
"259 705 OFFCURVE",
"259 262 CURVE SMOOTH",
"259 -112 OFFCURVE",
"252 -483 OFFCURVE",
"236 -649 CURVE",
"275 -664 OFFCURVE",
"321 -671 OFFCURVE",
"373 -671 CURVE SMOOTH",
"421 -671 OFFCURVE",
"473 -665 OFFCURVE",
"530 -655 CURVE",
"537 -37 LINE",
"592 -41 OFFCURVE",
"641 -41 OFFCURVE",
"680 -41 CURVE SMOOTH",
"1014 -41 OFFCURVE",
"1311 164 OFFCURVE",
"1331 512 CURVE SMOOTH",
"1332 532 OFFCURVE",
"1333 552 OFFCURVE",
"1333 571 CURVE SMOOTH",
"1333 880 OFFCURVE",
"1174 1065 OFFCURVE",
"858 1065 CURVE SMOOTH",
"752 1065 OFFCURVE",
"633 1028 OFFCURVE",
"539 961 CURVE",
"539 1145 OFFCURVE",
"537 1348 OFFCURVE",
"537 1368 CURVE",
"530 1458 OFFCURVE",
"524 1503 OFFCURVE",
"504 1530 CURVE",
"356 1532 OFFCURVE",
"242 1509 OFFCURVE",
"104 1456 CURVE",
"100 1434 OFFCURVE",
"102 1409 OFFCURVE",
"111 1386 CURVE",
"178 1380 OFFCURVE",
"233 1341 OFFCURVE",
"238 1272 CURVE"
);
},
{
closed = 1;
nodes = (
"637 877 OFFCURVE",
"723 909 OFFCURVE",
"799 909 CURVE SMOOTH",
"921 909 OFFCURVE",
"1027 819 OFFCURVE",
"1027 544 CURVE SMOOTH",
"1027 527 OFFCURVE",
"1027 510 OFFCURVE",
"1026 492 CURVE SMOOTH",
"1014 225 OFFCURVE",
"842 86 OFFCURVE",
"680 86 CURVE SMOOTH",
"631 86 OFFCURVE",
"582 90 OFFCURVE",
"537 96 CURVE",
"539 387 OFFCURVE",
"539 588 OFFCURVE",
"539 815 CURVE"
);
}
);
width = 1425;
}
);
unicode = 00FE;
},
{
glyphname = q;
layers = (
{
layerId = UUID0;
paths = (
{
closed = 1;
nodes = (
"1179 989 LINE",
"1183 991 LINE",
"1177 991 OFFCURVE",
"999 1065 OFFCURVE",
"725 1065 CURVE SMOOTH",
"406 1065 OFFCURVE",
"80 862 OFFCURVE",
"80 492 CURVE SMOOTH",
"80 481 OFFCURVE",
"80 470 OFFCURVE",
"81 459 CURVE SMOOTH",
"102 76 OFFCURVE",
"370 -41 OFFCURVE",
"585 -41 CURVE SMOOTH",
"692 -41 OFFCURVE",
"796 -4 OFFCURVE",
"876 59 CURVE",
"876 -152 OFFCURVE",
"878 -387 OFFCURVE",
"882 -655 CURVE",
"939 -665 OFFCURVE",
"992 -671 OFFCURVE",
"1040 -671 CURVE SMOOTH",
"1092 -671 OFFCURVE",
"1137 -664 OFFCURVE",
"1177 -649 CURVE",
"1162 -383 OFFCURVE",
"1151 -35 OFFCURVE",
"1151 283 CURVE SMOOTH",
"1151 569 OFFCURVE",
"1160 831 OFFCURVE",
"1181 989 CURVE"
);
},
{
closed = 1;
nodes = (
"557 115 OFFCURVE",
"407 205 OFFCURVE",
"389 459 CURVE SMOOTH",
"388 478 OFFCURVE",
"387 497 OFFCURVE",
"387 515 CURVE SMOOTH",
"387 797 OFFCURVE",
"552 936 OFFCURVE",
"741 936 CURVE SMOOTH",
"798 936 OFFCURVE",
"845 930 OFFCURVE",
"884 922 CURVE",
"880 803 LINE",
"878 764 OFFCURVE",
"876 514 OFFCURVE",
"876 182 CURVE",
"806 131 OFFCURVE",
"753 115 OFFCURVE",
"665 115 CURVE SMOOTH"
);
}
);
width = 1296;
}
);
unicode = 0071;
},
{
glyphname = r;
layers = (
{
layerId = UUID0;
paths = (
{
closed = 1;
nodes = (
"209 715 OFFCURVE",
"209 638 OFFCURVE",
"209 567 CURVE SMOOTH",
"209 318 OFFCURVE",
"208 150 OFFCURVE",
"197 -2 CURVE",
"232 -15 OFFCURVE",
"273 -21 OFFCURVE",
"320 -21 CURVE SMOOTH",
"375 -21 OFFCURVE",
"436 -13 OFFCURVE",
"500 -2 CURVE",
"504 412 OFFCURVE",
"506 606 OFFCURVE",
"506 719 CURVE",
"571 782 OFFCURVE",
"643 842 OFFCURVE",
"727 842 CURVE SMOOTH",
"811 842 OFFCURVE",
"805 674 OFFCURVE",
"805 659 CURVE",
"817 657 OFFCURVE",
"829 656 OFFCURVE",
"841 656 CURVE SMOOTH",
"955 656 OFFCURVE",
"1049 741 OFFCURVE",
"1044 856 CURVE SMOOTH",
"1038 997 OFFCURVE",
"950 1065 OFFCURVE",
"823 1065 CURVE SMOOTH",
"686 1065 OFFCURVE",
"592 958 OFFCURVE",
"504 850 CURVE",
"500 920 OFFCURVE",
"496 999 OFFCURVE",
"461 1057 CURVE",
"444 1058 OFFCURVE",
"427 1058 OFFCURVE",
"409 1058 CURVE SMOOTH",
"294 1058 OFFCURVE",
"163 1039 OFFCURVE",
"53 977 CURVE",
"51 952 OFFCURVE",
"53 934 OFFCURVE",
"59 907 CURVE",
"86 905 OFFCURVE",
"131 899 OFFCURVE",
"156 891 CURVE",
"203 879 OFFCURVE",
"209 838 OFFCURVE",
"209 801 CURVE SMOOTH"
);
}
);
width = 1067;
}
);
unicode = 0072;
},
{
glyphname = s;
layers = (
{
layerId = UUID0;
paths = (
{
closed = 1;
nodes = (
"399 907 OFFCURVE",
"453 950 OFFCURVE",
"535 950 CURVE SMOOTH",
"647 950 OFFCURVE",
"721 901 OFFCURVE",
"717 752 CURVE SMOOTH",
"717 750 OFFCURVE",
"770 715 OFFCURVE",
"850 715 CURVE",
"946 711 OFFCURVE",
"971 766 OFFCURVE",
"971 829 CURVE SMOOTH",
"971 965 OFFCURVE",
"795 1071 OFFCURVE",
"569 1071 CURVE SMOOTH",
"332 1071 OFFCURVE",
"147 979 OFFCURVE",
"147 768 CURVE",
"150 586 OFFCURVE",
"313 485 OFFCURVE",
"483 424 CURVE",
"627 371 OFFCURVE",
"719 334 OFFCURVE",
"717 209 CURVE",
"715 137 OFFCURVE",
"662 82 OFFCURVE",
"555 84 CURVE SMOOTH",
"399 86 OFFCURVE",
"356 195 OFFCURVE",
"362 287 CURVE SMOOTH",
"362 285 OFFCURVE",
"315 319 OFFCURVE",
"240 322 CURVE",
"137 324 OFFCURVE",
"96 287 OFFCURVE",
"94 209 CURVE SMOOTH",
"92 123 OFFCURVE",
"201 -35 OFFCURVE",
"541 -35 CURVE SMOOTH",
"813 -35 OFFCURVE",
"1004 70 OFFCURVE",
"1004 276 CURVE SMOOTH",
"1004 492 OFFCURVE",
"770 565 OFFCURVE",
"580 641 CURVE SMOOTH",
"469 686 OFFCURVE",
"399 733 OFFCURVE",
"399 823 CURVE SMOOTH"
);
}
);
width = 1075;
}
);
unicode = 0073;
},
{
glyphname = germandbls;
layers = (
{
layerId = UUID0;
paths = (
{
closed = 1;
nodes = (
"1102 1141 OFFCURVE",
"1106 1180 OFFCURVE",
"1106 1206 CURVE SMOOTH",
"1106 1440 OFFCURVE",
"922 1567 OFFCURVE",
"684 1567 CURVE SMOOTH",
"424 1567 OFFCURVE",
"182 1456 OFFCURVE",
"168 1137 CURVE",
"166 1110 OFFCURVE",
"166 1034 OFFCURVE",
"164 920 CURVE",
"127 918 OFFCURVE",
"90 913 OFFCURVE",
"57 909 CURVE",
"53 902 OFFCURVE",
"52 881 OFFCURVE",
"52 861 CURVE SMOOTH",
"52 838 OFFCURVE",
"54 814 OFFCURVE",
"57 809 CURVE",
"90 809 OFFCURVE",
"127 807 OFFCURVE",
"164 803 CURVE",
"164 625 OFFCURVE",
"166 381 OFFCURVE",
"174 0 CURVE",
"219 -13 OFFCURVE",
"275 -19 OFFCURVE",
"329 -19 CURVE SMOOTH",
"387 -19 OFFCURVE",
"441 -12 OFFCURVE",
"475 2 CURVE",
"457 133 OFFCURVE",
"455 651 OFFCURVE",
"455 1020 CURVE SMOOTH",
"455 1096 OFFCURVE",
"412 1200 OFFCURVE",
"412 1286 CURVE SMOOTH",
"412 1378 OFFCURVE",
"465 1436 OFFCURVE",
"600 1436 CURVE SMOOTH",
"780 1436 OFFCURVE",
"827 1311 OFFCURVE",
"827 1159 CURVE",
"705 1141 OFFCURVE",
"598 1018 OFFCURVE",
"600 860 CURVE SMOOTH",
"602 700 OFFCURVE",
"696 608 OFFCURVE",
"844 504 CURVE",
"977 393 OFFCURVE",
"1034 346 OFFCURVE",
"1030 205 CURVE SMOOTH",
"1028 139 OFFCURVE",
"981 78 OFFCURVE",
"903 80 CURVE SMOOTH",
"811 82 OFFCURVE",
"785 136 OFFCURVE",
"785 192 CURVE SMOOTH",
"785 230 OFFCURVE",
"797 269 OFFCURVE",
"807 293 CURVE",
"807 291 OFFCURVE",
"760 326 OFFCURVE",
"684 328 CURVE SMOOTH",
"582 330 OFFCURVE",
"541 272 OFFCURVE",
"539 201 CURVE SMOOTH",
"537 115 OFFCURVE",
"635 -39 OFFCURVE",
"899 -39 CURVE",
"1149 -45 OFFCURVE",
"1296 72 OFFCURVE",
"1296 272 CURVE SMOOTH",
"1296 498 OFFCURVE",
"1112 559 OFFCURVE",
"938 713 CURVE",
"872 770 OFFCURVE",
"848 834 OFFCURVE",
"848 913 CURVE SMOOTH",
"848 1014 OFFCURVE",
"993 1118 OFFCURVE",
"1081 1122 CURVE"
);
}
);
width = 1391;
}
);
unicode = 00DF;
},
{
glyphname = t;
layers = (
{
layerId = UUID0;
paths = (
{
closed = 1;
nodes = (
"457 1329 OFFCURVE",
"295 1298 OFFCURVE",
"221 1223 CURVE",
"219 1163 OFFCURVE",
"215 1098 OFFCURVE",
"215 1022 CURVE",
"88 1010 LINE",
"85 1007 OFFCURVE",
"83 981 OFFCURVE",
"83 954 CURVE SMOOTH",
"83 927 OFFCURVE",
"85 900 OFFCURVE",
"88 895 CURVE",
"111 889 OFFCURVE",
"162 887 OFFCURVE",
"213 885 CURVE",
"213 729 OFFCURVE",
"215 551 OFFCURVE",
"221 326 CURVE",
"227 158 OFFCURVE",
"242 -35 OFFCURVE",
"430 -35 CURVE SMOOTH",
"573 -35 OFFCURVE",
"672 53 OFFCURVE",
"735 133 CURVE",
"733 150 OFFCURVE",
"713 184 OFFCURVE",
"694 201 CURVE",
"660 181 OFFCURVE",
"619 167 OFFCURVE",
"584 167 CURVE SMOOTH",
"546 167 OFFCURVE",
"516 184 OFFCURVE",
"514 229 CURVE SMOOTH",
"508 350 OFFCURVE",
"506 474 OFFCURVE",
"506 596 CURVE SMOOTH",
"506 690 OFFCURVE",
"507 783 OFFCURVE",
"510 872 CURVE",
"582 874 OFFCURVE",
"653 879 OFFCURVE",
"715 887 CURVE",
"719 895 OFFCURVE",
"720 919 OFFCURVE",
"720 943 CURVE SMOOTH",
"720 971 OFFCURVE",
"718 1000 OFFCURVE",
"715 1010 CURVE",
"655 1014 OFFCURVE",
"586 1020 OFFCURVE",
"516 1022 CURVE",
"522 1141 OFFCURVE",
"530 1247 OFFCURVE",
"539 1329 CURVE"
);
}
);
width = 786;
}
);
unicode = 0074;
},
{
glyphname = u;
layers = (
{
anchors = (
{
name = top;
position = "{657, 1118}";
}
);
layerId = UUID0;
paths = (
{
closed = 1;
nodes = (
"1171 346 OFFCURVE",
"1167 477 OFFCURVE",
"1167 598 CURVE SMOOTH",
"1167 776 OFFCURVE",
"1174 930 OFFCURVE",
"1182 1047 CURVE",
"1147 1059 OFFCURVE",
"1102 1065 OFFCURVE",
"1055 1065 CURVE SMOOTH",
"999 1065 OFFCURVE",
"938 1057 OFFCURVE",
"874 1047 CURVE",
"872 623 OFFCURVE",
"872 436 OFFCURVE",
"872 315 CURVE",
"733 205 OFFCURVE",
"659 172 OFFCURVE",
"563 172 CURVE SMOOTH",
"492 172 OFFCURVE",
"471 227 OFFCURVE",
"471 344 CURVE SMOOTH",
"471 453 OFFCURVE",
"496 614 OFFCURVE",
"496 829 CURVE SMOOTH",
"496 907 OFFCURVE",
"487 989 OFFCURVE",
"465 1061 CURVE",
"279 1061 OFFCURVE",
"88 999 OFFCURVE",
"74 989 CURVE",
"72 981 OFFCURVE",
"72 973 OFFCURVE",
"72 965 CURVE SMOOTH",
"72 870 OFFCURVE",
"203 948 OFFCURVE",
"203 846 CURVE SMOOTH",
"203 698 OFFCURVE",
"186 465 OFFCURVE",
"186 317 CURVE SMOOTH",
"186 100 OFFCURVE",
"250 -35 OFFCURVE",
"410 -35 CURVE SMOOTH",
"580 -35 OFFCURVE",
"748 74 OFFCURVE",
"874 190 CURVE",
"891 16 OFFCURVE",
"909 -35 OFFCURVE",
"993 -35 CURVE SMOOTH",
"1057 -35 OFFCURVE",
"1188 -16 OFFCURVE",
"1317 57 CURVE",
"1317 78 OFFCURVE",
"1317 104 OFFCURVE",
"1313 125 CURVE",
"1292 133 OFFCURVE",
"1274 133 OFFCURVE",
"1233 135 CURVE",
"1188 139 OFFCURVE",
"1180 170 OFFCURVE",
"1178 207 CURVE SMOOTH"
);
}
);
width = 1372;
}
);
unicode = 0075;
},
{
glyphname = v;
layers = (
{
layerId = UUID0;
paths = (
{
closed = 1;
nodes = (
"918 416 OFFCURVE",
"1167 686 OFFCURVE",
"1167 907 CURVE SMOOTH",
"1167 1018 OFFCURVE",
"1110 1087 OFFCURVE",
"979 1087 CURVE SMOOTH",
"911 1087 OFFCURVE",
"891 1063 OFFCURVE",
"891 1061 CURVE SMOOTH",
"891 1059 OFFCURVE",
"910 1049 OFFCURVE",
"910 988 CURVE SMOOTH",
"910 976 OFFCURVE",
"909 961 OFFCURVE",
"907 944 CURVE SMOOTH",
"897 844 OFFCURVE",
"682 219 OFFCURVE",
"682 219 CURVE",
"504 788 OFFCURVE",
"401 1001 OFFCURVE",
"356 1049 CURVE",
"340 1050 OFFCURVE",
"323 1050 OFFCURVE",
"307 1050 CURVE SMOOTH",
"198 1050 OFFCURVE",
"93 1031 OFFCURVE",
"-18 969 CURVE",
"-23 944 OFFCURVE",
"-16 926 OFFCURVE",
"-12 899 CURVE",
"14 897 OFFCURVE",
"61 897 OFFCURVE",
"84 883 CURVE SMOOTH",
"225 795 OFFCURVE",
"461 86 OFFCURVE",
"508 20 CURVE",
"530 -9 OFFCURVE",
"590 -37 OFFCURVE",
"656 -37 CURVE SMOOTH",
"681 -37 OFFCURVE",
"707 -33 OFFCURVE",
"733 -23 CURVE"
);
}
);
width = 1178;
}
);
unicode = 0076;
},
{
glyphname = w;
layers = (
{
layerId = UUID0;
paths = (
{
closed = 1;
nodes = (
"1556 442 OFFCURVE",
"1788 662 OFFCURVE",
"1788 883 CURVE SMOOTH",
"1788 958 OFFCURVE",
"1745 1063 OFFCURVE",
"1614 1063 CURVE SMOOTH",
"1546 1063 OFFCURVE",
"1526 1038 OFFCURVE",
"1526 1036 CURVE SMOOTH",
"1526 1034 OFFCURVE",
"1544 1024 OFFCURVE",
"1544 962 CURVE SMOOTH",
"1544 950 OFFCURVE",
"1544 936 OFFCURVE",
"1542 920 CURVE SMOOTH",
"1532 819 OFFCURVE",
"1313 209 OFFCURVE",
"1313 209 CURVE",
"1090 831 OFFCURVE",
"1149 1024 OFFCURVE",
"956 1024 CURVE SMOOTH",
"899 1024 OFFCURVE",
"846 1001 OFFCURVE",
"782 956 CURVE",
"811 889 OFFCURVE",
"848 788 OFFCURVE",
"887 680 CURVE",
"815 475 OFFCURVE",
"686 209 OFFCURVE",
"686 209 CURVE",
"516 764 OFFCURVE",
"412 997 OFFCURVE",
"367 1044 CURVE",
"349 1045 OFFCURVE",
"331 1046 OFFCURVE",
"312 1046 CURVE SMOOTH",
"200 1046 OFFCURVE",
"80 1026 OFFCURVE",
"-29 965 CURVE",
"-33 940 OFFCURVE",
"-27 922 OFFCURVE",
"-23 895 CURVE",
"4 893 OFFCURVE",
"51 893 OFFCURVE",
"74 879 CURVE SMOOTH",
"215 791 OFFCURVE",
"451 82 OFFCURVE",
"498 16 CURVE",
"520 -13 OFFCURVE",
"580 -41 OFFCURVE",
"646 -41 CURVE SMOOTH",
"672 -41 OFFCURVE",
"699 -37 OFFCURVE",
"725 -27 CURVE",
"815 160 OFFCURVE",
"891 334 OFFCURVE",
"963 461 CURVE",
"1032 260 OFFCURVE",
"1100 72 OFFCURVE",
"1139 16 CURVE",
"1161 -13 OFFCURVE",
"1217 -41 OFFCURVE",
"1282 -41 CURVE SMOOTH",
"1307 -41 OFFCURVE",
"1334 -37 OFFCURVE",
"1360 -27 CURVE"
);
}
);
width = 1808;
}
);
unicode = 0077;
},
{
glyphname = x;
layers = (
{
layerId = UUID0;
paths = (
{
closed = 1;
nodes = (
"1063 -41 OFFCURVE",
"1147 23 OFFCURVE",
"1147 111 CURVE",
"981 223 OFFCURVE",
"866 385 OFFCURVE",
"772 545 CURVE",
"930 725 OFFCURVE",
"1044 879 OFFCURVE",
"1141 1036 CURVE",
"1101 1048 OFFCURVE",
"1057 1054 OFFCURVE",
"1012 1054 CURVE SMOOTH",
"963 1054 OFFCURVE",
"912 1047 OFFCURVE",
"862 1034 CURVE",
"805 899 OFFCURVE",
"737 774 OFFCURVE",
"690 686 CURVE",
"645 768 OFFCURVE",
"602 850 OFFCURVE",
"553 932 CURVE",
"506 1008 OFFCURVE",
"485 1026 OFFCURVE",
"457 1038 CURVE",
"415 1043 OFFCURVE",
"375 1047 OFFCURVE",
"335 1047 CURVE SMOOTH",
"250 1047 OFFCURVE",
"166 1033 OFFCURVE",
"76 999 CURVE",
"72 975 OFFCURVE",
"78 956 OFFCURVE",
"82 930 CURVE",
"125 930 OFFCURVE",
"190 915 OFFCURVE",
"227 885 CURVE",
"313 811 OFFCURVE",
"393 682 OFFCURVE",
"473 543 CURVE",
"432 496 OFFCURVE",
"160 164 OFFCURVE",
"70 -2 CURVE",
"110 -14 OFFCURVE",
"154 -20 OFFCURVE",
"199 -20 CURVE SMOOTH",
"248 -20 OFFCURVE",
"298 -13 OFFCURVE",
"348 0 CURVE",
"438 170 OFFCURVE",
"506 328 OFFCURVE",
"551 406 CURVE",
"674 190 OFFCURVE",
"807 -25 OFFCURVE",
"969 -31 CURVE"
);
}
);
width = 1214;
}
);
unicode = 0078;
},
{
glyphname = y;
layers = (
{
anchors = (
{
name = top;
position = "{680, 1118}";
}
);
layerId = UUID0;
paths = (
{
closed = 1;
nodes = (
"152 -305 OFFCURVE",
"74 -383 OFFCURVE",
"74 -481 CURVE SMOOTH",
"74 -575 OFFCURVE",
"127 -688 OFFCURVE",
"289 -688 CURVE SMOOTH",
"705 -688 OFFCURVE",
"893 410 OFFCURVE",
"1159 817 CURVE SMOOTH",
"1245 948 OFFCURVE",
"1282 952 OFFCURVE",
"1280 950 CURVE",
"1253 1028 OFFCURVE",
"1188 1065 OFFCURVE",
"1092 1065 CURVE SMOOTH",
"1034 1065 OFFCURVE",
"944 1020 OFFCURVE",
"913 903 CURVE SMOOTH",
"840 627 OFFCURVE",
"709 186 OFFCURVE",
"709 186 CURVE",
"553 756 OFFCURVE",
"436 1010 OFFCURVE",
"360 1042 CURVE SMOOTH",
"327 1056 OFFCURVE",
"290 1063 OFFCURVE",
"251 1063 CURVE SMOOTH",
"153 1063 OFFCURVE",
"42 1024 OFFCURVE",
"-49 973 CURVE",
"-53 948 OFFCURVE",
"-47 930 OFFCURVE",
"-43 903 CURVE",
"-16 901 OFFCURVE",
"31 901 OFFCURVE",
"53 887 CURVE SMOOTH",
"195 799 OFFCURVE",
"543 12 OFFCURVE",
"569 -63 CURVE",
"516 -266 OFFCURVE",
"440 -389 OFFCURVE",
"352 -389 CURVE SMOOTH",
"293 -389 OFFCURVE",
"258 -328 OFFCURVE",
"246 -283 CURVE"
);
}
);
width = 1282;
}
);
unicode = 0079;
},
{
glyphname = z;
layers = (
{
layerId = UUID0;
paths = (
{
closed = 1;
nodes = (
"514 -39 OFFCURVE",
"766 -92 OFFCURVE",
"920 -88 CURVE",
"1100 -80 OFFCURVE",
"1169 70 OFFCURVE",
"1180 233 CURVE",
"1159 262 OFFCURVE",
"1128 291 OFFCURVE",
"1092 309 CURVE",
"1003 204 OFFCURVE",
"876 173 OFFCURVE",
"750 173 CURVE SMOOTH",
"641 173 OFFCURVE",
"534 196 OFFCURVE",
"453 215 CURVE",
"1118 811 LINE",
"1130 848 OFFCURVE",
"1137 885 OFFCURVE",
"1137 922 CURVE SMOOTH",
"1137 956 OFFCURVE",
"1131 989 OFFCURVE",
"1118 1024 CURVE",
"729 1042 OFFCURVE",
"545 1063 OFFCURVE",
"383 1063 CURVE SMOOTH",
"252 1063 OFFCURVE",
"82 1022 OFFCURVE",
"82 834 CURVE SMOOTH",
"82 684 OFFCURVE",
"168 629 OFFCURVE",
"240 629 CURVE SMOOTH",
"319 629 OFFCURVE",
"365 659 OFFCURVE",
"365 662 CURVE SMOOTH",
"360 733 OFFCURVE",
"387 795 OFFCURVE",
"436 823 CURVE SMOOTH",
"473 844 OFFCURVE",
"521 852 OFFCURVE",
"579 852 CURVE SMOOTH",
"655 852 OFFCURVE",
"748 839 OFFCURVE",
"860 827 CURVE",
"184 236 LINE",
"184 236 OFFCURVE",
"168 211 OFFCURVE",
"168 119 CURVE SMOOTH",
"168 33 OFFCURVE",
"188 0 OFFCURVE",
"188 0 CURVE"
);
}
);
width = 1241;
}
);
unicode = 007A;
},
{
glyphname = ordfeminine;
layers = (
{
layerId = UUID0;
paths = (
{
closed = 1;
nodes = (
"664 836 OFFCURVE",
"715 883 OFFCURVE",
"752 928 CURVE",
"752 938 OFFCURVE",
"739 958 OFFCURVE",
"727 967 CURVE",
"714 959 OFFCURVE",
"694 952 OFFCURVE",
"678 952 CURVE SMOOTH",
"659 952 OFFCURVE",
"645 962 OFFCURVE",
"647 991 CURVE",
"647 1018 OFFCURVE",
"651 1100 OFFCURVE",
"651 1182 CURVE SMOOTH",
"651 1434 OFFCURVE",
"553 1475 OFFCURVE",
"410 1475 CURVE SMOOTH",
"283 1475 OFFCURVE",
"135 1438 OFFCURVE",
"135 1329 CURVE SMOOTH",
"135 1290 OFFCURVE",
"162 1260 OFFCURVE",
"221 1262 CURVE",
"270 1266 OFFCURVE",
"303 1294 OFFCURVE",
"303 1294 CURVE",
"303 1366 OFFCURVE",
"336 1393 OFFCURVE",
"385 1393 CURVE SMOOTH",
"462 1393 OFFCURVE",
"481 1344 OFFCURVE",
"481 1270 CURVE SMOOTH",
"481 1248 OFFCURVE",
"479 1224 OFFCURVE",
"477 1198 CURVE",
"410 1196 LINE SMOOTH",
"258 1190 OFFCURVE",
"93 1145 OFFCURVE",
"93 1008 CURVE SMOOTH",
"93 998 OFFCURVE",
"94 986 OFFCURVE",
"96 975 CURVE SMOOTH",
"113 866 OFFCURVE",
"199 836 OFFCURVE",
"291 836 CURVE SMOOTH",
"379 836 OFFCURVE",
"467 891 OFFCURVE",
"494 911 CURVE",
"510 866 OFFCURVE",
"543 836 OFFCURVE",
"600 836 CURVE SMOOTH"
);
},
{
closed = 1;
nodes = (
"305 948 OFFCURVE",
"283 977 OFFCURVE",
"283 1024 CURVE SMOOTH",
"283 1075 OFFCURVE",
"322 1118 OFFCURVE",
"401 1118 CURVE",
"471 1120 LINE",
"470 1108 OFFCURVE",
"470 1096 OFFCURVE",
"470 1084 CURVE SMOOTH",
"470 1048 OFFCURVE",
"472 1014 OFFCURVE",
"477 979 CURVE",
"438 954 OFFCURVE",
"401 948 OFFCURVE",
"360 948 CURVE SMOOTH"
);
}
);
width = 844;
}
);
unicode = 00AA;
},
{
glyphname = ordmasculine;
layers = (
{
layerId = UUID0;
paths = (
{
closed = 1;
nodes = (
"774 1356 OFFCURVE",
"629 1475 OFFCURVE",
"477 1475 CURVE SMOOTH",
"256 1475 OFFCURVE",
"92 1356 OFFCURVE",
"92 1128 CURVE SMOOTH",
"92 952 OFFCURVE",
"231 823 OFFCURVE",
"399 823 CURVE SMOOTH",
"618 823 OFFCURVE",
"774 936 OFFCURVE",
"774 1174 CURVE SMOOTH"
);
},
{
closed = 1;
nodes = (
"291 1255 OFFCURVE",
"330 1374 OFFCURVE",
"418 1374 CURVE SMOOTH",
"512 1374 OFFCURVE",
"580 1278 OFFCURVE",
"580 1133 CURVE SMOOTH",
"580 1030 OFFCURVE",
"553 918 OFFCURVE",
"459 918 CURVE SMOOTH",
"371 918 OFFCURVE",
"291 1014 OFFCURVE",
"291 1157 CURVE SMOOTH"
);
}
);
width = 866;
}
);
unicode = 00BA;
},
{
glyphname = zero;
layers = (
{
layerId = UUID0;
paths = (
{
closed = 1;
nodes = (
"393 1477 OFFCURVE",
"127 1145 OFFCURVE",
"115 737 CURVE SMOOTH",
"104 344 OFFCURVE",
"367 -39 OFFCURVE",
"733 -41 CURVE",
"1157 -41 OFFCURVE",
"1378 303 OFFCURVE",
"1378 737 CURVE SMOOTH",
"1378 1141 OFFCURVE",
"1120 1477 OFFCURVE",
"780 1477 CURVE SMOOTH"
);
},
{
closed = 1;
nodes = (
"1065 311 OFFCURVE",
"950 119 OFFCURVE",
"776 119 CURVE SMOOTH",
"598 119 OFFCURVE",
"432 362 OFFCURVE",
"432 737 CURVE SMOOTH",
"432 1124 OFFCURVE",
"547 1317 OFFCURVE",
"737 1317 CURVE SMOOTH",
"936 1317 OFFCURVE",
"1065 1098 OFFCURVE",
"1065 737 CURVE SMOOTH"
);
}
);
width = 1491;
}
);
unicode = 0030;
},
{
glyphname = one;
layers = (
{
layerId = UUID0;
paths = (
{
closed = 1;
nodes = (
"387 1233 OFFCURVE",
"369 1116 OFFCURVE",
"369 1012 CURVE SMOOTH",
"369 322 LINE SMOOTH",
"369 211 OFFCURVE",
"340 0 OFFCURVE",
"340 0 CURVE",
"362 -18 OFFCURVE",
"411 -26 OFFCURVE",
"466 -26 CURVE SMOOTH",
"533 -26 OFFCURVE",
"610 -15 OFFCURVE",
"659 0 CURVE",
"659 0 OFFCURVE",
"643 197 OFFCURVE",
"643 319 CURVE SMOOTH",
"643 1075 LINE SMOOTH",
"643 1229 OFFCURVE",
"655 1292 OFFCURVE",
"655 1399 CURVE SMOOTH",
"655 1436 OFFCURVE",
"643 1452 OFFCURVE",
"643 1452 CURVE",
"596 1469 OFFCURVE",
"552 1477 OFFCURVE",
"502 1477 CURVE SMOOTH",
"474 1477 OFFCURVE",
"444 1475 OFFCURVE",
"412 1470 CURVE",
"350 1458 OFFCURVE",
"47 1153 OFFCURVE",
"31 1135 CURVE",
"43 1092 OFFCURVE",
"84 1047 OFFCURVE",
"96 1030 CURVE",
"184 1069 OFFCURVE",
"295 1151 OFFCURVE",
"387 1233 CURVE"
);
}
);
width = 813;
}
);
unicode = 0031;
},
{
glyphname = two;
layers = (
{
layerId = UUID0;
paths = (
{
closed = 1;
nodes = (
"383 0 LINE SMOOTH",
"1028 0 OFFCURVE",
"1083 0 OFFCURVE",
"1169 2 CURVE",
"1184 18 OFFCURVE",
"1188 47 OFFCURVE",
"1188 100 CURVE SMOOTH",
"1188 133 OFFCURVE",
"1184 190 OFFCURVE",
"1176 240 CURVE SMOOTH",
"1163 319 OFFCURVE",
"1137 365 OFFCURVE",
"1038 365 CURVE SMOOTH",
"956 365 OFFCURVE",
"920 313 OFFCURVE",
"920 313 CURVE",
"905 188 LINE",
"764 176 OFFCURVE",
"573 170 OFFCURVE",
"420 158 CURVE",
"416 168 OFFCURVE",
"415 178 OFFCURVE",
"415 189 CURVE SMOOTH",
"415 263 OFFCURVE",
"499 350 OFFCURVE",
"612 422 CURVE SMOOTH",
"825 557 OFFCURVE",
"1126 764 OFFCURVE",
"1126 1083 CURVE SMOOTH",
"1126 1354 OFFCURVE",
"913 1477 OFFCURVE",
"621 1477 CURVE SMOOTH",
"387 1477 OFFCURVE",
"225 1358 OFFCURVE",
"176 1303 CURVE SMOOTH",
"162 1287 OFFCURVE",
"157 1256 OFFCURVE",
"157 1222 CURVE SMOOTH",
"157 1177 OFFCURVE",
"165 1126 OFFCURVE",
"170 1098 CURVE",
"182 1018 OFFCURVE",
"209 973 OFFCURVE",
"307 973 CURVE SMOOTH",
"389 973 OFFCURVE",
"426 1024 OFFCURVE",
"426 1024 CURVE",
"426 1237 LINE",
"481 1298 OFFCURVE",
"563 1327 OFFCURVE",
"639 1327 CURVE SMOOTH",
"772 1327 OFFCURVE",
"842 1260 OFFCURVE",
"842 1061 CURVE SMOOTH",
"842 674 OFFCURVE",
"248 582 OFFCURVE",
"182 162 CURVE",
"182 51 OFFCURVE",
"219 0 OFFCURVE",
"240 0 CURVE SMOOTH"
);
}
);
width = 1260;
}
);
unicode = 0032;
},
{
glyphname = three;
layers = (
{
background = {
paths = (
{
closed = 1;
nodes = (
"-63 82 OFFCURVE",
"-43 -4 OFFCURVE",
"-2 -10 CURVE SMOOTH",
"399 -66 OFFCURVE",
"1077 -115 OFFCURVE",
"1077 406 CURVE SMOOTH",
"1077 610 OFFCURVE",
"936 743 OFFCURVE",
"778 768 CURVE",
"885 846 OFFCURVE",
"971 979 OFFCURVE",
"971 1102 CURVE SMOOTH",
"971 1413 OFFCURVE",
"735 1470 OFFCURVE",
"465 1475 CURVE SMOOTH",
"59 1481 OFFCURVE",
"-168 1434 OFFCURVE",
"-168 1434 CURVE",
"-168 1427 LINE SMOOTH",
"-174 1401 OFFCURVE",
"-166 1333 OFFCURVE",
"-156 1309 CURVE",
"-88 1303 OFFCURVE",
"-72 1262 OFFCURVE",
"-63 1192 CURVE SMOOTH",
"-37 940 OFFCURVE",
"-57 451 OFFCURVE",
"-61 182 CURVE SMOOTH"
);
},
{
closed = 1;
nodes = (
"762 113 OFFCURVE",
"481 96 OFFCURVE",
"283 119 CURVE",
"227 154 OFFCURVE",
"244 301 OFFCURVE",
"244 332 CURVE SMOOTH",
"248 440 OFFCURVE",
"250 541 OFFCURVE",
"250 639 CURVE",
"575 674 OFFCURVE",
"762 608 OFFCURVE",
"762 389 CURVE SMOOTH"
);
},
{
closed = 1;
nodes = (
"489 807 OFFCURVE",
"342 799 OFFCURVE",
"250 791 CURVE",
"246 963 OFFCURVE",
"256 1133 OFFCURVE",
"219 1305 CURVE",
"283 1317 OFFCURVE",
"379 1321 OFFCURVE",
"381 1321 CURVE SMOOTH",
"760 1321 OFFCURVE",
"743 1012 OFFCURVE",
"602 801 CURVE"
);
}
);
};
layerId = UUID0;
paths = (
{
closed = 1;
nodes = (
"375 1323 LINE",
"408 1327 OFFCURVE",
"439 1330 OFFCURVE",
"468 1330 CURVE SMOOTH",
"621 1330 OFFCURVE",
"725 1267 OFFCURVE",
"725 1104 CURVE SMOOTH",
"725 1008 OFFCURVE",
"688 911 OFFCURVE",
"623 842 CURVE",
"575 847 OFFCURVE",
"527 850 OFFCURVE",
"490 850 CURVE SMOOTH",
"456 850 OFFCURVE",
"431 848 OFFCURVE",
"422 842 CURVE SMOOTH",
"393 821 OFFCURVE",
"367 692 OFFCURVE",
"385 686 CURVE",
"489 692 LINE SMOOTH",
"500 693 OFFCURVE",
"510 693 OFFCURVE",
"520 693 CURVE SMOOTH",
"709 693 OFFCURVE",
"774 580 OFFCURVE",
"774 438 CURVE SMOOTH",
"774 219 OFFCURVE",
"678 119 OFFCURVE",
"559 119 CURVE SMOOTH",
"467 119 OFFCURVE",
"430 131 OFFCURVE",
"383 154 CURVE",
"384 173 OFFCURVE",
"385 194 OFFCURVE",
"385 215 CURVE SMOOTH",
"385 304 OFFCURVE",
"367 401 OFFCURVE",
"242 401 CURVE SMOOTH",
"184 401 OFFCURVE",
"129 383 OFFCURVE",
"129 383 CURVE",
"115 143 LINE",
"113 90 OFFCURVE",
"119 61 OFFCURVE",
"133 45 CURVE",
"246 -8 OFFCURVE",
"387 -39 OFFCURVE",
"500 -37 CURVE",
"803 -37 OFFCURVE",
"1079 86 OFFCURVE",
"1079 428 CURVE SMOOTH",
"1079 657 OFFCURVE",
"952 778 OFFCURVE",
"811 815 CURVE",
"909 893 OFFCURVE",
"981 997 OFFCURVE",
"981 1153 CURVE SMOOTH",
"981 1376 OFFCURVE",
"764 1470 OFFCURVE",
"494 1477 CURVE",
"375 1479 OFFCURVE",
"260 1468 OFFCURVE",
"145 1432 CURVE",
"131 1415 OFFCURVE",
"127 1386 OFFCURVE",
"127 1333 CURVE SMOOTH",
"127 1300 OFFCURVE",
"131 1243 OFFCURVE",
"139 1194 CURVE SMOOTH",
"152 1114 OFFCURVE",
"178 1063 OFFCURVE",
"276 1063 CURVE SMOOTH",
"358 1063 OFFCURVE",
"375 1120 OFFCURVE",
"375 1120 CURVE"
);
}
);
width = 1178;
}
);
unicode = 0033;
},
{
glyphname = four;
layers = (
{
background = {
paths = (
{
closed = 1;
nodes = (
"506 1083 OFFCURVE",
"283 774 OFFCURVE",
"76 479 CURVE",
"63 426 OFFCURVE",
"86 305 OFFCURVE",
"117 264 CURVE",
"279 303 OFFCURVE",
"514 281 OFFCURVE",
"721 262 CURVE",
"717 156 OFFCURVE",
"707 6 OFFCURVE",
"707 6 CURVE",
"782 -39 OFFCURVE",
"946 -20 OFFCURVE",
"1032 6 CURVE",
"1020 82 OFFCURVE",
"1014 162 OFFCURVE",
"1010 250 CURVE",
"1130 266 OFFCURVE",
"1212 332 OFFCURVE",
"1212 426 CURVE SMOOTH",
"1212 463 OFFCURVE",
"1198 489 OFFCURVE",
"1176 502 CURVE",
"1139 479 OFFCURVE",
"1079 471 OFFCURVE",
"1008 467 CURVE",
"1008 1044 LINE SMOOTH",
"1008 1182 OFFCURVE",
"1020 1331 OFFCURVE",
"1020 1331 CURVE",
"1024 1384 OFFCURVE",
"1014 1411 OFFCURVE",
"999 1427 CURVE",
"864 1452 OFFCURVE",
"770 1452 OFFCURVE",
"700 1411 CURVE"
);
},
{
closed = 1;
nodes = (
"412 678 OFFCURVE",
"551 883 OFFCURVE",
"725 1143 CURVE",
"725 1047 OFFCURVE",
"725 668 OFFCURVE",
"723 475 CURVE",
"559 485 OFFCURVE",
"389 500 OFFCURVE",
"279 481 CURVE"
);
}
);
};
layerId = UUID0;
paths = (
{
closed = 1;
nodes = (
"506 1122 OFFCURVE",
"283 774 OFFCURVE",
"76 479 CURVE",
"73 469 OFFCURVE",
"72 455 OFFCURVE",
"72 441 CURVE SMOOTH",
"72 382 OFFCURVE",
"92 297 OFFCURVE",
"117 264 CURVE",
"183 280 OFFCURVE",
"261 286 OFFCURVE",
"344 286 CURVE SMOOTH",
"466 286 OFFCURVE",
"598 273 OFFCURVE",
"721 262 CURVE",
"717 156 OFFCURVE",
"707 6 OFFCURVE",
"707 6 CURVE",
"740 -14 OFFCURVE",
"786 -21 OFFCURVE",
"834 -21 CURVE SMOOTH",
"897 -21 OFFCURVE",
"964 -9 OFFCURVE",
"1012 6 CURVE",
"999 82 OFFCURVE",
"993 162 OFFCURVE",
"989 250 CURVE",
"1110 266 OFFCURVE",
"1192 332 OFFCURVE",
"1192 426 CURVE SMOOTH",
"1192 463 OFFCURVE",
"1178 489 OFFCURVE",
"1155 502 CURVE",
"1118 479 OFFCURVE",
"1059 471 OFFCURVE",
"987 467 CURVE",
"987 1083 LINE SMOOTH",
"987 1197 OFFCURVE",
"995 1297 OFFCURVE",
"995 1368 CURVE SMOOTH",
"995 1416 OFFCURVE",
"991 1449 OFFCURVE",
"979 1466 CURVE",
"941 1473 OFFCURVE",
"903 1477 OFFCURVE",
"864 1477 CURVE SMOOTH",
"810 1477 OFFCURVE",
"755 1469 OFFCURVE",
"700 1450 CURVE"
);
},
{
closed = 1;
nodes = (
"412 678 OFFCURVE",
"551 915 OFFCURVE",
"725 1176 CURVE",
"725 1079 OFFCURVE",
"725 668 OFFCURVE",
"723 475 CURVE",
"616 482 OFFCURVE",
"507 490 OFFCURVE",
"413 490 CURVE SMOOTH",
"363 490 OFFCURVE",
"317 488 OFFCURVE",
"279 481 CURVE"
);
}
);
width = 1223;
}
);
unicode = 0034;
},
{
glyphname = five;
layers = (
{
layerId = UUID0;
paths = (
{
closed = 1;
nodes = (
"184 1415 OFFCURVE",
"170 1384 OFFCURVE",
"174 1331 CURVE",
"176 1290 OFFCURVE",
"178 1214 OFFCURVE",
"178 1171 CURVE SMOOTH",
"182 793 LINE",
"182 715 OFFCURVE",
"186 707 OFFCURVE",
"199 694 CURVE",
"242 700 OFFCURVE",
"373 717 OFFCURVE",
"524 717 CURVE SMOOTH",
"674 717 OFFCURVE",
"819 625 OFFCURVE",
"819 446 CURVE SMOOTH",
"819 209 OFFCURVE",
"653 125 OFFCURVE",
"557 123 CURVE",
"446 123 OFFCURVE",
"401 156 OFFCURVE",
"401 156 CURVE",
"402 177 OFFCURVE",
"403 198 OFFCURVE",
"403 218 CURVE SMOOTH",
"403 292 OFFCURVE",
"385 354 OFFCURVE",
"262 354 CURVE SMOOTH",
"205 354 OFFCURVE",
"150 336 OFFCURVE",
"150 336 CURVE",
"145 305 OFFCURVE",
"135 145 OFFCURVE",
"135 145 CURVE",
"133 92 OFFCURVE",
"139 63 OFFCURVE",
"154 47 CURVE",
"266 -6 OFFCURVE",
"424 -37 OFFCURVE",
"537 -35 CURVE",
"821 -35 OFFCURVE",
"1112 135 OFFCURVE",
"1112 451 CURVE SMOOTH",
"1112 725 OFFCURVE",
"891 877 OFFCURVE",
"659 877 CURVE SMOOTH",
"586 877 OFFCURVE",
"496 874 OFFCURVE",
"436 866 CURVE",
"436 1077 LINE SMOOTH",
"436 1137 OFFCURVE",
"422 1208 OFFCURVE",
"412 1270 CURVE",
"834 1270 LINE",
"834 1139 LINE",
"834 1139 OFFCURVE",
"862 1085 OFFCURVE",
"965 1085 CURVE SMOOTH",
"1061 1085 OFFCURVE",
"1102 1159 OFFCURVE",
"1102 1356 CURVE SMOOTH",
"1102 1425 OFFCURVE",
"1100 1440 OFFCURVE",
"1085 1454 CURVE",
"1085 1454 OFFCURVE",
"612 1432 OFFCURVE",
"199 1432 CURVE"
);
}
);
width = 1204;
}
);
unicode = 0035;
},
{
glyphname = six;
layers = (
{
background = {
paths = (
{
closed = 1;
nodes = (
"535 1104 LINE",
"535 1298 OFFCURVE",
"682 1350 OFFCURVE",
"885 1323 CURVE",
"885 1120 LINE",
"885 1120 OFFCURVE",
"901 1063 OFFCURVE",
"983 1063 CURVE SMOOTH",
"1081 1063 OFFCURVE",
"1108 1114 OFFCURVE",
"1120 1194 CURVE SMOOTH",
"1128 1243 OFFCURVE",
"1133 1300 OFFCURVE",
"1133 1333 CURVE SMOOTH",
"1133 1386 OFFCURVE",
"1128 1415 OFFCURVE",
"1114 1432 CURVE",
"999 1468 OFFCURVE",
"885 1479 OFFCURVE",
"766 1477 CURVE SMOOTH",
"496 1470 OFFCURVE",
"279 1376 OFFCURVE",
"279 1153 CURVE"
);
}
);
};
layerId = UUID0;
paths = (
{
closed = 1;
nodes = (
"874 1163 LINE",
"874 1163 OFFCURVE",
"903 1110 OFFCURVE",
"1006 1110 CURVE SMOOTH",
"1102 1110 OFFCURVE",
"1141 1178 OFFCURVE",
"1141 1296 CURVE SMOOTH",
"1141 1331 OFFCURVE",
"1139 1366 OFFCURVE",
"1126 1401 CURVE",
"999 1456 OFFCURVE",
"879 1475 OFFCURVE",
"770 1475 CURVE SMOOTH",
"371 1475 OFFCURVE",
"113 1135 OFFCURVE",
"113 651 CURVE SMOOTH",
"113 174 OFFCURVE",
"301 -39 OFFCURVE",
"651 -39 CURVE SMOOTH",
"866 -39 OFFCURVE",
"1212 100 OFFCURVE",
"1212 485 CURVE SMOOTH",
"1212 805 OFFCURVE",
"983 950 OFFCURVE",
"750 950 CURVE SMOOTH",
"621 950 OFFCURVE",
"524 913 OFFCURVE",
"410 842 CURVE",
"446 1169 OFFCURVE",
"545 1329 OFFCURVE",
"727 1329 CURVE SMOOTH",
"797 1329 OFFCURVE",
"821 1323 OFFCURVE",
"874 1305 CURVE"
);
},
{
closed = 1;
nodes = (
"831 786 OFFCURVE",
"915 633 OFFCURVE",
"915 457 CURVE SMOOTH",
"915 223 OFFCURVE",
"846 90 OFFCURVE",
"649 90 CURVE SMOOTH",
"496 90 OFFCURVE",
"416 344 OFFCURVE",
"408 682 CURVE",
"502 754 OFFCURVE",
"598 786 OFFCURVE",
"688 786 CURVE SMOOTH"
);
}
);
width = 1346;
}
);
unicode = 0036;
},
{
glyphname = seven;
layers = (
{
layerId = UUID0;
paths = (
{
closed = 1;
nodes = (
"12 1440 OFFCURVE",
"10 1403 OFFCURVE",
"10 1333 CURVE SMOOTH",
"10 1137 OFFCURVE",
"49 1085 OFFCURVE",
"145 1085 CURVE SMOOTH",
"248 1085 OFFCURVE",
"276 1139 OFFCURVE",
"276 1139 CURVE",
"276 1260 LINE",
"788 1288 LINE",
"698 1130 OFFCURVE",
"643 1057 OFFCURVE",
"567 948 CURVE SMOOTH",
"373 666 OFFCURVE",
"295 504 OFFCURVE",
"295 6 CURVE",
"338 -10 OFFCURVE",
"395 -16 OFFCURVE",
"452 -16 CURVE SMOOTH",
"516 -16 OFFCURVE",
"579 -8 OFFCURVE",
"625 6 CURVE",
"617 72 OFFCURVE",
"612 127 OFFCURVE",
"612 178 CURVE SMOOTH",
"612 195 OFFCURVE",
"613 212 OFFCURVE",
"614 229 CURVE SMOOTH",
"633 561 OFFCURVE",
"639 651 OFFCURVE",
"786 903 CURVE",
"883 1067 OFFCURVE",
"918 1122 OFFCURVE",
"956 1200 CURVE",
"975 1235 OFFCURVE",
"983 1273 OFFCURVE",
"983 1310 CURVE SMOOTH",
"983 1351 OFFCURVE",
"973 1391 OFFCURVE",
"956 1432 CURVE",
"401 1432 OFFCURVE",
"27 1454 OFFCURVE",
"27 1454 CURVE"
);
}
);
width = 1016;
}
);
unicode = 0037;
},
{
glyphname = eight;
layers = (
{
layerId = UUID0;
paths = (
{
closed = 1;
nodes = (
"92 0 OFFCURVE",
"393 -41 OFFCURVE",
"610 -41 CURVE SMOOTH",
"811 -41 OFFCURVE",
"1161 37 OFFCURVE",
"1161 416 CURVE SMOOTH",
"1161 612 OFFCURVE",
"1030 702 OFFCURVE",
"877 762 CURVE",
"977 842 OFFCURVE",
"1059 975 OFFCURVE",
"1059 1114 CURVE SMOOTH",
"1059 1358 OFFCURVE",
"891 1475 OFFCURVE",
"625 1475 CURVE SMOOTH",
"455 1475 OFFCURVE",
"170 1372 OFFCURVE",
"170 1094 CURVE SMOOTH",
"170 915 OFFCURVE",
"256 811 OFFCURVE",
"369 750 CURVE",
"250 694 OFFCURVE",
"92 551 OFFCURVE",
"92 379 CURVE SMOOTH"
);
},
{
closed = 1;
nodes = (
"868 166 OFFCURVE",
"776 86 OFFCURVE",
"637 86 CURVE SMOOTH",
"516 86 OFFCURVE",
"379 188 OFFCURVE",
"379 399 CURVE SMOOTH",
"379 510 OFFCURVE",
"434 623 OFFCURVE",
"522 684 CURVE",
"610 653 LINE SMOOTH",
"784 590 OFFCURVE",
"868 526 OFFCURVE",
"868 375 CURVE SMOOTH"
);
},
{
closed = 1;
nodes = (
"422 1257 OFFCURVE",
"473 1346 OFFCURVE",
"588 1346 CURVE SMOOTH",
"715 1346 OFFCURVE",
"819 1300 OFFCURVE",
"819 1071 CURVE SMOOTH",
"819 954 OFFCURVE",
"768 872 OFFCURVE",
"711 817 CURVE",
"563 862 OFFCURVE",
"422 922 OFFCURVE",
"422 1094 CURVE SMOOTH"
);
}
);
width = 1253;
}
);
unicode = 0038;
},
{
glyphname = nine;
layers = (
{
background = {
paths = (
{
closed = 1;
nodes = (
"580 102 OFFCURVE",
"522 121 OFFCURVE",
"483 152 CURVE",
"483 307 LINE",
"483 307 OFFCURVE",
"455 360 OFFCURVE",
"352 360 CURVE SMOOTH",
"256 360 OFFCURVE",
"217 272 OFFCURVE",
"217 141 CURVE SMOOTH",
"217 72 OFFCURVE",
"219 55 OFFCURVE",
"233 43 CURVE",
"346 -10 OFFCURVE",
"487 -39 OFFCURVE",
"600 -39 CURVE SMOOTH",
"1085 -39 OFFCURVE",
"1315 385 OFFCURVE",
"1315 784 CURVE SMOOTH",
"1315 1262 OFFCURVE",
"1114 1475 OFFCURVE",
"735 1475 CURVE SMOOTH",
"520 1475 OFFCURVE",
"174 1335 OFFCURVE",
"174 950 CURVE SMOOTH",
"174 631 OFFCURVE",
"412 485 OFFCURVE",
"645 485 CURVE SMOOTH",
"844 485 OFFCURVE",
"963 598 OFFCURVE",
"1022 702 CURVE",
"1014 477 OFFCURVE",
"958 102 OFFCURVE",
"672 102 CURVE SMOOTH"
);
},
{
closed = 1;
nodes = (
"563 649 OFFCURVE",
"477 803 OFFCURVE",
"471 979 CURVE SMOOTH",
"463 1227 OFFCURVE",
"569 1346 OFFCURVE",
"737 1346 CURVE SMOOTH",
"887 1346 OFFCURVE",
"1001 1188 OFFCURVE",
"1020 938 CURVE",
"981 819 OFFCURVE",
"883 649 OFFCURVE",
"707 649 CURVE SMOOTH"
);
},
{
closed = 1;
nodes = (
"588 102 OFFCURVE",
"530 121 OFFCURVE",
"492 152 CURVE",
"492 307 LINE",
"492 307 OFFCURVE",
"463 360 OFFCURVE",
"360 360 CURVE SMOOTH",
"264 360 OFFCURVE",
"225 272 OFFCURVE",
"225 141 CURVE SMOOTH",
"225 72 OFFCURVE",
"225 55 OFFCURVE",
"242 43 CURVE",
"354 -10 OFFCURVE",
"496 -39 OFFCURVE",
"608 -39 CURVE SMOOTH",
"1065 -39 OFFCURVE",
"1253 381 OFFCURVE",
"1253 780 CURVE SMOOTH",
"1253 1257 OFFCURVE",
"1065 1470 OFFCURVE",
"715 1470 CURVE SMOOTH",
"500 1470 OFFCURVE",
"154 1331 OFFCURVE",
"154 946 CURVE SMOOTH",
"154 627 OFFCURVE",
"383 481 OFFCURVE",
"616 481 CURVE SMOOTH",
"795 481 OFFCURVE",
"911 596 OFFCURVE",
"963 698 CURVE",
"952 475 OFFCURVE",
"915 102 OFFCURVE",
"680 102 CURVE SMOOTH"
);
},
{
closed = 1;
nodes = (
"535 645 OFFCURVE",
"457 799 OFFCURVE",
"451 975 CURVE SMOOTH",
"442 1223 OFFCURVE",
"549 1341 OFFCURVE",
"717 1341 CURVE SMOOTH",
"874 1341 OFFCURVE",
"944 1141 OFFCURVE",
"961 889 CURVE",
"926 772 OFFCURVE",
"829 645 OFFCURVE",
"678 645 CURVE SMOOTH"
);
}
);
};
layerId = UUID0;
paths = (
{
closed = 1;
nodes = (
"472 277 LINE",
"472 277 OFFCURVE",
"443 330 OFFCURVE",
"340 330 CURVE SMOOTH",
"244 330 OFFCURVE",
"205 262 OFFCURVE",
"205 144 CURVE SMOOTH",
"205 109 OFFCURVE",
"207 74 OFFCURVE",
"220 39 CURVE",
"347 -16 OFFCURVE",
"467 -35 OFFCURVE",
"576 -35 CURVE SMOOTH",
"975 -35 OFFCURVE",
"1233 305 OFFCURVE",
"1233 789 CURVE SMOOTH",
"1233 1266 OFFCURVE",
"1045 1479 OFFCURVE",
"695 1479 CURVE SMOOTH",
"480 1479 OFFCURVE",
"134 1340 OFFCURVE",
"134 955 CURVE SMOOTH",
"134 635 OFFCURVE",
"363 490 OFFCURVE",
"596 490 CURVE SMOOTH",
"725 490 OFFCURVE",
"822 527 OFFCURVE",
"936 598 CURVE",
"900 271 OFFCURVE",
"801 111 OFFCURVE",
"619 111 CURVE SMOOTH",
"549 111 OFFCURVE",
"525 117 OFFCURVE",
"472 135 CURVE"
);
},
{
closed = 1;
nodes = (
"515 654 OFFCURVE",
"431 807 OFFCURVE",
"431 983 CURVE SMOOTH",
"431 1217 OFFCURVE",
"500 1350 OFFCURVE",
"697 1350 CURVE SMOOTH",
"850 1350 OFFCURVE",
"930 1096 OFFCURVE",
"938 758 CURVE",
"844 686 OFFCURVE",
"748 654 OFFCURVE",
"658 654 CURVE SMOOTH"
);
}
);
width = 1346;
}
);
unicode = 0039;
},
{
glyphname = onesuperior;
layers = (
{
layerId = UUID0;
paths = (
{
closed = 1;
nodes = (
"303 1280 LINE",
"303 1280 OFFCURVE",
"295 1184 OFFCURVE",
"295 1112 CURVE SMOOTH",
"295 825 LINE SMOOTH",
"295 748 OFFCURVE",
"279 602 OFFCURVE",
"279 602 CURVE",
"294 589 OFFCURVE",
"328 585 OFFCURVE",
"368 585 CURVE SMOOTH",
"421 585 OFFCURVE",
"482 593 OFFCURVE",
"518 602 CURVE",
"518 602 OFFCURVE",
"510 739 OFFCURVE",
"510 823 CURVE SMOOTH",
"510 1182 LINE SMOOTH",
"510 1245 OFFCURVE",
"516 1313 OFFCURVE",
"516 1389 CURVE SMOOTH",
"516 1411 OFFCURVE",
"510 1440 OFFCURVE",
"510 1440 CURVE",
"478 1452 OFFCURVE",
"439 1458 OFFCURVE",
"398 1458 CURVE SMOOTH",
"373 1458 OFFCURVE",
"347 1456 OFFCURVE",
"322 1452 CURVE",
"279 1442 OFFCURVE",
"104 1262 OFFCURVE",
"92 1247 CURVE",
"102 1210 OFFCURVE",
"139 1169 OFFCURVE",
"160 1141 CURVE",
"242 1202 OFFCURVE",
"258 1229 OFFCURVE",
"303 1286 CURVE"
);
}
);
width = 672;
}
);
unicode = 00B9;
},
{
glyphname = twosuperior;
layers = (
{
layerId = UUID0;
paths = (
{
closed = 1;
nodes = (
"680 600 OFFCURVE",
"678 600 OFFCURVE",
"733 602 CURVE",
"743 625 OFFCURVE",
"750 657 OFFCURVE",
"750 690 CURVE SMOOTH",
"750 815 OFFCURVE",
"719 860 OFFCURVE",
"647 860 CURVE SMOOTH",
"594 860 OFFCURVE",
"569 823 OFFCURVE",
"569 823 CURVE",
"561 752 LINE",
"295 737 LINE",
"381 887 OFFCURVE",
"733 1014 OFFCURVE",
"733 1251 CURVE SMOOTH",
"733 1423 OFFCURVE",
"580 1477 OFFCURVE",
"418 1477 CURVE SMOOTH",
"262 1477 OFFCURVE",
"182 1409 OFFCURVE",
"150 1374 CURVE",
"139 1356 OFFCURVE",
"133 1329 OFFCURVE",
"133 1303 CURVE SMOOTH",
"133 1214 OFFCURVE",
"150 1155 OFFCURVE",
"231 1155 CURVE SMOOTH",
"287 1155 OFFCURVE",
"313 1188 OFFCURVE",
"313 1188 CURVE",
"313 1329 LINE",
"344 1356 OFFCURVE",
"375 1364 OFFCURVE",
"412 1364 CURVE SMOOTH",
"494 1364 OFFCURVE",
"539 1346 OFFCURVE",
"539 1253 CURVE SMOOTH",
"539 1063 OFFCURVE",
"203 967 OFFCURVE",
"145 725 CURVE",
"144 712 OFFCURVE",
"143 699 OFFCURVE",
"143 688 CURVE SMOOTH",
"143 643 OFFCURVE",
"152 617 OFFCURVE",
"160 600 CURVE"
);
}
);
width = 879;
}
);
unicode = 00B2;
},
{
glyphname = threesuperior;
layers = (
{
background = {
paths = (
{
closed = 1;
nodes = (
"266 1376 LINE",
"385 1393 OFFCURVE",
"473 1362 OFFCURVE",
"473 1249 CURVE SMOOTH",
"473 1192 OFFCURVE",
"451 1141 OFFCURVE",
"412 1100 CURVE",
"358 1106 OFFCURVE",
"305 1108 OFFCURVE",
"295 1100 CURVE SMOOTH",
"276 1087 OFFCURVE",
"262 1012 OFFCURVE",
"272 1010 CURVE",
"334 1012 LINE",
"459 1020 OFFCURVE",
"502 952 OFFCURVE",
"502 864 CURVE SMOOTH",
"502 735 OFFCURVE",
"444 676 OFFCURVE",
"375 676 CURVE SMOOTH",
"322 676 OFFCURVE",
"299 684 OFFCURVE",
"270 696 CURVE",
"274 754 OFFCURVE",
"281 842 OFFCURVE",
"188 842 CURVE SMOOTH",
"156 842 OFFCURVE",
"123 831 OFFCURVE",
"123 831 CURVE",
"115 690 LINE SMOOTH",
"113 659 OFFCURVE",
"117 643 OFFCURVE",
"125 633 CURVE",
"190 602 OFFCURVE",
"274 584 OFFCURVE",
"340 584 CURVE SMOOTH",
"518 584 OFFCURVE",
"672 672 OFFCURVE",
"672 872 CURVE SMOOTH",
"672 1008 OFFCURVE",
"606 1063 OFFCURVE",
"522 1085 CURVE",
"580 1130 OFFCURVE",
"623 1186 OFFCURVE",
"623 1278 CURVE SMOOTH",
"623 1409 OFFCURVE",
"496 1464 OFFCURVE",
"336 1466 CURVE SMOOTH",
"266 1468 OFFCURVE",
"199 1462 OFFCURVE",
"131 1440 CURVE",
"123 1432 OFFCURVE",
"121 1415 OFFCURVE",
"121 1382 CURVE SMOOTH",
"121 1364 OFFCURVE",
"123 1329 OFFCURVE",
"129 1300 CURVE",
"135 1253 OFFCURVE",
"152 1229 OFFCURVE",
"209 1229 CURVE SMOOTH",
"256 1229 OFFCURVE",
"266 1257 OFFCURVE",
"266 1257 CURVE"
);
}
);
};
layerId = UUID0;
paths = (
{
closed = 1;
nodes = (
"295 1358 LINE",
"319 1362 OFFCURVE",
"342 1364 OFFCURVE",
"362 1364 CURVE SMOOTH",
"453 1364 OFFCURVE",
"487 1313 OFFCURVE",
"487 1253 CURVE SMOOTH",
"487 1204 OFFCURVE",
"467 1147 OFFCURVE",
"440 1106 CURVE",
"408 1108 OFFCURVE",
"371 1108 OFFCURVE",
"340 1108 CURVE SMOOTH",
"301 1108 OFFCURVE",
"270 1102 OFFCURVE",
"270 1036 CURVE SMOOTH",
"270 1022 OFFCURVE",
"272 1006 OFFCURVE",
"276 987 CURVE",
"336 989 LINE",
"348 989 LINE SMOOTH",
"442 989 OFFCURVE",
"504 946 OFFCURVE",
"504 842 CURVE SMOOTH",
"504 741 OFFCURVE",
"444 676 OFFCURVE",
"369 676 CURVE SMOOTH",
"338 676 OFFCURVE",
"305 682 OFFCURVE",
"270 696 CURVE",
"272 709 OFFCURVE",
"272 729 OFFCURVE",
"272 741 CURVE SMOOTH",
"272 793 OFFCURVE",
"260 827 OFFCURVE",
"201 827 CURVE SMOOTH",
"156 827 OFFCURVE",
"119 815 OFFCURVE",
"119 815 CURVE",
"115 790 OFFCURVE",
"113 764 OFFCURVE",
"113 738 CURVE SMOOTH",
"113 702 OFFCURVE",
"117 666 OFFCURVE",
"125 633 CURVE",
"186 594 OFFCURVE",
"250 582 OFFCURVE",
"348 582 CURVE SMOOTH",
"551 582 OFFCURVE",
"698 664 OFFCURVE",
"698 860 CURVE SMOOTH",
"698 963 OFFCURVE",
"639 1038 OFFCURVE",
"553 1079 CURVE",
"627 1143 OFFCURVE",
"664 1200 OFFCURVE",
"664 1278 CURVE SMOOTH",
"664 1438 OFFCURVE",
"498 1477 OFFCURVE",
"356 1477 CURVE SMOOTH",
"274 1477 OFFCURVE",
"195 1462 OFFCURVE",
"139 1442 CURVE",
"131 1423 OFFCURVE",
"129 1401 OFFCURVE",
"129 1378 CURVE SMOOTH",
"129 1311 OFFCURVE",
"162 1239 OFFCURVE",
"227 1239 CURVE SMOOTH",
"283 1239 OFFCURVE",
"295 1274 OFFCURVE",
"295 1274 CURVE"
);
}
);
width = 801;
}
);
unicode = 00B3;
},
{
glyphname = foursuperior;
layers = (
{
background = {
paths = (
{
closed = 1;
nodes = (
"307 1235 OFFCURVE",
"176 1055 OFFCURVE",
"55 883 CURVE",
"47 850 OFFCURVE",
"59 780 OFFCURVE",
"78 756 CURVE",
"174 778 OFFCURVE",
"311 766 OFFCURVE",
"432 754 CURVE",
"430 692 OFFCURVE",
"424 604 OFFCURVE",
"424 604 CURVE",
"469 578 OFFCURVE",
"567 590 OFFCURVE",
"616 604 CURVE",
"610 649 OFFCURVE",
"606 696 OFFCURVE",
"604 748 CURVE",
"676 758 OFFCURVE",
"723 795 OFFCURVE",
"723 850 CURVE SMOOTH",
"723 872 OFFCURVE",
"715 889 OFFCURVE",
"700 895 CURVE",
"680 883 OFFCURVE",
"645 877 OFFCURVE",
"602 874 CURVE",
"602 1212 LINE SMOOTH",
"602 1294 OFFCURVE",
"610 1380 OFFCURVE",
"610 1380 CURVE",
"612 1413 OFFCURVE",
"606 1427 OFFCURVE",
"598 1438 CURVE",
"518 1452 OFFCURVE",
"461 1452 OFFCURVE",
"420 1427 CURVE"
);
},
{
closed = 1;
nodes = (
"252 997 OFFCURVE",
"334 1118 OFFCURVE",
"434 1270 CURVE",
"434 1214 OFFCURVE",
"434 993 OFFCURVE",
"434 879 CURVE",
"338 885 OFFCURVE",
"238 893 OFFCURVE",
"174 883 CURVE"
);
}
);
};
layerId = UUID0;
paths = (
{
closed = 1;
nodes = (
"713 901 OFFCURVE",
"686 895 OFFCURVE",
"637 893 CURVE",
"637 1171 LINE SMOOTH",
"637 1268 OFFCURVE",
"643 1362 OFFCURVE",
"643 1362 CURVE",
"645 1399 OFFCURVE",
"641 1438 OFFCURVE",
"631 1444 CURVE",
"595 1449 OFFCURVE",
"562 1452 OFFCURVE",
"522 1452 CURVE SMOOTH",
"491 1452 OFFCURVE",
"457 1450 OFFCURVE",
"414 1444 CURVE",
"317 1298 OFFCURVE",
"137 995 OFFCURVE",
"51 903 CURVE",
"41 864 OFFCURVE",
"59 782 OFFCURVE",
"78 754 CURVE",
"124 765 OFFCURVE",
"167 770 OFFCURVE",
"212 770 CURVE SMOOTH",
"276 770 OFFCURVE",
"344 761 OFFCURVE",
"428 754 CURVE",
"426 680 OFFCURVE",
"420 604 OFFCURVE",
"420 604 CURVE",
"441 591 OFFCURVE",
"475 586 OFFCURVE",
"512 586 CURVE SMOOTH",
"562 586 OFFCURVE",
"616 595 OFFCURVE",
"649 604 CURVE",
"643 657 OFFCURVE",
"641 692 OFFCURVE",
"639 752 CURVE",
"723 762 OFFCURVE",
"764 805 OFFCURVE",
"764 862 CURVE SMOOTH",
"764 887 OFFCURVE",
"754 907 OFFCURVE",
"737 915 CURVE"
);
},
{
closed = 1;
nodes = (
"434 899 LINE",
"355 902 OFFCURVE",
"282 907 OFFCURVE",
"219 907 CURVE SMOOTH",
"209 907 OFFCURVE",
"200 907 OFFCURVE",
"190 907 CURVE",
"283 1012 OFFCURVE",
"362 1143 OFFCURVE",
"432 1274 CURVE"
);
}
);
width = 856;
}
);
unicode = 2074;
},
{
glyphname = fraction;
layers = (
{
layerId = UUID0;
paths = (
{
closed = 1;
nodes = (
"803 1524 LINE",
"782 1533 OFFCURVE",
"750 1536 OFFCURVE",
"719 1536 CURVE SMOOTH",
"693 1536 OFFCURVE",
"668 1534 OFFCURVE",
"651 1530 CURVE",
"578 1380 OFFCURVE",
"-18 78 OFFCURVE",
"-61 -88 CURVE",
"-54 -95 OFFCURVE",
"-19 -100 OFFCURVE",
"15 -100 CURVE SMOOTH",
"44 -100 OFFCURVE",
"73 -97 OFFCURVE",
"84 -90 CURVE"
);
}
);
width = 717;
}
);
unicode = 2044;
},
{
glyphname = asterisk;
layers = (
{
layerId = UUID0;
paths = (
{
closed = 1;
nodes = (
"795 1302 OFFCURVE",
"779 1307 OFFCURVE",
"759 1307 CURVE SMOOTH",
"709 1307 OFFCURVE",
"635 1279 OFFCURVE",
"532 1208 CURVE",
"535 1335 OFFCURVE",
"561 1442 OFFCURVE",
"575 1477 CURVE",
"541 1497 OFFCURVE",
"506 1509 OFFCURVE",
"477 1509 CURVE SMOOTH",
"440 1509 OFFCURVE",
"406 1499 OFFCURVE",
"375 1477 CURVE",
"358 1462 OFFCURVE",
"352 1438 OFFCURVE",
"352 1403 CURVE SMOOTH",
"352 1356 OFFCURVE",
"365 1284 OFFCURVE",
"395 1190 CURVE",
"260 1233 OFFCURVE",
"205 1268 OFFCURVE",
"164 1284 CURVE",
"143 1288 LINE",
"109 1260 OFFCURVE",
"92 1223 OFFCURVE",
"92 1176 CURVE SMOOTH",
"92 1153 OFFCURVE",
"96 1130 OFFCURVE",
"100 1112 CURVE",
"115 1071 OFFCURVE",
"213 1047 OFFCURVE",
"350 1047 CURVE SMOOTH",
"362 1047 LINE",
"274 958 OFFCURVE",
"207 905 OFFCURVE",
"174 889 CURVE",
"186 817 OFFCURVE",
"244 766 OFFCURVE",
"309 754 CURVE",
"352 752 OFFCURVE",
"426 840 OFFCURVE",
"487 981 CURVE",
"520 930 LINE",
"569 846 OFFCURVE",
"606 788 OFFCURVE",
"614 754 CURVE",
"686 748 OFFCURVE",
"745 788 OFFCURVE",
"772 846 CURVE",
"791 895 OFFCURVE",
"717 979 OFFCURVE",
"598 1079 CURVE",
"725 1108 OFFCURVE",
"827 1116 OFFCURVE",
"864 1116 CURVE",
"870 1134 OFFCURVE",
"873 1151 OFFCURVE",
"873 1169 CURVE SMOOTH",
"873 1219 OFFCURVE",
"849 1267 OFFCURVE",
"807 1294 CURVE SMOOTH"
);
}
);
width = 967;
}
);
unicode = 002A;
},
{
glyphname = backslash;
layers = (
{
layerId = UUID0;
paths = (
{
closed = 1;
nodes = (
"662 -342 LINE",
"672 -349 OFFCURVE",
"713 -352 OFFCURVE",
"756 -352 CURVE SMOOTH",
"805 -352 OFFCURVE",
"857 -347 OFFCURVE",
"864 -340 CURVE",
"821 -174 OFFCURVE",
"221 1561 OFFCURVE",
"147 1710 CURVE",
"131 1714 OFFCURVE",
"94 1716 OFFCURVE",
"55 1716 CURVE SMOOTH",
"9 1716 OFFCURVE",
"-40 1713 OFFCURVE",
"-61 1704 CURVE"
);
}
);
width = 782;
}
);
unicode = 005C;
},
{
glyphname = periodcentered;
layers = (
{
layerId = UUID0;
paths = (
{
closed = 1;
nodes = (
"454 558 OFFCURVE",
"476 610 OFFCURVE",
"476 660 CURVE SMOOTH",
"476 693 OFFCURVE",
"466 725 OFFCURVE",
"444 750 CURVE SMOOTH",
"416 782 OFFCURVE",
"376 797 OFFCURVE",
"335 797 CURVE SMOOTH",
"292 797 OFFCURVE",
"248 781 OFFCURVE",
"213 752 CURVE",
"176 718 OFFCURVE",
"154 668 OFFCURVE",
"154 620 CURVE SMOOTH",
"154 587 OFFCURVE",
"165 554 OFFCURVE",
"188 528 CURVE SMOOTH",
"217 496 OFFCURVE",
"260 481 OFFCURVE",
"302 481 CURVE SMOOTH",
"343 481 OFFCURVE",
"385 495 OFFCURVE",
"416 522 CURVE"
);
}
);
width = 631;
}
);
unicode = 00B7;
},
{
glyphname = bullet;
layers = (
{
layerId = UUID0;
paths = (
{
closed = 1;
nodes = (
"717 501 OFFCURVE",
"759 601 OFFCURVE",
"759 694 CURVE SMOOTH",
"759 757 OFFCURVE",
"740 817 OFFCURVE",
"698 862 CURVE",
"646 923 OFFCURVE",
"570 951 OFFCURVE",
"492 951 CURVE SMOOTH",
"412 951 OFFCURVE",
"328 921 OFFCURVE",
"264 866 CURVE",
"195 803 OFFCURVE",
"155 710 OFFCURVE",
"155 620 CURVE SMOOTH",
"155 557 OFFCURVE",
"174 497 OFFCURVE",
"217 449 CURVE SMOOTH",
"274 387 OFFCURVE",
"355 358 OFFCURVE",
"435 358 CURVE SMOOTH",
"512 358 OFFCURVE",
"588 384 OFFCURVE",
"645 434 CURVE"
);
}
);
width = 913;
}
);
unicode = 2022;
},
{
glyphname = colon;
layers = (
{
layerId = UUID0;
paths = (
{
closed = 1;
nodes = (
"454 726 OFFCURVE",
"476 778 OFFCURVE",
"476 828 CURVE SMOOTH",
"476 861 OFFCURVE",
"466 893 OFFCURVE",
"444 918 CURVE SMOOTH",
"416 950 OFFCURVE",
"376 965 OFFCURVE",
"335 965 CURVE SMOOTH",
"292 965 OFFCURVE",
"248 949 OFFCURVE",
"213 920 CURVE",
"176 886 OFFCURVE",
"154 836 OFFCURVE",
"154 788 CURVE SMOOTH",
"154 755 OFFCURVE",
"165 722 OFFCURVE",
"188 696 CURVE SMOOTH",
"217 664 OFFCURVE",
"260 649 OFFCURVE",
"302 649 CURVE SMOOTH",
"343 649 OFFCURVE",
"385 663 OFFCURVE",
"416 690 CURVE"
);
},
{
closed = 1;
nodes = (
"454 76 OFFCURVE",
"476 128 OFFCURVE",
"476 178 CURVE SMOOTH",
"476 211 OFFCURVE",
"466 243 OFFCURVE",
"444 268 CURVE SMOOTH",
"416 300 OFFCURVE",
"376 316 OFFCURVE",
"335 316 CURVE SMOOTH",
"292 316 OFFCURVE",
"248 299 OFFCURVE",
"213 270 CURVE",
"176 236 OFFCURVE",
"154 187 OFFCURVE",
"154 139 CURVE SMOOTH",
"154 106 OFFCURVE",
"165 73 OFFCURVE",
"188 47 CURVE SMOOTH",
"217 15 OFFCURVE",
"260 0 OFFCURVE",
"302 0 CURVE SMOOTH",
"343 0 OFFCURVE",
"385 14 OFFCURVE",
"416 41 CURVE SMOOTH"
);
}
);
width = 631;
}
);
unicode = 003A;
},
{
glyphname = comma;
layers = (
{
layerId = UUID0;
paths = (
{
closed = 1;
nodes = (
"268 -45 OFFCURVE",
"231 -115 OFFCURVE",
"176 -158 CURVE",
"178 -182 OFFCURVE",
"190 -201 OFFCURVE",
"213 -213 CURVE",
"354 -170 OFFCURVE",
"475 10 OFFCURVE",
"475 143 CURVE SMOOTH",
"475 242 OFFCURVE",
"401 291 OFFCURVE",
"328 291 CURVE SMOOTH",
"223 291 OFFCURVE",
"154 203 OFFCURVE",
"154 106 CURVE SMOOTH",
"154 18 OFFCURVE",
"244 -25 OFFCURVE",
"270 -25 CURVE"
);
}
);
width = 629;
}
);
unicode = 002C;
},
{
glyphname = exclam;
layers = (
{
layerId = UUID0;
paths = (
{
closed = 1;
nodes = (
"476 37 OFFCURVE",
"499 90 OFFCURVE",
"499 139 CURVE SMOOTH",
"499 172 OFFCURVE",
"489 203 OFFCURVE",
"467 227 CURVE",
"440 259 OFFCURVE",
"400 275 OFFCURVE",
"359 275 CURVE SMOOTH",
"316 275 OFFCURVE",
"272 258 OFFCURVE",
"238 229 CURVE SMOOTH",
"200 197 OFFCURVE",
"179 148 OFFCURVE",
"179 100 CURVE SMOOTH",
"179 66 OFFCURVE",
"189 34 OFFCURVE",
"213 8 CURVE SMOOTH",
"242 -24 OFFCURVE",
"284 -40 OFFCURVE",
"327 -40 CURVE SMOOTH",
"367 -40 OFFCURVE",
"408 -26 OFFCURVE",
"438 0 CURVE"
);
},
{
closed = 1;
nodes = (
"453 807 OFFCURVE",
"483 1298 OFFCURVE",
"498 1493 CURVE",
"463 1506 OFFCURVE",
"417 1512 OFFCURVE",
"366 1512 CURVE SMOOTH",
"305 1512 OFFCURVE",
"237 1504 OFFCURVE",
"172 1493 CURVE",
"180 711 OFFCURVE",
"223 477 OFFCURVE",
"231 410 CURVE",
"263 402 OFFCURVE",
"296 397 OFFCURVE",
"328 397 CURVE SMOOTH",
"369 397 OFFCURVE",
"410 405 OFFCURVE",
"449 422 CURVE"
);
}
);
width = 674;
}
);
unicode = 0021;
},
{
glyphname = numbersign;
layers = (
{
layerId = UUID0;
paths = (
{
closed = 1;
nodes = (
"1026 428 LINE",
"1036 450 OFFCURVE",
"1040 482 OFFCURVE",
"1040 512 CURVE SMOOTH",
"1040 535 OFFCURVE",
"1038 557 OFFCURVE",
"1034 569 CURVE",
"999 571 OFFCURVE",
"946 575 OFFCURVE",
"883 578 CURVE",
"928 913 LINE",
"1094 913 LINE",
"1104 935 OFFCURVE",
"1108 967 OFFCURVE",
"1108 997 CURVE SMOOTH",
"1108 1020 OFFCURVE",
"1106 1042 OFFCURVE",
"1102 1055 CURVE",
"1067 1057 OFFCURVE",
"1012 1061 OFFCURVE",
"946 1063 CURVE",
"995 1419 LINE",
"973 1428 OFFCURVE",
"939 1432 OFFCURVE",
"907 1432 CURVE SMOOTH",
"880 1432 OFFCURVE",
"854 1429 OFFCURVE",
"838 1425 CURVE",
"825 1378 OFFCURVE",
"803 1239 OFFCURVE",
"778 1065 CURVE",
"705 1065 OFFCURVE",
"629 1065 OFFCURVE",
"553 1063 CURVE",
"600 1419 LINE",
"578 1428 OFFCURVE",
"544 1432 OFFCURVE",
"512 1432 CURVE SMOOTH",
"485 1432 OFFCURVE",
"458 1429 OFFCURVE",
"442 1425 CURVE",
"430 1378 OFFCURVE",
"408 1235 OFFCURVE",
"383 1059 CURVE",
"305 1057 OFFCURVE",
"238 1053 OFFCURVE",
"195 1049 CURVE",
"186 1040 OFFCURVE",
"181 1007 OFFCURVE",
"181 976 CURVE SMOOTH",
"181 948 OFFCURVE",
"185 921 OFFCURVE",
"193 913 CURVE",
"362 913 LINE",
"346 803 OFFCURVE",
"332 686 OFFCURVE",
"317 573 CURVE",
"238 571 OFFCURVE",
"170 567 OFFCURVE",
"127 563 CURVE",
"119 555 OFFCURVE",
"114 522 OFFCURVE",
"114 490 CURVE SMOOTH",
"114 462 OFFCURVE",
"117 436 OFFCURVE",
"125 428 CURVE",
"299 428 LINE",
"276 231 OFFCURVE",
"260 70 OFFCURVE",
"260 14 CURVE",
"269 7 OFFCURVE",
"305 2 OFFCURVE",
"341 2 CURVE SMOOTH",
"372 2 OFFCURVE",
"402 5 OFFCURVE",
"412 12 CURVE",
"467 428 LINE",
"694 428 LINE",
"672 231 OFFCURVE",
"655 70 OFFCURVE",
"655 14 CURVE",
"664 7 OFFCURVE",
"701 2 OFFCURVE",
"737 2 CURVE SMOOTH",
"768 2 OFFCURVE",
"797 5 OFFCURVE",
"807 12 CURVE",
"862 428 LINE"
);
},
{
closed = 1;
nodes = (
"641 580 OFFCURVE",
"563 580 OFFCURVE",
"487 578 CURVE",
"532 913 LINE",
"758 913 LINE",
"743 805 OFFCURVE",
"727 690 OFFCURVE",
"715 580 CURVE"
);
}
);
width = 1159;
}
);
unicode = 0023;
},
{
glyphname = period;
layers = (
{
layerId = UUID0;
paths = (
{
closed = 1;
nodes = (
"413 72 OFFCURVE",
"435 124 OFFCURVE",
"435 174 CURVE SMOOTH",
"435 207 OFFCURVE",
"425 239 OFFCURVE",
"403 264 CURVE SMOOTH",
"375 296 OFFCURVE",
"335 312 OFFCURVE",
"294 312 CURVE SMOOTH",
"251 312 OFFCURVE",
"207 295 OFFCURVE",
"172 266 CURVE",
"135 232 OFFCURVE",
"113 183 OFFCURVE",
"113 135 CURVE SMOOTH",
"113 102 OFFCURVE",
"124 69 OFFCURVE",
"147 43 CURVE SMOOTH",
"176 11 OFFCURVE",
"219 -4 OFFCURVE",
"261 -4 CURVE SMOOTH",
"302 -4 OFFCURVE",
"344 10 OFFCURVE",
"375 37 CURVE SMOOTH"
);
}
);
width = 549;
}
);
unicode = 002E;
},
{
glyphname = question;
layers = (
{
layerId = UUID0;
paths = (
{
closed = 1;
nodes = (
"623 700 OFFCURVE",
"1065 625 OFFCURVE",
"1065 1083 CURVE SMOOTH",
"1065 1436 OFFCURVE",
"750 1477 OFFCURVE",
"539 1477 CURVE SMOOTH",
"317 1477 OFFCURVE",
"51 1370 OFFCURVE",
"53 1100 CURVE",
"53 979 OFFCURVE",
"106 899 OFFCURVE",
"238 899 CURVE SMOOTH",
"338 899 OFFCURVE",
"371 979 OFFCURVE",
"371 979 CURVE",
"338 1027 OFFCURVE",
"321 1082 OFFCURVE",
"321 1135 CURVE SMOOTH",
"321 1244 OFFCURVE",
"393 1343 OFFCURVE",
"541 1343 CURVE SMOOTH",
"659 1343 OFFCURVE",
"748 1253 OFFCURVE",
"748 1083 CURVE SMOOTH",
"748 765 OFFCURVE",
"402 803 OFFCURVE",
"402 480 CURVE SMOOTH",
"402 460 OFFCURVE",
"403 439 OFFCURVE",
"406 416 CURVE",
"406 416 OFFCURVE",
"438 393 OFFCURVE",
"512 393 CURVE SMOOTH",
"580 393 OFFCURVE",
"623 412 OFFCURVE",
"623 412 CURVE"
);
},
{
closed = 1;
nodes = (
"644 37 OFFCURVE",
"667 90 OFFCURVE",
"667 139 CURVE SMOOTH",
"667 172 OFFCURVE",
"657 203 OFFCURVE",
"635 227 CURVE",
"608 259 OFFCURVE",
"568 275 OFFCURVE",
"527 275 CURVE SMOOTH",
"484 275 OFFCURVE",
"440 258 OFFCURVE",
"406 229 CURVE SMOOTH",
"368 197 OFFCURVE",
"347 148 OFFCURVE",
"347 100 CURVE SMOOTH",
"347 66 OFFCURVE",
"357 34 OFFCURVE",
"381 8 CURVE SMOOTH",
"410 -24 OFFCURVE",
"452 -40 OFFCURVE",
"495 -40 CURVE SMOOTH",
"535 -40 OFFCURVE",
"576 -26 OFFCURVE",
"606 0 CURVE"
);
}
);
width = 1096;
}
);
unicode = 003F;
},
{
glyphname = quotedbl;
layers = (
{
layerId = UUID0;
paths = (
{
closed = 1;
nodes = (
"315 1376 OFFCURVE",
"315 1446 OFFCURVE",
"315 1520 CURVE",
"283 1540 OFFCURVE",
"236 1550 OFFCURVE",
"189 1550 CURVE SMOOTH",
"135 1550 OFFCURVE",
"80 1537 OFFCURVE",
"51 1511 CURVE",
"51 1511 OFFCURVE",
"84 1417 OFFCURVE",
"139 1071 CURVE",
"156 1065 OFFCURVE",
"176 1063 OFFCURVE",
"197 1063 CURVE SMOOTH",
"213 1063 OFFCURVE",
"230 1064 OFFCURVE",
"246 1067 CURVE"
);
},
{
closed = 1;
nodes = (
"684 1376 OFFCURVE",
"684 1446 OFFCURVE",
"684 1520 CURVE",
"651 1540 OFFCURVE",
"604 1550 OFFCURVE",
"557 1550 CURVE SMOOTH",
"503 1550 OFFCURVE",
"449 1537 OFFCURVE",
"420 1511 CURVE",
"420 1511 OFFCURVE",
"453 1417 OFFCURVE",
"508 1071 CURVE",
"525 1065 OFFCURVE",
"545 1063 OFFCURVE",
"566 1063 CURVE SMOOTH",
"582 1063 OFFCURVE",
"598 1064 OFFCURVE",
"614 1067 CURVE"
);
}
);
width = 735;
}
);
unicode = 0022;
},
{
glyphname = quotesingle;
layers = (
{
layerId = UUID0;
paths = (
{
closed = 1;
nodes = (
"315 1376 OFFCURVE",
"315 1446 OFFCURVE",
"315 1520 CURVE",
"283 1540 OFFCURVE",
"236 1550 OFFCURVE",
"189 1550 CURVE SMOOTH",
"135 1550 OFFCURVE",
"80 1537 OFFCURVE",
"51 1511 CURVE",
"51 1511 OFFCURVE",
"84 1417 OFFCURVE",
"139 1071 CURVE",
"156 1065 OFFCURVE",
"176 1063 OFFCURVE",
"197 1063 CURVE SMOOTH",
"213 1063 OFFCURVE",
"230 1064 OFFCURVE",
"246 1067 CURVE"
);
}
);
width = 367;
}
);
unicode = 0027;
},
{
glyphname = semicolon;
layers = (
{
layerId = UUID0;
paths = (
{
closed = 1;
nodes = (
"274 -45 OFFCURVE",
"238 -115 OFFCURVE",
"182 -158 CURVE",
"184 -182 OFFCURVE",
"197 -201 OFFCURVE",
"219 -213 CURVE",
"360 -170 OFFCURVE",
"481 10 OFFCURVE",
"481 143 CURVE SMOOTH",
"481 242 OFFCURVE",
"408 291 OFFCURVE",
"334 291 CURVE SMOOTH",
"229 291 OFFCURVE",
"160 203 OFFCURVE",
"160 106 CURVE SMOOTH",
"160 18 OFFCURVE",
"250 -25 OFFCURVE",
"276 -25 CURVE"
);
},
{
closed = 1;
nodes = (
"454 726 OFFCURVE",
"476 778 OFFCURVE",
"476 828 CURVE SMOOTH",
"476 861 OFFCURVE",
"466 893 OFFCURVE",
"444 918 CURVE SMOOTH",
"416 950 OFFCURVE",
"376 965 OFFCURVE",
"335 965 CURVE SMOOTH",
"292 965 OFFCURVE",
"248 949 OFFCURVE",
"213 920 CURVE",
"176 886 OFFCURVE",
"154 836 OFFCURVE",
"154 788 CURVE SMOOTH",
"154 755 OFFCURVE",
"165 722 OFFCURVE",
"188 696 CURVE SMOOTH",
"217 664 OFFCURVE",
"260 649 OFFCURVE",
"302 649 CURVE SMOOTH",
"343 649 OFFCURVE",
"385 663 OFFCURVE",
"416 690 CURVE"
);
}
);
width = 635;
}
);
unicode = 003B;
},
{
glyphname = slash;
layers = (
{
layerId = UUID0;
paths = (
{
closed = 1;
nodes = (
"874 1704 LINE",
"853 1713 OFFCURVE",
"804 1716 OFFCURVE",
"758 1716 CURVE SMOOTH",
"719 1716 OFFCURVE",
"682 1714 OFFCURVE",
"666 1710 CURVE",
"592 1561 OFFCURVE",
"-8 -174 OFFCURVE",
"-51 -340 CURVE",
"-44 -347 OFFCURVE",
"8 -352 OFFCURVE",
"57 -352 CURVE SMOOTH",
"100 -352 OFFCURVE",
"141 -349 OFFCURVE",
"152 -342 CURVE"
);
}
);
width = 762;
}
);
unicode = 002F;
},
{
glyphname = underscore;
layers = (
{
layerId = UUID0;
paths = (
{
closed = 1;
nodes = (
"1159 -463 LINE",
"1168 -440 OFFCURVE",
"1172 -409 OFFCURVE",
"1172 -380 CURVE SMOOTH",
"1172 -355 OFFCURVE",
"1169 -332 OFFCURVE",
"1165 -317 CURVE",
"1101 -309 OFFCURVE",
"919 -306 OFFCURVE",
"719 -306 CURVE SMOOTH",
"454 -306 OFFCURVE",
"158 -312 OFFCURVE",
"63 -324 CURVE",
"56 -334 OFFCURVE",
"51 -368 OFFCURVE",
"51 -400 CURVE SMOOTH",
"51 -428 OFFCURVE",
"54 -454 OFFCURVE",
"61 -463 CURVE"
);
}
);
width = 1225;
}
);
unicode = 005F;
},
{
glyphname = braceleft;
layers = (
{
layerId = UUID0;
paths = (
{
closed = 1;
nodes = (
"352 649 LINE",
"426 668 OFFCURVE",
"563 715 OFFCURVE",
"563 848 CURVE SMOOTH",
"563 965 OFFCURVE",
"575 1391 OFFCURVE",
"596 1491 CURVE",
"618 1589 OFFCURVE",
"647 1593 OFFCURVE",
"647 1595 CURVE",
"672 1622 OFFCURVE",
"602 1663 OFFCURVE",
"532 1663 CURVE SMOOTH",
"244 1663 OFFCURVE",
"383 1135 OFFCURVE",
"303 770 CURVE",
"256 733 OFFCURVE",
"213 723 OFFCURVE",
"172 715 CURVE",
"161 697 OFFCURVE",
"155 679 OFFCURVE",
"155 661 CURVE SMOOTH",
"155 642 OFFCURVE",
"161 623 OFFCURVE",
"172 604 CURVE",
"207 590 OFFCURVE",
"252 575 OFFCURVE",
"303 524 CURVE",
"383 203 OFFCURVE",
"244 -371 OFFCURVE",
"522 -371 CURVE SMOOTH",
"604 -371 OFFCURVE",
"676 -332 OFFCURVE",
"647 -303 CURVE",
"647 -301 OFFCURVE",
"618 -297 OFFCURVE",
"596 -199 CURVE",
"575 -98 OFFCURVE",
"563 266 OFFCURVE",
"563 424 CURVE SMOOTH",
"563 559 OFFCURVE",
"430 629 OFFCURVE",
"352 643 CURVE"
);
}
);
width = 748;
}
);
unicode = 007B;
},
{
glyphname = braceright;
layers = (
{
layerId = UUID0;
paths = (
{
closed = 1;
nodes = (
"395 643 LINE",
"317 629 OFFCURVE",
"184 559 OFFCURVE",
"184 424 CURVE SMOOTH",
"184 266 OFFCURVE",
"172 -98 OFFCURVE",
"152 -199 CURVE",
"129 -297 OFFCURVE",
"100 -301 OFFCURVE",
"100 -303 CURVE",
"72 -332 OFFCURVE",
"143 -371 OFFCURVE",
"225 -371 CURVE SMOOTH",
"504 -371 OFFCURVE",
"365 203 OFFCURVE",
"444 524 CURVE",
"496 575 OFFCURVE",
"541 590 OFFCURVE",
"575 604 CURVE",
"586 623 OFFCURVE",
"592 642 OFFCURVE",
"592 661 CURVE SMOOTH",
"592 679 OFFCURVE",
"586 697 OFFCURVE",
"575 715 CURVE",
"535 723 OFFCURVE",
"492 733 OFFCURVE",
"444 770 CURVE",
"365 1135 OFFCURVE",
"504 1663 OFFCURVE",
"215 1663 CURVE SMOOTH",
"145 1663 OFFCURVE",
"76 1622 OFFCURVE",
"100 1595 CURVE",
"100 1593 OFFCURVE",
"129 1589 OFFCURVE",
"152 1491 CURVE",
"172 1391 OFFCURVE",
"184 965 OFFCURVE",
"184 848 CURVE SMOOTH",
"184 715 OFFCURVE",
"322 668 OFFCURVE",
"395 649 CURVE"
);
}
);
width = 748;
}
);
unicode = 007D;
},
{
glyphname = bracketleft;
layers = (
{
layerId = UUID0;
paths = (
{
closed = 1;
nodes = (
"253 -372 OFFCURVE",
"324 -375 OFFCURVE",
"394 -375 CURVE SMOOTH",
"469 -375 OFFCURVE",
"544 -371 OFFCURVE",
"618 -365 CURVE",
"622 -344 OFFCURVE",
"625 -322 OFFCURVE",
"625 -300 CURVE SMOOTH",
"625 -278 OFFCURVE",
"622 -255 OFFCURVE",
"618 -231 CURVE",
"426 -231 LINE",
"416 19 OFFCURVE",
"412 318 OFFCURVE",
"412 619 CURVE SMOOTH",
"412 936 OFFCURVE",
"417 1257 OFFCURVE",
"426 1526 CURVE",
"618 1526 LINE",
"622 1548 OFFCURVE",
"625 1570 OFFCURVE",
"625 1592 CURVE SMOOTH",
"625 1614 OFFCURVE",
"622 1636 OFFCURVE",
"618 1659 CURVE",
"541 1665 OFFCURVE",
"468 1667 OFFCURVE",
"399 1667 CURVE SMOOTH",
"323 1667 OFFCURVE",
"252 1664 OFFCURVE",
"182 1659 CURVE",
"162 1347 OFFCURVE",
"153 999 OFFCURVE",
"153 658 CURVE SMOOTH",
"153 289 OFFCURVE",
"164 -70 OFFCURVE",
"182 -365 CURVE"
);
}
);
width = 717;
}
);
unicode = 005B;
},
{
glyphname = bracketright;
layers = (
{
layerId = UUID0;
paths = (
{
closed = 1;
nodes = (
"553 -70 OFFCURVE",
"563 290 OFFCURVE",
"563 659 CURVE SMOOTH",
"563 999 OFFCURVE",
"554 1348 OFFCURVE",
"535 1659 CURVE",
"465 1664 OFFCURVE",
"393 1667 OFFCURVE",
"317 1667 CURVE SMOOTH",
"248 1667 OFFCURVE",
"175 1665 OFFCURVE",
"98 1659 CURVE",
"94 1636 OFFCURVE",
"92 1614 OFFCURVE",
"92 1592 CURVE SMOOTH",
"92 1570 OFFCURVE",
"94 1548 OFFCURVE",
"98 1526 CURVE",
"291 1526 LINE",
"300 1257 OFFCURVE",
"305 936 OFFCURVE",
"305 619 CURVE SMOOTH",
"305 318 OFFCURVE",
"301 19 OFFCURVE",
"291 -231 CURVE",
"98 -231 LINE",
"94 -255 OFFCURVE",
"92 -278 OFFCURVE",
"92 -300 CURVE SMOOTH",
"92 -322 OFFCURVE",
"94 -344 OFFCURVE",
"98 -365 CURVE",
"173 -371 OFFCURVE",
"247 -375 OFFCURVE",
"323 -375 CURVE SMOOTH",
"393 -375 OFFCURVE",
"464 -372 OFFCURVE",
"535 -365 CURVE"
);
}
);
width = 717;
}
);
unicode = 005D;
},
{
glyphname = parenleft;
layers = (
{
layerId = UUID0;
paths = (
{
closed = 1;
nodes = (
"610 1681 OFFCURVE",
"565 1692 OFFCURVE",
"522 1692 CURVE SMOOTH",
"522 1692 OFFCURVE",
"154 1198 OFFCURVE",
"154 629 CURVE SMOOTH",
"154 63 OFFCURVE",
"522 -412 OFFCURVE",
"522 -412 CURVE",
"561 -412 OFFCURVE",
"606 -397 OFFCURVE",
"629 -348 CURVE",
"629 -348 OFFCURVE",
"416 94 OFFCURVE",
"416 616 CURVE SMOOTH",
"416 1114 OFFCURVE",
"639 1624 OFFCURVE",
"641 1632 CURVE"
);
}
);
width = 733;
}
);
unicode = 0028;
},
{
glyphname = parenright;
layers = (
{
layerId = UUID0;
paths = (
{
closed = 1;
nodes = (
"94 1624 OFFCURVE",
"317 1114 OFFCURVE",
"317 616 CURVE SMOOTH",
"317 94 OFFCURVE",
"104 -348 OFFCURVE",
"104 -348 CURVE",
"127 -397 OFFCURVE",
"172 -412 OFFCURVE",
"211 -412 CURVE SMOOTH",
"211 -412 OFFCURVE",
"580 63 OFFCURVE",
"580 629 CURVE SMOOTH",
"580 1198 OFFCURVE",
"211 1692 OFFCURVE",
"211 1692 CURVE",
"168 1692 OFFCURVE",
"123 1681 OFFCURVE",
"92 1632 CURVE"
);
}
);
width = 733;
}
);
unicode = 0029;
},
{
glyphname = emdash;
layers = (
{
layerId = UUID0;
paths = (
{
closed = 1;
nodes = (
"1241 686 LINE",
"1250 709 OFFCURVE",
"1253 740 OFFCURVE",
"1253 769 CURVE SMOOTH",
"1253 793 OFFCURVE",
"1251 816 OFFCURVE",
"1247 831 CURVE",
"1182 839 OFFCURVE",
"994 843 OFFCURVE",
"790 843 CURVE SMOOTH",
"528 843 OFFCURVE",
"238 837 OFFCURVE",
"145 825 CURVE",
"138 815 OFFCURVE",
"133 781 OFFCURVE",
"133 749 CURVE SMOOTH",
"133 721 OFFCURVE",
"136 695 OFFCURVE",
"143 686 CURVE"
);
}
);
width = 1389;
}
);
unicode = 2014;
},
{
glyphname = endash;
layers = (
{
layerId = UUID0;
paths = (
{
closed = 1;
nodes = (
"899 686 LINE",
"908 709 OFFCURVE",
"911 743 OFFCURVE",
"911 775 CURVE SMOOTH",
"911 802 OFFCURVE",
"909 827 OFFCURVE",
"905 842 CURVE",
"861 848 OFFCURVE",
"742 851 OFFCURVE",
"610 851 CURVE SMOOTH",
"426 851 OFFCURVE",
"217 845 OFFCURVE",
"145 836 CURVE",
"139 829 OFFCURVE",
"135 789 OFFCURVE",
"135 752 CURVE SMOOTH",
"135 721 OFFCURVE",
"137 692 OFFCURVE",
"143 686 CURVE"
);
}
);
width = 1047;
}
);
unicode = 2013;
},
{
glyphname = hyphen;
layers = (
{
layerId = UUID0;
paths = (
{
closed = 1;
nodes = (
"735 653 LINE",
"747 683 OFFCURVE",
"751 722 OFFCURVE",
"751 759 CURVE SMOOTH",
"751 789 OFFCURVE",
"748 817 OFFCURVE",
"743 836 CURVE",
"686 843 OFFCURVE",
"590 847 OFFCURVE",
"487 847 CURVE SMOOTH",
"355 847 OFFCURVE",
"213 841 OFFCURVE",
"129 829 CURVE",
"120 817 OFFCURVE",
"114 775 OFFCURVE",
"114 735 CURVE SMOOTH",
"114 699 OFFCURVE",
"118 664 OFFCURVE",
"127 653 CURVE"
);
}
);
width = 864;
}
);
unicode = 002D;
},
{
glyphname = softhyphen;
layers = (
{
layerId = UUID0;
paths = (
{
closed = 1;
nodes = (
"743 653 LINE",
"755 683 OFFCURVE",
"759 724 OFFCURVE",
"759 761 CURVE SMOOTH",
"759 790 OFFCURVE",
"756 818 OFFCURVE",
"752 836 CURVE",
"695 843 OFFCURVE",
"599 847 OFFCURVE",
"496 847 CURVE SMOOTH",
"364 847 OFFCURVE",
"221 841 OFFCURVE",
"137 829 CURVE",
"128 817 OFFCURVE",
"122 775 OFFCURVE",
"122 735 CURVE SMOOTH",
"122 699 OFFCURVE",
"126 664 OFFCURVE",
"135 653 CURVE"
);
}
);
width = 936;
}
);
unicode = 00AD;
},
{
glyphname = guillemetleft;
layers = (
{
layerId = UUID0;
paths = (
{
closed = 1;
nodes = (
"909 283 OFFCURVE",
"940 317 OFFCURVE",
"952 344 CURVE",
"692 664 LINE",
"971 993 LINE",
"952 1032 OFFCURVE",
"911 1077 OFFCURVE",
"877 1087 CURVE",
"733 940 OFFCURVE",
"512 735 OFFCURVE",
"512 674 CURVE SMOOTH",
"512 614 OFFCURVE",
"678 475 OFFCURVE",
"870 272 CURVE"
);
},
{
closed = 1;
nodes = (
"231 506 OFFCURVE",
"410 332 OFFCURVE",
"565 199 CURVE",
"604 209 OFFCURVE",
"635 244 OFFCURVE",
"647 270 CURVE",
"489 453 OFFCURVE",
"350 604 OFFCURVE",
"350 670 CURVE SMOOTH",
"350 725 OFFCURVE",
"514 893 OFFCURVE",
"692 1087 CURVE",
"674 1126 OFFCURVE",
"633 1171 OFFCURVE",
"598 1182 CURVE",
"481 1077 OFFCURVE",
"264 881 OFFCURVE",
"170 760 CURVE SMOOTH",
"148 732 OFFCURVE",
"135 702 OFFCURVE",
"135 672 CURVE SMOOTH",
"135 650 OFFCURVE",
"142 627 OFFCURVE",
"158 606 CURVE SMOOTH"
);
}
);
width = 1063;
}
);
unicode = 00AB;
},
{
glyphname = guillemetright;
layers = (
{
layerId = UUID0;
paths = (
{
closed = 1;
nodes = (
"385 475 OFFCURVE",
"551 614 OFFCURVE",
"551 674 CURVE SMOOTH",
"551 735 OFFCURVE",
"330 940 OFFCURVE",
"186 1087 CURVE",
"152 1077 OFFCURVE",
"111 1032 OFFCURVE",
"92 993 CURVE",
"371 664 LINE",
"111 344 LINE",
"123 317 OFFCURVE",
"154 283 OFFCURVE",
"193 272 CURVE"
);
},
{
closed = 1;
nodes = (
"921 627 OFFCURVE",
"928 650 OFFCURVE",
"928 672 CURVE SMOOTH",
"928 702 OFFCURVE",
"915 732 OFFCURVE",
"893 760 CURVE SMOOTH",
"799 881 OFFCURVE",
"582 1077 OFFCURVE",
"465 1182 CURVE",
"430 1171 OFFCURVE",
"389 1126 OFFCURVE",
"371 1087 CURVE",
"549 893 OFFCURVE",
"713 725 OFFCURVE",
"713 670 CURVE SMOOTH",
"713 604 OFFCURVE",
"573 453 OFFCURVE",
"416 270 CURVE",
"428 244 OFFCURVE",
"459 209 OFFCURVE",
"498 199 CURVE",
"653 332 OFFCURVE",
"831 506 OFFCURVE",
"905 606 CURVE SMOOTH"
);
}
);
width = 1063;
}
);
unicode = 00BB;
},
{
glyphname = guilsinglleft;
layers = (
{
background = {
paths = (
{
closed = 1;
nodes = (
"909 283 OFFCURVE",
"940 317 OFFCURVE",
"952 344 CURVE",
"692 664 LINE",
"971 993 LINE",
"952 1032 OFFCURVE",
"911 1077 OFFCURVE",
"877 1087 CURVE",
"733 940 OFFCURVE",
"512 735 OFFCURVE",
"512 674 CURVE SMOOTH",
"512 614 OFFCURVE",
"678 475 OFFCURVE",
"870 272 CURVE"
);
},
{
closed = 1;
nodes = (
"231 506 OFFCURVE",
"410 332 OFFCURVE",
"565 199 CURVE",
"604 209 OFFCURVE",
"635 244 OFFCURVE",
"647 270 CURVE",
"489 453 OFFCURVE",
"350 604 OFFCURVE",
"350 670 CURVE SMOOTH",
"350 725 OFFCURVE",
"514 893 OFFCURVE",
"692 1087 CURVE",
"674 1126 OFFCURVE",
"633 1171 OFFCURVE",
"598 1182 CURVE",
"481 1077 OFFCURVE",
"264 881 OFFCURVE",
"170 760 CURVE SMOOTH",
"131 711 OFFCURVE",
"121 655 OFFCURVE",
"158 606 CURVE SMOOTH"
);
}
);
};
layerId = UUID0;
paths = (
{
closed = 1;
nodes = (
"231 506 OFFCURVE",
"410 332 OFFCURVE",
"565 199 CURVE",
"604 209 OFFCURVE",
"635 244 OFFCURVE",
"647 270 CURVE",
"489 453 OFFCURVE",
"350 604 OFFCURVE",
"350 670 CURVE SMOOTH",
"350 725 OFFCURVE",
"514 893 OFFCURVE",
"692 1087 CURVE",
"674 1126 OFFCURVE",
"633 1171 OFFCURVE",
"598 1182 CURVE",
"481 1077 OFFCURVE",
"264 881 OFFCURVE",
"170 760 CURVE SMOOTH",
"148 732 OFFCURVE",
"135 702 OFFCURVE",
"135 672 CURVE SMOOTH",
"135 650 OFFCURVE",
"142 627 OFFCURVE",
"158 606 CURVE SMOOTH"
);
}
);
width = 784;
}
);
unicode = 2039;
},
{
glyphname = guilsinglright;
layers = (
{
layerId = UUID0;
paths = (
{
closed = 1;
nodes = (
"643 627 OFFCURVE",
"650 649 OFFCURVE",
"650 671 CURVE SMOOTH",
"650 701 OFFCURVE",
"637 732 OFFCURVE",
"614 760 CURVE",
"520 881 OFFCURVE",
"303 1077 OFFCURVE",
"186 1182 CURVE",
"152 1171 OFFCURVE",
"111 1126 OFFCURVE",
"92 1087 CURVE",
"270 893 OFFCURVE",
"434 725 OFFCURVE",
"434 670 CURVE SMOOTH",
"434 604 OFFCURVE",
"295 453 OFFCURVE",
"137 270 CURVE",
"150 244 OFFCURVE",
"180 209 OFFCURVE",
"219 199 CURVE",
"375 332 OFFCURVE",
"553 506 OFFCURVE",
"627 606 CURVE SMOOTH"
);
}
);
width = 784;
}
);
unicode = 203A;
},
{
glyphname = quotedblbase;
layers = (
{
layerId = UUID0;
paths = (
{
closed = 1;
nodes = (
"504 -45 OFFCURVE",
"467 -115 OFFCURVE",
"412 -158 CURVE",
"414 -182 OFFCURVE",
"426 -201 OFFCURVE",
"449 -213 CURVE",
"590 -170 OFFCURVE",
"711 10 OFFCURVE",
"711 143 CURVE SMOOTH",
"711 242 OFFCURVE",
"637 291 OFFCURVE",
"563 291 CURVE SMOOTH",
"459 291 OFFCURVE",
"389 203 OFFCURVE",
"389 106 CURVE SMOOTH",
"389 18 OFFCURVE",
"479 -25 OFFCURVE",
"506 -25 CURVE"
);
},
{
closed = 1;
nodes = (
"145 -45 OFFCURVE",
"109 -115 OFFCURVE",
"53 -158 CURVE",
"55 -182 OFFCURVE",
"68 -201 OFFCURVE",
"90 -213 CURVE",
"231 -170 OFFCURVE",
"352 10 OFFCURVE",
"352 143 CURVE SMOOTH",
"352 242 OFFCURVE",
"279 291 OFFCURVE",
"205 291 CURVE SMOOTH",
"100 291 OFFCURVE",
"31 203 OFFCURVE",
"31 106 CURVE SMOOTH",
"31 18 OFFCURVE",
"121 -25 OFFCURVE",
"147 -25 CURVE"
);
}
);
width = 803;
}
);
unicode = 201E;
},
{
glyphname = quotedblleft;
layers = (
{
layerId = UUID0;
paths = (
{
closed = 1;
nodes = (
"299 1374 OFFCURVE",
"336 1444 OFFCURVE",
"391 1487 CURVE",
"389 1511 OFFCURVE",
"377 1530 OFFCURVE",
"354 1542 CURVE",
"213 1499 OFFCURVE",
"92 1319 OFFCURVE",
"92 1186 CURVE SMOOTH",
"92 1087 OFFCURVE",
"166 1038 OFFCURVE",
"240 1038 CURVE SMOOTH",
"344 1038 OFFCURVE",
"414 1126 OFFCURVE",
"414 1223 CURVE SMOOTH",
"414 1311 OFFCURVE",
"324 1354 OFFCURVE",
"297 1354 CURVE"
);
},
{
closed = 1;
nodes = (
"657 1374 OFFCURVE",
"694 1444 OFFCURVE",
"750 1487 CURVE",
"748 1511 OFFCURVE",
"735 1530 OFFCURVE",
"713 1542 CURVE",
"571 1499 OFFCURVE",
"451 1319 OFFCURVE",
"451 1186 CURVE SMOOTH",
"451 1087 OFFCURVE",
"524 1038 OFFCURVE",
"598 1038 CURVE SMOOTH",
"702 1038 OFFCURVE",
"772 1126 OFFCURVE",
"772 1223 CURVE SMOOTH",
"772 1311 OFFCURVE",
"682 1354 OFFCURVE",
"655 1354 CURVE"
);
}
);
width = 803;
}
);
unicode = 201C;
},
{
glyphname = quotedblright;
layers = (
{
layerId = UUID0;
paths = (
{
closed = 1;
nodes = (
"504 1206 OFFCURVE",
"467 1137 OFFCURVE",
"412 1094 CURVE",
"414 1069 OFFCURVE",
"426 1051 OFFCURVE",
"449 1038 CURVE",
"590 1081 OFFCURVE",
"711 1262 OFFCURVE",
"711 1395 CURVE SMOOTH",
"711 1493 OFFCURVE",
"637 1542 OFFCURVE",
"563 1542 CURVE SMOOTH",
"459 1542 OFFCURVE",
"389 1454 OFFCURVE",
"389 1358 CURVE SMOOTH",
"389 1270 OFFCURVE",
"479 1227 OFFCURVE",
"506 1227 CURVE"
);
},
{
closed = 1;
nodes = (
"145 1206 OFFCURVE",
"109 1137 OFFCURVE",
"53 1094 CURVE",
"55 1069 OFFCURVE",
"68 1051 OFFCURVE",
"90 1038 CURVE",
"231 1081 OFFCURVE",
"352 1262 OFFCURVE",
"352 1395 CURVE SMOOTH",
"352 1493 OFFCURVE",
"279 1542 OFFCURVE",
"205 1542 CURVE SMOOTH",
"100 1542 OFFCURVE",
"31 1454 OFFCURVE",
"31 1358 CURVE SMOOTH",
"31 1270 OFFCURVE",
"121 1227 OFFCURVE",
"147 1227 CURVE"
);
}
);
width = 803;
}
);
unicode = 201D;
},
{
glyphname = quoteleft;
layers = (
{
layerId = UUID0;
paths = (
{
closed = 1;
nodes = (
"299 1374 OFFCURVE",
"336 1444 OFFCURVE",
"391 1487 CURVE",
"389 1511 OFFCURVE",
"377 1530 OFFCURVE",
"354 1542 CURVE",
"213 1499 OFFCURVE",
"92 1319 OFFCURVE",
"92 1186 CURVE SMOOTH",
"92 1087 OFFCURVE",
"166 1038 OFFCURVE",
"240 1038 CURVE SMOOTH",
"344 1038 OFFCURVE",
"414 1126 OFFCURVE",
"414 1223 CURVE SMOOTH",
"414 1311 OFFCURVE",
"324 1354 OFFCURVE",
"297 1354 CURVE"
);
}
);
width = 444;
}
);
unicode = 2018;
},
{
glyphname = quoteright;
layers = (
{
layerId = UUID0;
paths = (
{
closed = 1;
nodes = (
"186 1163 OFFCURVE",
"150 1094 OFFCURVE",
"94 1051 CURVE",
"96 1026 OFFCURVE",
"109 1008 OFFCURVE",
"131 995 CURVE",
"272 1038 OFFCURVE",
"393 1219 OFFCURVE",
"393 1352 CURVE SMOOTH",
"393 1450 OFFCURVE",
"319 1499 OFFCURVE",
"246 1499 CURVE SMOOTH",
"141 1499 OFFCURVE",
"72 1411 OFFCURVE",
"72 1315 CURVE SMOOTH",
"72 1227 OFFCURVE",
"162 1184 OFFCURVE",
"188 1184 CURVE"
);
}
);
width = 485;
}
);
unicode = 2019;
},
{
glyphname = quotesinglbase;
layers = (
{
layerId = UUID0;
paths = (
{
closed = 1;
nodes = (
"145 -45 OFFCURVE",
"109 -115 OFFCURVE",
"53 -158 CURVE",
"55 -182 OFFCURVE",
"68 -201 OFFCURVE",
"90 -213 CURVE",
"231 -170 OFFCURVE",
"352 10 OFFCURVE",
"352 143 CURVE SMOOTH",
"352 242 OFFCURVE",
"279 291 OFFCURVE",
"205 291 CURVE SMOOTH",
"100 291 OFFCURVE",
"31 203 OFFCURVE",
"31 106 CURVE SMOOTH",
"31 18 OFFCURVE",
"121 -25 OFFCURVE",
"147 -25 CURVE"
);
}
);
width = 444;
}
);
unicode = 201A;
},
{
glyphname = .notdef;
layers = (
{
background = {
paths = (
{
closed = 1;
nodes = (
"1382 473 OFFCURVE",
"1389 557 OFFCURVE",
"1382 596 CURVE SMOOTH",
"1380 606 OFFCURVE",
"1378 600 OFFCURVE",
"1378 596 CURVE SMOOTH",
"1368 543 OFFCURVE",
"1350 510 OFFCURVE",
"1327 492 CURVE",
"1311 516 OFFCURVE",
"1305 545 OFFCURVE",
"1305 582 CURVE",
"1343 598 OFFCURVE",
"1364 672 OFFCURVE",
"1364 731 CURVE SMOOTH",
"1364 797 OFFCURVE",
"1348 823 OFFCURVE",
"1286 834 CURVE",
"1245 758 OFFCURVE",
"1233 627 OFFCURVE",
"1253 528 CURVE SMOOTH",
"1255 522 LINE",
"1249 514 OFFCURVE",
"1239 489 OFFCURVE",
"1227 492 CURVE",
"1212 545 OFFCURVE",
"1217 631 OFFCURVE",
"1225 686 CURVE",
"1217 696 OFFCURVE",
"1190 705 OFFCURVE",
"1178 702 CURVE",
"1176 698 OFFCURVE",
"1169 672 OFFCURVE",
"1169 666 CURVE",
"1155 670 OFFCURVE",
"1141 672 OFFCURVE",
"1130 672 CURVE",
"1104 645 OFFCURVE",
"1098 610 OFFCURVE",
"1096 573 CURVE SMOOTH",
"1096 545 LINE",
"1087 526 OFFCURVE",
"1075 504 OFFCURVE",
"1057 494 CURVE",
"1049 502 OFFCURVE",
"1042 516 OFFCURVE",
"1038 530 CURVE",
"1067 541 OFFCURVE",
"1083 580 OFFCURVE",
"1083 614 CURVE SMOOTH",
"1083 668 OFFCURVE",
"1051 686 OFFCURVE",
"1006 682 CURVE",
"993 662 OFFCURVE",
"985 614 OFFCURVE",
"983 575 CURVE SMOOTH",
"981 524 OFFCURVE",
"999 479 OFFCURVE",
"1055 479 CURVE",
"1079 481 OFFCURVE",
"1094 496 OFFCURVE",
"1102 510 CURVE",
"1108 492 OFFCURVE",
"1122 477 OFFCURVE",
"1151 479 CURVE SMOOTH",
"1163 479 OFFCURVE",
"1182 489 OFFCURVE",
"1186 506 CURVE",
"1190 489 OFFCURVE",
"1206 473 OFFCURVE",
"1227 473 CURVE SMOOTH",
"1245 473 OFFCURVE",
"1257 487 OFFCURVE",
"1262 506 CURVE",
"1274 483 OFFCURVE",
"1292 473 OFFCURVE",
"1319 473 CURVE SMOOTH"
);
},
{
closed = 1;
nodes = (
"801 694 OFFCURVE",
"772 705 OFFCURVE",
"754 702 CURVE",
"758 662 OFFCURVE",
"774 584 OFFCURVE",
"760 518 CURVE SMOOTH",
"758 514 OFFCURVE",
"756 506 OFFCURVE",
"750 504 CURVE",
"735 553 OFFCURVE",
"735 606 OFFCURVE",
"737 662 CURVE",
"723 676 OFFCURVE",
"698 680 OFFCURVE",
"686 682 CURVE",
"682 672 OFFCURVE",
"678 651 OFFCURVE",
"678 627 CURVE SMOOTH",
"678 598 OFFCURVE",
"680 569 OFFCURVE",
"686 545 CURVE",
"680 526 OFFCURVE",
"662 498 OFFCURVE",
"633 487 CURVE",
"567 537 OFFCURVE",
"592 748 OFFCURVE",
"627 782 CURVE",
"635 770 OFFCURVE",
"647 727 OFFCURVE",
"643 698 CURVE",
"641 696 OFFCURVE",
"641 690 OFFCURVE",
"647 696 CURVE SMOOTH",
"668 713 OFFCURVE",
"682 735 OFFCURVE",
"682 760 CURVE SMOOTH",
"682 825 OFFCURVE",
"633 838 OFFCURVE",
"600 844 CURVE",
"543 795 OFFCURVE",
"522 707 OFFCURVE",
"524 623 CURVE SMOOTH",
"526 547 OFFCURVE",
"555 471 OFFCURVE",
"637 471 CURVE SMOOTH",
"672 471 OFFCURVE",
"688 494 OFFCURVE",
"696 516 CURVE",
"707 492 OFFCURVE",
"725 477 OFFCURVE",
"752 477 CURVE SMOOTH",
"756 477 OFFCURVE",
"764 483 OFFCURVE",
"766 487 CURVE",
"758 418 OFFCURVE",
"756 371 OFFCURVE",
"713 342 CURVE",
"707 365 OFFCURVE",
"711 389 OFFCURVE",
"715 410 CURVE",
"700 424 OFFCURVE",
"680 430 OFFCURVE",
"662 430 CURVE",
"657 416 OFFCURVE",
"653 399 OFFCURVE",
"653 383 CURVE SMOOTH",
"653 344 OFFCURVE",
"664 324 OFFCURVE",
"702 324 CURVE SMOOTH",
"805 324 OFFCURVE",
"836 510 OFFCURVE",
"815 678 CURVE"
);
},
{
closed = 1;
nodes = (
"823 686 LINE",
"846 631 OFFCURVE",
"848 539 OFFCURVE",
"852 475 CURVE",
"877 471 OFFCURVE",
"891 487 OFFCURVE",
"895 508 CURVE",
"901 522 OFFCURVE",
"901 555 OFFCURVE",
"901 571 CURVE",
"907 592 OFFCURVE",
"920 606 OFFCURVE",
"928 621 CURVE",
"930 592 OFFCURVE",
"948 580 OFFCURVE",
"977 588 CURVE",
"973 612 OFFCURVE",
"975 647 OFFCURVE",
"981 674 CURVE",
"971 686 OFFCURVE",
"950 694 OFFCURVE",
"928 694 CURVE",
"926 686 OFFCURVE",
"920 670 OFFCURVE",
"920 662 CURVE",
"915 645 OFFCURVE",
"909 631 OFFCURVE",
"895 608 CURVE",
"893 637 OFFCURVE",
"889 657 OFFCURVE",
"879 672 CURVE",
"872 680 LINE",
"858 682 LINE",
"844 686 LINE"
);
},
{
closed = 1;
nodes = (
"1137 541 OFFCURVE",
"1149 623 OFFCURVE",
"1165 641 CURVE",
"1163 623 OFFCURVE",
"1163 573 OFFCURVE",
"1174 535 CURVE",
"1171 520 OFFCURVE",
"1157 506 OFFCURVE",
"1149 498 CURVE"
);
},
{
closed = 1;
nodes = (
"1307 662 OFFCURVE",
"1317 723 OFFCURVE",
"1327 766 CURVE",
"1335 725 OFFCURVE",
"1327 641 OFFCURVE",
"1305 606 CURVE"
);
},
{
closed = 1;
nodes = (
"1057 637 OFFCURVE",
"1063 625 OFFCURVE",
"1063 608 CURVE SMOOTH",
"1063 582 OFFCURVE",
"1053 553 OFFCURVE",
"1038 549 CURVE",
"1038 584 OFFCURVE",
"1042 614 OFFCURVE",
"1051 643 CURVE"
);
},
{
closed = 1;
nodes = (
"911 201 LINE",
"909 193 OFFCURVE",
"893 162 OFFCURVE",
"872 162 CURVE",
"885 152 OFFCURVE",
"895 141 OFFCURVE",
"895 131 CURVE SMOOTH",
"895 117 OFFCURVE",
"805 100 OFFCURVE",
"717 53 CURVE",
"758 41 OFFCURVE",
"778 39 OFFCURVE",
"805 10 CURVE",
"803 -2 OFFCURVE",
"799 2 OFFCURVE",
"793 -2 CURVE",
"745 20 OFFCURVE",
"733 25 OFFCURVE",
"688 27 CURVE SMOOTH",
"637 29 OFFCURVE",
"594 -2 OFFCURVE",
"557 -39 CURVE",
"551 -37 OFFCURVE",
"543 -35 OFFCURVE",
"539 -27 CURVE",
"559 6 OFFCURVE",
"588 23 OFFCURVE",
"614 35 CURVE",
"563 39 OFFCURVE",
"532 27 OFFCURVE",
"496 8 CURVE",
"489 12 OFFCURVE",
"487 12 OFFCURVE",
"487 23 CURVE",
"549 68 OFFCURVE",
"614 59 OFFCURVE",
"657 59 CURVE",
"719 90 OFFCURVE",
"791 117 OFFCURVE",
"852 137 CURVE",
"827 162 LINE",
"799 162 OFFCURVE",
"791 199 OFFCURVE",
"791 211 CURVE",
"518 250 OFFCURVE",
"373 389 OFFCURVE",
"356 637 CURVE SMOOTH",
"346 793 OFFCURVE",
"338 903 OFFCURVE",
"248 956 CURVE",
"74 989 LINE",
"74 989 OFFCURVE",
"61 989 OFFCURVE",
"68 999 CURVE",
"195 1059 LINE",
"195 1159 OFFCURVE",
"283 1268 OFFCURVE",
"416 1268 CURVE SMOOTH",
"532 1268 OFFCURVE",
"612 1210 OFFCURVE",
"694 1067 CURVE",
"754 981 OFFCURVE",
"1161 965 OFFCURVE",
"1626 872 CURVE",
"1712 877 OFFCURVE",
"2281 938 OFFCURVE",
"2296 938 CURVE",
"2316 942 OFFCURVE",
"2327 909 OFFCURVE",
"2308 893 CURVE SMOOTH",
"2183 778 OFFCURVE",
"1868 795 OFFCURVE",
"1782 707 CURVE SMOOTH",
"1655 575 OFFCURVE",
"1473 334 OFFCURVE",
"1200 240 CURVE",
"1202 223 OFFCURVE",
"1204 193 OFFCURVE",
"1186 174 CURVE",
"1202 162 OFFCURVE",
"1212 158 OFFCURVE",
"1212 145 CURVE SMOOTH",
"1212 123 OFFCURVE",
"1128 88 OFFCURVE",
"1059 29 CURVE",
"1102 27 OFFCURVE",
"1143 25 OFFCURVE",
"1176 4 CURVE",
"1176 -2 OFFCURVE",
"1176 -4 OFFCURVE",
"1169 -12 CURVE",
"1118 0 OFFCURVE",
"1073 4 OFFCURVE",
"1026 -2 CURVE",
"977 -12 OFFCURVE",
"944 -55 OFFCURVE",
"918 -98 CURVE",
"907 -100 OFFCURVE",
"903 -98 OFFCURVE",
"901 -90 CURVE",
"911 -53 OFFCURVE",
"930 -27 OFFCURVE",
"956 -10 CURVE",
"903 -18 OFFCURVE",
"889 -29 OFFCURVE",
"856 -57 CURVE",
"850 -53 OFFCURVE",
"846 -53 OFFCURVE",
"846 -43 CURVE",
"893 20 OFFCURVE",
"950 14 OFFCURVE",
"993 25 CURVE",
"1051 70 OFFCURVE",
"1112 106 OFFCURVE",
"1165 141 CURVE",
"1161 147 OFFCURVE",
"1149 154 OFFCURVE",
"1135 162 CURVE",
"1102 158 OFFCURVE",
"1083 193 OFFCURVE",
"1079 209 CURVE",
"1042 203 OFFCURVE",
"1006 201 OFFCURVE",
"967 201 CURVE SMOOTH"
);
}
);
};
layerId = UUID0;
paths = (
{
closed = 1;
nodes = (
"1356 324 LINE",
"1366 326 OFFCURVE",
"1413 383 OFFCURVE",
"1411 393 CURVE",
"1378 424 OFFCURVE",
"1307 481 OFFCURVE",
"1227 553 CURVE",
"1292 641 OFFCURVE",
"1350 713 OFFCURVE",
"1376 752 CURVE",
"1360 766 OFFCURVE",
"1327 793 OFFCURVE",
"1300 805 CURVE",
"1149 614 LINE",
"1067 680 OFFCURVE",
"989 737 OFFCURVE",
"950 764 CURVE",
"936 748 OFFCURVE",
"909 717 OFFCURVE",
"897 684 CURVE",
"1083 537 LINE",
"936 346 LINE",
"938 334 OFFCURVE",
"995 289 OFFCURVE",
"1006 291 CURVE",
"1165 471 LINE"
);
},
{
closed = 1;
nodes = (
"1804 965 LINE",
"1802 967 LINE",
"1800 764 OFFCURVE",
"1739 442 OFFCURVE",
"1309 150 CURVE",
"1309 135 OFFCURVE",
"1303 100 OFFCURVE",
"1272 100 CURVE",
"1247 76 LINE",
"1311 53 OFFCURVE",
"1378 29 OFFCURVE",
"1442 -2 CURVE",
"1455 -2 OFFCURVE",
"1469 -1 OFFCURVE",
"1485 -1 CURVE SMOOTH",
"1522 -1 OFFCURVE",
"1567 -6 OFFCURVE",
"1612 -39 CURVE",
"1612 -49 OFFCURVE",
"1610 -47 OFFCURVE",
"1604 -53 CURVE",
"1565 -35 OFFCURVE",
"1536 -20 OFFCURVE",
"1485 -27 CURVE",
"1511 -41 OFFCURVE",
"1538 -55 OFFCURVE",
"1561 -88 CURVE",
"1559 -94 OFFCURVE",
"1552 -98 OFFCURVE",
"1542 -100 CURVE",
"1503 -61 OFFCURVE",
"1462 -33 OFFCURVE",
"1411 -35 CURVE",
"1366 -35 OFFCURVE",
"1354 -43 OFFCURVE",
"1307 -63 CURVE",
"1300 -57 OFFCURVE",
"1296 -66 OFFCURVE",
"1294 -51 CURVE",
"1321 -20 OFFCURVE",
"1341 -23 OFFCURVE",
"1382 -8 CURVE",
"1294 41 OFFCURVE",
"1204 53 OFFCURVE",
"1204 70 CURVE SMOOTH",
"1204 78 OFFCURVE",
"1212 88 OFFCURVE",
"1227 100 CURVE",
"1204 100 OFFCURVE",
"1190 131 OFFCURVE",
"1188 139 CURVE",
"1133 139 LINE SMOOTH",
"1094 139 OFFCURVE",
"1059 141 OFFCURVE",
"1020 147 CURVE",
"1014 131 OFFCURVE",
"997 94 OFFCURVE",
"965 100 CURVE",
"950 92 OFFCURVE",
"940 86 OFFCURVE",
"934 80 CURVE",
"989 45 OFFCURVE",
"1049 10 OFFCURVE",
"1106 -37 CURVE",
"1151 -47 OFFCURVE",
"1206 -41 OFFCURVE",
"1253 -104 CURVE",
"1253 -115 OFFCURVE",
"1249 -113 OFFCURVE",
"1243 -119 CURVE",
"1210 -88 OFFCURVE",
"1198 -80 OFFCURVE",
"1143 -72 CURVE",
"1169 -88 OFFCURVE",
"1188 -115 OFFCURVE",
"1198 -152 CURVE",
"1196 -158 OFFCURVE",
"1192 -162 OFFCURVE",
"1182 -160 CURVE",
"1155 -117 OFFCURVE",
"1122 -74 OFFCURVE",
"1073 -63 CURVE",
"1060 -61 OFFCURVE",
"1046 -60 OFFCURVE",
"1032 -60 CURVE SMOOTH",
"1000 -60 OFFCURVE",
"965 -65 OFFCURVE",
"930 -74 CURVE",
"926 -68 OFFCURVE",
"924 -63 OFFCURVE",
"924 -57 CURVE",
"956 -35 OFFCURVE",
"997 -35 OFFCURVE",
"1040 -33 CURVE",
"971 25 OFFCURVE",
"887 61 OFFCURVE",
"887 84 CURVE SMOOTH",
"887 98 OFFCURVE",
"897 98 OFFCURVE",
"913 113 CURVE",
"895 131 OFFCURVE",
"897 162 OFFCURVE",
"899 178 CURVE",
"659 309 OFFCURVE",
"537 520 OFFCURVE",
"461 645 CURVE",
"315 694 OFFCURVE",
"168 739 OFFCURVE",
"80 811 CURVE SMOOTH",
"61 827 OFFCURVE",
"66 856 OFFCURVE",
"92 856 CURVE",
"616 811 LINE",
"1083 905 OFFCURVE",
"1247 918 OFFCURVE",
"1307 1006 CURVE",
"1389 1151 OFFCURVE",
"1468 1206 OFFCURVE",
"1585 1206 CURVE SMOOTH",
"1622 1206 OFFCURVE",
"1655 1200 OFFCURVE",
"1681 1192 CURVE",
"1681 1194 LINE",
"1833 1247 LINE",
"1835 1247 OFFCURVE",
"1839 1247 OFFCURVE",
"1839 1243 CURVE SMOOTH",
"1839 1241 LINE",
"1788 1100 LINE",
"1931 1106 LINE SMOOTH",
"1935 1106 OFFCURVE",
"1937 1104 OFFCURVE",
"1935 1100 CURVE"
);
}
);
width = 1976;
}
);
},
{
glyphname = cent;
layers = (
{
layerId = UUID0;
paths = (
{
closed = 1;
nodes = (
"616 -221 LINE",
"637 -229 OFFCURVE",
"657 -234 OFFCURVE",
"678 -234 CURVE SMOOTH",
"696 -234 OFFCURVE",
"715 -230 OFFCURVE",
"733 -221 CURVE",
"735 -193 OFFCURVE",
"739 -127 OFFCURVE",
"741 -37 CURVE",
"977 -10 OFFCURVE",
"1104 158 OFFCURVE",
"1104 158 CURVE",
"1096 190 OFFCURVE",
"1055 229 OFFCURVE",
"1030 246 CURVE",
"1030 246 OFFCURVE",
"915 104 OFFCURVE",
"752 104 CURVE SMOOTH",
"743 104 LINE",
"744 203 OFFCURVE",
"744 316 OFFCURVE",
"744 432 CURVE SMOOTH",
"744 596 OFFCURVE",
"743 765 OFFCURVE",
"741 909 CURVE",
"812 876 OFFCURVE",
"856 812 OFFCURVE",
"856 723 CURVE SMOOTH",
"856 711 OFFCURVE",
"856 699 OFFCURVE",
"854 686 CURVE SMOOTH",
"854 684 OFFCURVE",
"893 659 OFFCURVE",
"956 659 CURVE SMOOTH",
"968 659 OFFCURVE",
"980 660 OFFCURVE",
"993 662 CURVE",
"1094 672 OFFCURVE",
"1114 748 OFFCURVE",
"1114 811 CURVE",
"1112 938 OFFCURVE",
"944 1047 OFFCURVE",
"739 1063 CURVE",
"737 1155 OFFCURVE",
"733 1227 OFFCURVE",
"729 1260 CURVE",
"708 1266 OFFCURVE",
"690 1268 OFFCURVE",
"672 1268 CURVE SMOOTH",
"653 1268 OFFCURVE",
"635 1265 OFFCURVE",
"618 1260 CURVE",
"616 1061 LINE",
"315 1032 OFFCURVE",
"113 805 OFFCURVE",
"113 494 CURVE SMOOTH",
"113 195 OFFCURVE",
"324 -12 OFFCURVE",
"616 -37 CURVE"
);
},
{
closed = 1;
nodes = (
"408 811 OFFCURVE",
"494 918 OFFCURVE",
"616 928 CURVE",
"616 147 LINE",
"500 221 OFFCURVE",
"408 387 OFFCURVE",
"408 573 CURVE SMOOTH"
);
}
);
width = 1186;
}
);
unicode = 00A2;
},
{
glyphname = currency;
layers = (
{
layerId = UUID0;
paths = (
{
closed = 1;
nodes = (
"160 1286 OFFCURVE",
"211 1235 OFFCURVE",
"264 1184 CURVE",
"209 1116 OFFCURVE",
"178 1028 OFFCURVE",
"178 922 CURVE SMOOTH",
"178 838 OFFCURVE",
"205 762 OFFCURVE",
"248 702 CURVE",
"190 641 OFFCURVE",
"133 578 OFFCURVE",
"117 555 CURVE",
"119 528 OFFCURVE",
"199 446 OFFCURVE",
"227 442 CURVE",
"279 489 OFFCURVE",
"330 539 OFFCURVE",
"379 588 CURVE",
"440 555 OFFCURVE",
"510 537 OFFCURVE",
"582 537 CURVE SMOOTH",
"682 537 OFFCURVE",
"774 555 OFFCURVE",
"852 594 CURVE",
"903 543 OFFCURVE",
"956 492 OFFCURVE",
"1012 444 CURVE",
"1059 463 OFFCURVE",
"1114 520 OFFCURVE",
"1135 555 CURVE",
"1120 571 OFFCURVE",
"1053 639 OFFCURVE",
"987 702 CURVE",
"1040 772 OFFCURVE",
"1071 862 OFFCURVE",
"1071 977 CURVE SMOOTH",
"1071 1065 OFFCURVE",
"1040 1139 OFFCURVE",
"991 1200 CURVE",
"1036 1245 OFFCURVE",
"1081 1292 OFFCURVE",
"1126 1343 CURVE",
"1108 1391 OFFCURVE",
"1049 1444 OFFCURVE",
"1014 1466 CURVE",
"995 1452 OFFCURVE",
"922 1378 OFFCURVE",
"856 1309 CURVE",
"801 1337 OFFCURVE",
"739 1352 OFFCURVE",
"680 1352 CURVE SMOOTH",
"575 1352 OFFCURVE",
"479 1331 OFFCURVE",
"401 1292 CURVE",
"332 1358 OFFCURVE",
"250 1434 OFFCURVE",
"223 1454 CURVE",
"197 1450 OFFCURVE",
"117 1370 OFFCURVE",
"113 1341 CURVE"
);
},
{
closed = 1;
nodes = (
"858 809 OFFCURVE",
"743 735 OFFCURVE",
"600 735 CURVE SMOOTH",
"492 735 OFFCURVE",
"387 819 OFFCURVE",
"387 938 CURVE SMOOTH",
"387 1087 OFFCURVE",
"504 1165 OFFCURVE",
"651 1165 CURVE SMOOTH",
"750 1165 OFFCURVE",
"858 1087 OFFCURVE",
"858 969 CURVE SMOOTH"
);
}
);
width = 1247;
}
);
unicode = 00A4;
},
{
glyphname = dollar;
layers = (
{
layerId = UUID0;
paths = (
{
closed = 1;
nodes = (
"543 -174 LINE",
"566 -183 OFFCURVE",
"592 -186 OFFCURVE",
"615 -186 CURVE SMOOTH",
"635 -186 OFFCURVE",
"653 -184 OFFCURVE",
"668 -180 CURVE",
"670 -154 OFFCURVE",
"674 -84 OFFCURVE",
"676 6 CURVE",
"911 33 OFFCURVE",
"1081 156 OFFCURVE",
"1081 367 CURVE SMOOTH",
"1081 616 OFFCURVE",
"868 731 OFFCURVE",
"678 834 CURVE",
"678 1010 OFFCURVE",
"676 1180 OFFCURVE",
"672 1315 CURVE",
"760 1288 OFFCURVE",
"799 1198 OFFCURVE",
"797 1081 CURVE SMOOTH",
"797 1079 OFFCURVE",
"860 1047 OFFCURVE",
"940 1047 CURVE",
"1032 1042 OFFCURVE",
"1071 1098 OFFCURVE",
"1071 1157 CURVE SMOOTH",
"1071 1280 OFFCURVE",
"948 1421 OFFCURVE",
"670 1434 CURVE",
"668 1507 OFFCURVE",
"664 1561 OFFCURVE",
"662 1585 CURVE",
"652 1593 OFFCURVE",
"623 1597 OFFCURVE",
"596 1597 CURVE SMOOTH",
"573 1597 OFFCURVE",
"551 1594 OFFCURVE",
"543 1587 CURVE",
"543 1430 LINE",
"313 1407 OFFCURVE",
"135 1284 OFFCURVE",
"135 1063 CURVE SMOOTH",
"135 842 OFFCURVE",
"356 739 OFFCURVE",
"543 627 CURVE",
"543 127 LINE",
"401 137 OFFCURVE",
"350 231 OFFCURVE",
"350 375 CURVE SMOOTH",
"350 373 OFFCURVE",
"307 408 OFFCURVE",
"236 408 CURVE",
"137 410 OFFCURVE",
"98 375 OFFCURVE",
"96 301 CURVE SMOOTH",
"92 178 OFFCURVE",
"246 16 OFFCURVE",
"543 2 CURVE"
);
},
{
closed = 1;
nodes = (
"393 1217 OFFCURVE",
"436 1294 OFFCURVE",
"543 1317 CURVE",
"543 909 LINE",
"455 967 OFFCURVE",
"393 1028 OFFCURVE",
"393 1116 CURVE SMOOTH"
);
},
{
closed = 1;
nodes = (
"797 221 OFFCURVE",
"764 162 OFFCURVE",
"678 137 CURVE",
"678 535 LINE",
"748 475 OFFCURVE",
"797 408 OFFCURVE",
"797 319 CURVE SMOOTH"
);
}
);
width = 1163;
}
);
unicode = 0024;
},
{
glyphname = euro;
layers = (
{
layerId = UUID0;
paths = (
{
closed = 1;
nodes = (
"279 688 LINE",
"221 684 OFFCURVE",
"170 680 OFFCURVE",
"135 676 CURVE",
"128 666 OFFCURVE",
"123 641 OFFCURVE",
"123 616 CURVE SMOOTH",
"123 595 OFFCURVE",
"126 574 OFFCURVE",
"133 565 CURVE",
"287 561 LINE",
"336 158 OFFCURVE",
"596 -41 OFFCURVE",
"934 -41 CURVE SMOOTH",
"1145 -41 OFFCURVE",
"1307 25 OFFCURVE",
"1442 166 CURVE",
"1430 209 OFFCURVE",
"1403 246 OFFCURVE",
"1362 266 CURVE",
"1270 186 OFFCURVE",
"1180 139 OFFCURVE",
"1063 139 CURVE SMOOTH",
"846 139 OFFCURVE",
"684 279 OFFCURVE",
"633 551 CURVE",
"971 545 LINE",
"980 568 OFFCURVE",
"983 603 OFFCURVE",
"983 635 CURVE SMOOTH",
"983 662 OFFCURVE",
"981 687 OFFCURVE",
"977 702 CURVE",
"936 707 OFFCURVE",
"846 709 OFFCURVE",
"754 709 CURVE SMOOTH",
"706 709 OFFCURVE",
"657 708 OFFCURVE",
"614 707 CURVE",
"614 762 LINE",
"614 815 LINE",
"1053 807 LINE",
"1062 830 OFFCURVE",
"1065 865 OFFCURVE",
"1065 897 CURVE SMOOTH",
"1065 924 OFFCURVE",
"1063 950 OFFCURVE",
"1059 965 CURVE",
"1023 969 OFFCURVE",
"947 971 OFFCURVE",
"860 971 CURVE SMOOTH",
"785 971 OFFCURVE",
"702 970 OFFCURVE",
"631 967 CURVE",
"676 1223 OFFCURVE",
"811 1321 OFFCURVE",
"983 1321 CURVE SMOOTH",
"1032 1321 OFFCURVE",
"1087 1323 OFFCURVE",
"1141 1284 CURVE",
"1124 1248 OFFCURVE",
"1116 1213 OFFCURVE",
"1116 1181 CURVE SMOOTH",
"1116 1112 OFFCURVE",
"1153 1059 OFFCURVE",
"1212 1047 CURVE SMOOTH",
"1228 1043 OFFCURVE",
"1247 1042 OFFCURVE",
"1264 1042 CURVE SMOOTH",
"1299 1042 OFFCURVE",
"1329 1047 OFFCURVE",
"1329 1047 CURVE",
"1427 1296 LINE",
"1431 1311 OFFCURVE",
"1433 1324 OFFCURVE",
"1433 1336 CURVE SMOOTH",
"1433 1366 OFFCURVE",
"1422 1386 OFFCURVE",
"1409 1395 CURVE",
"1296 1448 OFFCURVE",
"1151 1477 OFFCURVE",
"1028 1477 CURVE SMOOTH",
"662 1477 OFFCURVE",
"401 1266 OFFCURVE",
"311 952 CURVE",
"238 948 OFFCURVE",
"174 942 OFFCURVE",
"135 938 CURVE",
"128 928 OFFCURVE",
"123 903 OFFCURVE",
"123 878 CURVE SMOOTH",
"123 857 OFFCURVE",
"126 836 OFFCURVE",
"133 827 CURVE",
"285 823 LINE",
"281 784 OFFCURVE",
"279 745 OFFCURVE",
"279 707 CURVE"
);
}
);
width = 1534;
}
);
unicode = 20AC;
},
{
glyphname = sterling;
layers = (
{
layerId = UUID0;
paths = (
{
closed = 1;
nodes = (
"741 655 LINE",
"750 679 OFFCURVE",
"754 712 OFFCURVE",
"754 742 CURVE SMOOTH",
"754 767 OFFCURVE",
"752 790 OFFCURVE",
"748 805 CURVE",
"707 809 OFFCURVE",
"625 813 OFFCURVE",
"530 813 CURVE",
"508 969 OFFCURVE",
"465 1073 OFFCURVE",
"465 1165 CURVE SMOOTH",
"465 1247 OFFCURVE",
"500 1346 OFFCURVE",
"596 1346 CURVE SMOOTH",
"762 1346 OFFCURVE",
"803 1139 OFFCURVE",
"795 1063 CURVE",
"810 1062 OFFCURVE",
"824 1061 OFFCURVE",
"837 1061 CURVE SMOOTH",
"992 1061 OFFCURVE",
"1032 1158 OFFCURVE",
"1032 1217 CURVE SMOOTH",
"1032 1382 OFFCURVE",
"852 1475 OFFCURVE",
"608 1475 CURVE SMOOTH",
"352 1475 OFFCURVE",
"197 1329 OFFCURVE",
"197 1122 CURVE SMOOTH",
"197 1004 OFFCURVE",
"223 911 OFFCURVE",
"246 807 CURVE",
"195 805 OFFCURVE",
"152 803 OFFCURVE",
"123 799 CURVE",
"115 789 OFFCURVE",
"111 753 OFFCURVE",
"111 719 CURVE SMOOTH",
"111 691 OFFCURVE",
"114 664 OFFCURVE",
"121 655 CURVE",
"274 655 LINE",
"281 610 OFFCURVE",
"285 561 OFFCURVE",
"285 506 CURVE SMOOTH",
"285 293 OFFCURVE",
"72 168 OFFCURVE",
"72 168 CURVE",
"72 57 OFFCURVE",
"100 8 OFFCURVE",
"123 0 CURVE",
"358 0 LINE SMOOTH",
"1004 0 OFFCURVE",
"1059 0 OFFCURVE",
"1145 2 CURVE",
"1159 18 OFFCURVE",
"1163 47 OFFCURVE",
"1163 100 CURVE SMOOTH",
"1163 133 OFFCURVE",
"1159 190 OFFCURVE",
"1151 240 CURVE SMOOTH",
"1139 319 OFFCURVE",
"1112 365 OFFCURVE",
"1014 365 CURVE SMOOTH",
"932 365 OFFCURVE",
"895 313 OFFCURVE",
"895 313 CURVE",
"881 188 LINE",
"739 176 OFFCURVE",
"453 166 OFFCURVE",
"299 154 CURVE",
"299 154 OFFCURVE",
"545 340 OFFCURVE",
"545 627 CURVE SMOOTH",
"545 655 LINE"
);
}
);
width = 1235;
}
);
unicode = 00A3;
},
{
glyphname = yen;
layers = (
{
layerId = UUID0;
paths = (
{
closed = 1;
nodes = (
"1126 233 LINE",
"1134 253 OFFCURVE",
"1137 282 OFFCURVE",
"1137 310 CURVE SMOOTH",
"1137 336 OFFCURVE",
"1134 360 OFFCURVE",
"1130 375 CURVE",
"1083 379 OFFCURVE",
"983 381 OFFCURVE",
"870 381 CURVE",
"870 401 LINE",
"868 481 LINE",
"1126 479 LINE",
"1134 498 OFFCURVE",
"1137 527 OFFCURVE",
"1137 554 CURVE SMOOTH",
"1137 579 OFFCURVE",
"1134 604 OFFCURVE",
"1130 618 CURVE",
"1085 623 OFFCURVE",
"993 627 OFFCURVE",
"885 627 CURVE",
"1047 956 OFFCURVE",
"1253 1104 OFFCURVE",
"1253 1294 CURVE SMOOTH",
"1253 1370 OFFCURVE",
"1204 1475 OFFCURVE",
"1073 1475 CURVE SMOOTH",
"1006 1475 OFFCURVE",
"985 1450 OFFCURVE",
"985 1448 CURVE SMOOTH",
"985 1446 OFFCURVE",
"1004 1436 OFFCURVE",
"1004 1375 CURVE SMOOTH",
"1004 1363 OFFCURVE",
"1003 1348 OFFCURVE",
"1001 1331 CURVE SMOOTH",
"991 1231 OFFCURVE",
"776 750 OFFCURVE",
"776 750 CURVE",
"563 1307 OFFCURVE",
"424 1384 OFFCURVE",
"379 1432 CURVE",
"363 1433 OFFCURVE",
"347 1433 OFFCURVE",
"332 1433 CURVE SMOOTH",
"231 1433 OFFCURVE",
"156 1414 OFFCURVE",
"45 1352 CURVE",
"43 1331 OFFCURVE",
"45 1309 OFFCURVE",
"59 1270 CURVE",
"86 1268 OFFCURVE",
"135 1266 OFFCURVE",
"158 1251 CURVE SMOOTH",
"264 1184 OFFCURVE",
"457 825 OFFCURVE",
"571 623 CURVE",
"465 621 OFFCURVE",
"373 614 OFFCURVE",
"324 608 CURVE",
"317 599 OFFCURVE",
"313 570 OFFCURVE",
"313 543 CURVE SMOOTH",
"313 519 OFFCURVE",
"316 497 OFFCURVE",
"322 489 CURVE",
"578 485 LINE",
"575 377 LINE",
"467 375 OFFCURVE",
"373 369 OFFCURVE",
"324 365 CURVE",
"317 355 OFFCURVE",
"313 327 OFFCURVE",
"313 302 CURVE SMOOTH",
"313 280 OFFCURVE",
"316 260 OFFCURVE",
"322 254 CURVE",
"569 248 LINE",
"555 0 LINE",
"575 -12 OFFCURVE",
"610 -20 OFFCURVE",
"635 -23 CURVE SMOOTH",
"654 -25 OFFCURVE",
"677 -26 OFFCURVE",
"702 -26 CURVE SMOOTH",
"775 -26 OFFCURVE",
"863 -17 OFFCURVE",
"913 0 CURVE",
"901 78 OFFCURVE",
"889 154 OFFCURVE",
"879 240 CURVE"
);
}
);
width = 1307;
}
);
unicode = 00A5;
},
{
glyphname = plus;
layers = (
{
layerId = UUID0;
paths = (
{
closed = 1;
nodes = (
"487 319 LINE",
"510 310 OFFCURVE",
"545 307 OFFCURVE",
"577 307 CURVE SMOOTH",
"604 307 OFFCURVE",
"630 309 OFFCURVE",
"645 313 CURVE",
"647 379 OFFCURVE",
"649 516 OFFCURVE",
"649 657 CURVE",
"981 657 LINE",
"990 680 OFFCURVE",
"993 715 OFFCURVE",
"993 747 CURVE SMOOTH",
"993 774 OFFCURVE",
"991 800 OFFCURVE",
"987 815 CURVE",
"647 815 LINE",
"645 952 OFFCURVE",
"643 1079 OFFCURVE",
"639 1147 CURVE",
"629 1154 OFFCURVE",
"592 1159 OFFCURVE",
"556 1159 CURVE SMOOTH",
"525 1159 OFFCURVE",
"496 1156 OFFCURVE",
"487 1149 CURVE",
"487 813 LINE",
"346 813 OFFCURVE",
"215 811 OFFCURVE",
"145 809 CURVE",
"138 799 OFFCURVE",
"133 762 OFFCURVE",
"133 726 CURVE SMOOTH",
"133 695 OFFCURVE",
"136 666 OFFCURVE",
"143 657 CURVE",
"487 657 LINE"
);
}
);
width = 1128;
}
);
unicode = 002B;
},
{
glyphname = minus;
layers = (
{
layerId = UUID0;
paths = (
{
closed = 1;
nodes = (
"981 657 LINE",
"990 680 OFFCURVE",
"993 715 OFFCURVE",
"993 747 CURVE SMOOTH",
"993 774 OFFCURVE",
"991 800 OFFCURVE",
"987 815 CURVE",
"960 815 OFFCURVE",
"919 816 OFFCURVE",
"871 816 CURVE SMOOTH",
"656 816 OFFCURVE",
"281 812 OFFCURVE",
"145 809 CURVE",
"138 799 OFFCURVE",
"133 762 OFFCURVE",
"133 726 CURVE SMOOTH",
"133 695 OFFCURVE",
"136 666 OFFCURVE",
"143 657 CURVE"
);
}
);
width = 1128;
}
);
unicode = 2212;
},
{
glyphname = multiply;
layers = (
{
layerId = UUID0;
paths = (
{
closed = 1;
nodes = (
"565 612 LINE",
"686 492 OFFCURVE",
"801 383 OFFCURVE",
"854 338 CURVE",
"877 342 OFFCURVE",
"956 420 OFFCURVE",
"963 444 CURVE",
"680 727 LINE",
"958 1006 LINE",
"940 1049 OFFCURVE",
"881 1104 OFFCURVE",
"852 1122 CURVE",
"801 1077 OFFCURVE",
"686 965 OFFCURVE",
"563 842 CURVE",
"281 1124 LINE",
"240 1106 OFFCURVE",
"182 1047 OFFCURVE",
"166 1018 CURVE",
"211 967 OFFCURVE",
"326 850 OFFCURVE",
"451 725 CURVE",
"330 602 OFFCURVE",
"217 485 OFFCURVE",
"172 434 CURVE",
"176 412 OFFCURVE",
"254 330 OFFCURVE",
"279 326 CURVE"
);
}
);
width = 1128;
}
);
unicode = 00D7;
},
{
glyphname = divide;
layers = (
{
layerId = UUID0;
paths = (
{
closed = 1;
nodes = (
"688 1028 OFFCURVE",
"707 1073 OFFCURVE",
"707 1115 CURVE SMOOTH",
"707 1144 OFFCURVE",
"698 1171 OFFCURVE",
"680 1192 CURVE SMOOTH",
"656 1220 OFFCURVE",
"621 1234 OFFCURVE",
"585 1234 CURVE SMOOTH",
"548 1234 OFFCURVE",
"509 1220 OFFCURVE",
"479 1194 CURVE SMOOTH",
"447 1165 OFFCURVE",
"428 1124 OFFCURVE",
"428 1083 CURVE SMOOTH",
"428 1054 OFFCURVE",
"438 1024 OFFCURVE",
"459 1001 CURVE SMOOTH",
"484 974 OFFCURVE",
"520 961 OFFCURVE",
"557 961 CURVE SMOOTH",
"592 961 OFFCURVE",
"628 973 OFFCURVE",
"655 997 CURVE SMOOTH"
);
},
{
closed = 1;
nodes = (
"688 303 OFFCURVE",
"707 348 OFFCURVE",
"707 391 CURVE SMOOTH",
"707 420 OFFCURVE",
"698 448 OFFCURVE",
"680 469 CURVE SMOOTH",
"656 497 OFFCURVE",
"622 510 OFFCURVE",
"586 510 CURVE SMOOTH",
"549 510 OFFCURVE",
"510 496 OFFCURVE",
"479 471 CURVE",
"447 442 OFFCURVE",
"428 401 OFFCURVE",
"428 360 CURVE SMOOTH",
"428 331 OFFCURVE",
"438 302 OFFCURVE",
"459 279 CURVE SMOOTH",
"484 250 OFFCURVE",
"520 237 OFFCURVE",
"557 237 CURVE SMOOTH",
"592 237 OFFCURVE",
"628 249 OFFCURVE",
"655 272 CURVE"
);
},
{
closed = 1;
nodes = (
"981 657 LINE",
"990 680 OFFCURVE",
"993 715 OFFCURVE",
"993 747 CURVE SMOOTH",
"993 774 OFFCURVE",
"991 800 OFFCURVE",
"987 815 CURVE",
"960 815 OFFCURVE",
"919 816 OFFCURVE",
"871 816 CURVE SMOOTH",
"656 816 OFFCURVE",
"281 812 OFFCURVE",
"145 809 CURVE",
"138 799 OFFCURVE",
"133 762 OFFCURVE",
"133 726 CURVE SMOOTH",
"133 695 OFFCURVE",
"136 666 OFFCURVE",
"143 657 CURVE"
);
}
);
width = 1128;
}
);
unicode = 00F7;
},
{
glyphname = equal;
layers = (
{
layerId = UUID0;
paths = (
{
closed = 1;
nodes = (
"981 823 LINE",
"990 846 OFFCURVE",
"993 881 OFFCURVE",
"993 913 CURVE SMOOTH",
"993 940 OFFCURVE",
"991 966 OFFCURVE",
"987 981 CURVE",
"922 989 OFFCURVE",
"786 992 OFFCURVE",
"639 992 CURVE SMOOTH",
"448 992 OFFCURVE",
"239 986 OFFCURVE",
"145 975 CURVE",
"138 965 OFFCURVE",
"133 927 OFFCURVE",
"133 892 CURVE SMOOTH",
"133 861 OFFCURVE",
"136 832 OFFCURVE",
"143 823 CURVE"
);
},
{
closed = 1;
nodes = (
"981 481 LINE",
"990 504 OFFCURVE",
"993 539 OFFCURVE",
"993 571 CURVE SMOOTH",
"993 598 OFFCURVE",
"991 624 OFFCURVE",
"987 639 CURVE",
"922 647 OFFCURVE",
"786 650 OFFCURVE",
"639 650 CURVE SMOOTH",
"448 650 OFFCURVE",
"239 644 OFFCURVE",
"145 633 CURVE",
"138 623 OFFCURVE",
"133 585 OFFCURVE",
"133 550 CURVE SMOOTH",
"133 519 OFFCURVE",
"136 490 OFFCURVE",
"143 481 CURVE"
);
}
);
width = 1128;
}
);
unicode = 003D;
},
{
glyphname = greater;
layers = (
{
layerId = UUID0;
paths = (
{
closed = 1;
nodes = (
"809 866 OFFCURVE",
"344 1135 OFFCURVE",
"178 1219 CURVE",
"139 1178 OFFCURVE",
"115 1126 OFFCURVE",
"92 1075 CURVE",
"236 979 OFFCURVE",
"610 764 OFFCURVE",
"680 731 CURVE",
"610 698 OFFCURVE",
"236 483 OFFCURVE",
"92 387 CURVE",
"115 336 OFFCURVE",
"139 285 OFFCURVE",
"178 244 CURVE",
"344 328 OFFCURVE",
"809 596 OFFCURVE",
"879 655 CURVE",
"889 676 OFFCURVE",
"893 700 OFFCURVE",
"893 723 CURVE SMOOTH",
"893 754 OFFCURVE",
"886 784 OFFCURVE",
"879 807 CURVE"
);
}
);
width = 1006;
}
);
unicode = 003E;
},
{
glyphname = less;
layers = (
{
layerId = UUID0;
paths = (
{
closed = 1;
nodes = (
"197 596 OFFCURVE",
"662 328 OFFCURVE",
"827 244 CURVE",
"866 285 OFFCURVE",
"891 336 OFFCURVE",
"913 387 CURVE",
"770 483 OFFCURVE",
"395 698 OFFCURVE",
"326 731 CURVE",
"395 764 OFFCURVE",
"770 979 OFFCURVE",
"913 1075 CURVE",
"891 1126 OFFCURVE",
"866 1178 OFFCURVE",
"827 1219 CURVE",
"662 1135 OFFCURVE",
"197 866 OFFCURVE",
"127 807 CURVE",
"117 786 OFFCURVE",
"113 763 OFFCURVE",
"113 740 CURVE SMOOTH",
"113 708 OFFCURVE",
"120 678 OFFCURVE",
"127 655 CURVE"
);
}
);
width = 1006;
}
);
unicode = 003C;
},
{
glyphname = plusminus;
layers = (
{
layerId = UUID0;
paths = (
{
closed = 1;
nodes = (
"487 319 LINE",
"510 310 OFFCURVE",
"545 307 OFFCURVE",
"577 307 CURVE SMOOTH",
"604 307 OFFCURVE",
"630 309 OFFCURVE",
"645 313 CURVE",
"647 379 OFFCURVE",
"649 516 OFFCURVE",
"649 657 CURVE",
"981 657 LINE",
"990 680 OFFCURVE",
"993 715 OFFCURVE",
"993 747 CURVE SMOOTH",
"993 774 OFFCURVE",
"991 800 OFFCURVE",
"987 815 CURVE",
"647 815 LINE",
"645 952 OFFCURVE",
"643 1079 OFFCURVE",
"639 1147 CURVE",
"629 1154 OFFCURVE",
"592 1159 OFFCURVE",
"556 1159 CURVE SMOOTH",
"525 1159 OFFCURVE",
"496 1156 OFFCURVE",
"487 1149 CURVE",
"487 813 LINE",
"346 813 OFFCURVE",
"215 811 OFFCURVE",
"145 809 CURVE",
"138 799 OFFCURVE",
"133 762 OFFCURVE",
"133 726 CURVE SMOOTH",
"133 695 OFFCURVE",
"136 666 OFFCURVE",
"143 657 CURVE",
"487 657 LINE"
);
},
{
closed = 1;
nodes = (
"981 2 LINE",
"990 25 OFFCURVE",
"993 60 OFFCURVE",
"993 92 CURVE SMOOTH",
"993 119 OFFCURVE",
"991 145 OFFCURVE",
"987 160 CURVE",
"960 160 OFFCURVE",
"919 161 OFFCURVE",
"871 161 CURVE SMOOTH",
"656 161 OFFCURVE",
"281 157 OFFCURVE",
"145 154 CURVE",
"138 144 OFFCURVE",
"133 107 OFFCURVE",
"133 71 CURVE SMOOTH",
"133 40 OFFCURVE",
"136 10 OFFCURVE",
"143 2 CURVE"
);
}
);
width = 1128;
}
);
unicode = 00B1;
},
{
glyphname = logicalnot;
layers = (
{
background = {
paths = (
{
closed = 1;
nodes = (
"981 657 LINE",
"997 700 OFFCURVE",
"995 782 OFFCURVE",
"987 815 CURVE",
"838 817 OFFCURVE",
"311 813 OFFCURVE",
"145 809 CURVE",
"131 791 OFFCURVE",
"129 676 OFFCURVE",
"143 657 CURVE"
);
}
);
};
layerId = UUID0;
paths = (
{
closed = 1;
nodes = (
"217 650 OFFCURVE",
"362 648 OFFCURVE",
"502 648 CURVE SMOOTH",
"642 648 OFFCURVE",
"777 650 OFFCURVE",
"831 653 CURVE",
"829 627 OFFCURVE",
"828 541 OFFCURVE",
"828 456 CURVE SMOOTH",
"828 370 OFFCURVE",
"829 285 OFFCURVE",
"831 262 CURVE",
"854 257 OFFCURVE",
"889 255 OFFCURVE",
"921 255 CURVE SMOOTH",
"949 255 OFFCURVE",
"976 256 OFFCURVE",
"991 258 CURVE",
"993 287 OFFCURVE",
"994 361 OFFCURVE",
"994 446 CURVE SMOOTH",
"994 588 OFFCURVE",
"991 760 OFFCURVE",
"985 809 CURVE",
"930 813 OFFCURVE",
"826 815 OFFCURVE",
"707 815 CURVE SMOOTH",
"498 815 OFFCURVE",
"244 810 OFFCURVE",
"143 809 CURVE",
"137 801 OFFCURVE",
"134 764 OFFCURVE",
"134 727 CURVE SMOOTH",
"134 698 OFFCURVE",
"136 670 OFFCURVE",
"141 653 CURVE"
);
}
);
width = 1128;
}
);
unicode = 00AC;
},
{
glyphname = asciitilde;
layers = (
{
layerId = UUID0;
paths = (
{
closed = 1;
nodes = (
"115 639 OFFCURVE",
"170 631 OFFCURVE",
"205 637 CURVE",
"213 700 OFFCURVE",
"279 748 OFFCURVE",
"324 748 CURVE SMOOTH",
"502 748 OFFCURVE",
"596 602 OFFCURVE",
"762 602 CURVE SMOOTH",
"915 602 OFFCURVE",
"1022 717 OFFCURVE",
"1026 858 CURVE",
"1014 868 OFFCURVE",
"954 885 OFFCURVE",
"926 883 CURVE",
"901 819 OFFCURVE",
"860 768 OFFCURVE",
"788 768 CURVE SMOOTH",
"614 768 OFFCURVE",
"532 903 OFFCURVE",
"360 903 CURVE",
"227 901 OFFCURVE",
"82 791 OFFCURVE",
"94 649 CURVE"
);
}
);
width = 1118;
}
);
unicode = 007E;
},
{
glyphname = micro;
layers = (
{
layerId = UUID0;
paths = (
{
closed = 1;
nodes = (
"1102 353 OFFCURVE",
"1099 483 OFFCURVE",
"1099 598 CURVE SMOOTH",
"1099 780 OFFCURVE",
"1107 928 OFFCURVE",
"1114 1047 CURVE",
"1078 1059 OFFCURVE",
"1035 1064 OFFCURVE",
"987 1064 CURVE SMOOTH",
"932 1064 OFFCURVE",
"870 1058 OFFCURVE",
"807 1047 CURVE",
"805 621 OFFCURVE",
"805 432 OFFCURVE",
"805 313 CURVE",
"676 195 OFFCURVE",
"623 152 OFFCURVE",
"528 152 CURVE SMOOTH",
"424 152 OFFCURVE",
"399 286 OFFCURVE",
"399 456 CURVE SMOOTH",
"399 605 OFFCURVE",
"418 780 OFFCURVE",
"418 917 CURVE SMOOTH",
"418 964 OFFCURVE",
"416 1007 OFFCURVE",
"410 1042 CURVE",
"380 1053 OFFCURVE",
"338 1059 OFFCURVE",
"291 1059 CURVE SMOOTH",
"241 1059 OFFCURVE",
"185 1053 OFFCURVE",
"125 1042 CURVE",
"131 1002 OFFCURVE",
"133 947 OFFCURVE",
"133 883 CURVE SMOOTH",
"133 687 OFFCURVE",
"113 399 OFFCURVE",
"113 129 CURVE SMOOTH",
"113 -251 OFFCURVE",
"153 -596 OFFCURVE",
"348 -596 CURVE SMOOTH",
"457 -596 OFFCURVE",
"541 -547 OFFCURVE",
"600 -475 CURVE",
"401 -358 OFFCURVE",
"254 -176 OFFCURVE",
"236 49 CURVE",
"281 -2 OFFCURVE",
"342 -41 OFFCURVE",
"418 -41 CURVE SMOOTH",
"584 -41 OFFCURVE",
"707 66 OFFCURVE",
"807 184 CURVE",
"807 154 OFFCURVE",
"809 135 OFFCURVE",
"811 119 CURVE SMOOTH",
"823 1 OFFCURVE",
"843 -41 OFFCURVE",
"924 -41 CURVE SMOOTH",
"948 -41 OFFCURVE",
"976 -37 OFFCURVE",
"1012 -31 CURVE SMOOTH",
"1081 -20 OFFCURVE",
"1159 6 OFFCURVE",
"1249 57 CURVE",
"1251 67 OFFCURVE",
"1252 77 OFFCURVE",
"1252 88 CURVE SMOOTH",
"1252 103 OFFCURVE",
"1249 119 OFFCURVE",
"1241 133 CURVE",
"1227 134 OFFCURVE",
"1214 134 OFFCURVE",
"1202 134 CURVE SMOOTH",
"1189 134 OFFCURVE",
"1177 134 OFFCURVE",
"1165 135 CURVE SMOOTH",
"1120 139 OFFCURVE",
"1112 170 OFFCURVE",
"1110 207 CURVE SMOOTH"
);
}
);
width = 1407;
}
);
unicode = 00B5;
},
{
glyphname = percent;
layers = (
{
layerId = UUID0;
paths = (
{
closed = 1;
nodes = (
"772 1317 OFFCURVE",
"637 1456 OFFCURVE",
"485 1456 CURVE SMOOTH",
"264 1456 OFFCURVE",
"113 1317 OFFCURVE",
"113 1090 CURVE SMOOTH",
"113 913 OFFCURVE",
"240 764 OFFCURVE",
"408 764 CURVE SMOOTH",
"629 764 OFFCURVE",
"772 897 OFFCURVE",
"772 1135 CURVE SMOOTH"
);
},
{
closed = 1;
nodes = (
"311 1217 OFFCURVE",
"338 1348 OFFCURVE",
"426 1348 CURVE SMOOTH",
"520 1348 OFFCURVE",
"578 1239 OFFCURVE",
"578 1094 CURVE SMOOTH",
"578 991 OFFCURVE",
"561 866 OFFCURVE",
"467 866 CURVE SMOOTH",
"379 866 OFFCURVE",
"311 975 OFFCURVE",
"311 1118 CURVE SMOOTH"
);
},
{
closed = 1;
nodes = (
"1591 537 OFFCURVE",
"1456 676 OFFCURVE",
"1305 676 CURVE SMOOTH",
"1083 676 OFFCURVE",
"932 537 OFFCURVE",
"932 309 CURVE SMOOTH",
"932 133 OFFCURVE",
"1059 -16 OFFCURVE",
"1227 -16 CURVE SMOOTH",
"1448 -16 OFFCURVE",
"1591 117 OFFCURVE",
"1591 354 CURVE SMOOTH"
);
},
{
closed = 1;
nodes = (
"1130 436 OFFCURVE",
"1157 567 OFFCURVE",
"1245 567 CURVE SMOOTH",
"1339 567 OFFCURVE",
"1397 459 OFFCURVE",
"1397 313 CURVE SMOOTH",
"1397 211 OFFCURVE",
"1380 86 OFFCURVE",
"1286 86 CURVE SMOOTH",
"1198 86 OFFCURVE",
"1130 195 OFFCURVE",
"1130 338 CURVE SMOOTH"
);
},
{
closed = 1;
nodes = (
"1292 1524 LINE",
"1271 1533 OFFCURVE",
"1237 1536 OFFCURVE",
"1205 1536 CURVE SMOOTH",
"1178 1536 OFFCURVE",
"1151 1534 OFFCURVE",
"1135 1530 CURVE",
"1061 1380 OFFCURVE",
"465 78 OFFCURVE",
"422 -88 CURVE",
"429 -95 OFFCURVE",
"466 -100 OFFCURVE",
"502 -100 CURVE SMOOTH",
"533 -100 OFFCURVE",
"563 -97 OFFCURVE",
"573 -90 CURVE"
);
}
);
width = 1704;
}
);
unicode = 0025;
},
{
glyphname = at;
layers = (
{
layerId = UUID0;
paths = (
{
closed = 1;
nodes = (
"791 362 OFFCURVE",
"786 444 OFFCURVE",
"786 444 CURVE",
"786 641 OFFCURVE",
"911 983 OFFCURVE",
"1110 983 CURVE SMOOTH",
"1145 983 OFFCURVE",
"1159 970 OFFCURVE",
"1159 942 CURVE SMOOTH",
"1159 892 OFFCURVE",
"1117 790 OFFCURVE",
"1081 616 CURVE",
"979 420 OFFCURVE",
"872 362 OFFCURVE",
"844 362 CURVE SMOOTH"
);
},
{
closed = 1;
nodes = (
"655 -129 OFFCURVE",
"344 147 OFFCURVE",
"344 586 CURVE SMOOTH",
"344 1053 OFFCURVE",
"690 1331 OFFCURVE",
"1049 1331 CURVE SMOOTH",
"1376 1331 OFFCURVE",
"1649 1133 OFFCURVE",
"1649 840 CURVE SMOOTH",
"1649 436 OFFCURVE",
"1468 340 OFFCURVE",
"1391 340 CURVE SMOOTH",
"1351 340 OFFCURVE",
"1322 372 OFFCURVE",
"1322 420 CURVE SMOOTH",
"1322 429 OFFCURVE",
"1323 439 OFFCURVE",
"1325 449 CURVE SMOOTH",
"1403 745 LINE SMOOTH",
"1416 795 OFFCURVE",
"1422 839 OFFCURVE",
"1422 877 CURVE SMOOTH",
"1422 1052 OFFCURVE",
"1292 1108 OFFCURVE",
"1110 1108 CURVE SMOOTH",
"729 1108 OFFCURVE",
"524 750 OFFCURVE",
"520 483 CURVE SMOOTH",
"518 360 OFFCURVE",
"543 201 OFFCURVE",
"721 201 CURVE SMOOTH",
"854 201 OFFCURVE",
"967 295 OFFCURVE",
"1047 387 CURVE",
"1042 258 OFFCURVE",
"1114 172 OFFCURVE",
"1260 172 CURVE SMOOTH",
"1663 172 OFFCURVE",
"1843 545 OFFCURVE",
"1843 823 CURVE SMOOTH",
"1843 1196 OFFCURVE",
"1499 1464 OFFCURVE",
"1044 1464 CURVE SMOOTH",
"518 1464 OFFCURVE",
"113 1096 OFFCURVE",
"113 588 CURVE SMOOTH",
"113 80 OFFCURVE",
"506 -274 OFFCURVE",
"1034 -274 CURVE SMOOTH",
"1440 -274 OFFCURVE",
"1649 -129 OFFCURVE",
"1649 0 CURVE SMOOTH",
"1649 70 OFFCURVE",
"1612 111 OFFCURVE",
"1565 121 CURVE",
"1450 -39 OFFCURVE",
"1208 -129 OFFCURVE",
"1034 -129 CURVE SMOOTH"
);
}
);
width = 1956;
}
);
unicode = 0040;
},
{
glyphname = ampersand;
layers = (
{
layerId = UUID0;
paths = (
{
closed = 1;
nodes = (
"1501 -41 OFFCURVE",
"1590 32 OFFCURVE",
"1590 127 CURVE SMOOTH",
"1590 151 OFFCURVE",
"1585 175 OFFCURVE",
"1573 201 CURVE",
"1470 199 OFFCURVE",
"1325 258 OFFCURVE",
"1178 352 CURVE",
"1208 403 OFFCURVE",
"1241 463 OFFCURVE",
"1282 520 CURVE SMOOTH",
"1296 539 OFFCURVE",
"1311 567 OFFCURVE",
"1395 563 CURVE SMOOTH",
"1489 559 LINE",
"1496 585 OFFCURVE",
"1499 604 OFFCURVE",
"1499 623 CURVE SMOOTH",
"1499 639 OFFCURVE",
"1497 655 OFFCURVE",
"1493 674 CURVE",
"1399 685 OFFCURVE",
"1250 700 OFFCURVE",
"1120 700 CURVE SMOOTH",
"1069 700 OFFCURVE",
"1020 697 OFFCURVE",
"979 692 CURVE",
"975 668 OFFCURVE",
"973 651 OFFCURVE",
"973 635 CURVE SMOOTH",
"973 619 OFFCURVE",
"975 603 OFFCURVE",
"979 582 CURVE",
"1098 573 OFFCURVE",
"1098 573 OFFCURVE",
"1100 573 CURVE SMOOTH",
"1110 571 OFFCURVE",
"1118 563 OFFCURVE",
"1116 547 CURVE SMOOTH",
"1110 504 OFFCURVE",
"1098 459 OFFCURVE",
"1079 418 CURVE",
"942 516 OFFCURVE",
"809 637 OFFCURVE",
"705 758 CURVE",
"954 855 OFFCURVE",
"1084 1036 OFFCURVE",
"1084 1190 CURVE SMOOTH",
"1084 1340 OFFCURVE",
"961 1464 OFFCURVE",
"707 1464 CURVE SMOOTH",
"440 1464 OFFCURVE",
"272 1309 OFFCURVE",
"272 1065 CURVE SMOOTH",
"272 969 OFFCURVE",
"315 854 OFFCURVE",
"385 737 CURVE",
"197 629 OFFCURVE",
"106 475 OFFCURVE",
"106 332 CURVE SMOOTH",
"106 86 OFFCURVE",
"250 -41 OFFCURVE",
"618 -41 CURVE SMOOTH",
"743 -41 OFFCURVE",
"885 -10 OFFCURVE",
"1006 100 CURVE",
"1141 12 OFFCURVE",
"1270 -41 OFFCURVE",
"1370 -41 CURVE SMOOTH"
);
},
{
closed = 1;
nodes = (
"547 90 OFFCURVE",
"389 209 OFFCURVE",
"389 406 CURVE SMOOTH",
"389 471 OFFCURVE",
"410 547 OFFCURVE",
"457 627 CURVE",
"578 459 OFFCURVE",
"743 293 OFFCURVE",
"909 168 CURVE",
"846 106 OFFCURVE",
"756 90 OFFCURVE",
"702 90 CURVE SMOOTH"
);
},
{
closed = 1;
nodes = (
"512 1313 OFFCURVE",
"578 1348 OFFCURVE",
"664 1348 CURVE SMOOTH",
"770 1348 OFFCURVE",
"813 1283 OFFCURVE",
"813 1199 CURVE SMOOTH",
"813 1086 OFFCURVE",
"736 938 OFFCURVE",
"625 860 CURVE",
"555 961 OFFCURVE",
"512 1057 OFFCURVE",
"512 1137 CURVE SMOOTH"
);
}
);
width = 1683;
}
);
unicode = 0026;
},
{
glyphname = paragraph;
layers = (
{
layerId = UUID0;
paths = (
{
closed = 1;
nodes = (
"928 -180 OFFCURVE",
"929 16 OFFCURVE",
"929 261 CURVE SMOOTH",
"929 611 OFFCURVE",
"926 1063 OFFCURVE",
"926 1337 CURVE SMOOTH",
"926 1382 OFFCURVE",
"913 1434 OFFCURVE",
"1075 1444 CURVE",
"1084 1467 OFFCURVE",
"1088 1492 OFFCURVE",
"1088 1516 CURVE SMOOTH",
"1088 1536 OFFCURVE",
"1085 1556 OFFCURVE",
"1081 1571 CURVE",
"1037 1577 OFFCURVE",
"947 1580 OFFCURVE",
"848 1580 CURVE SMOOTH",
"817 1580 OFFCURVE",
"785 1579 OFFCURVE",
"754 1579 CURVE",
"500 1573 OFFCURVE",
"113 1571 OFFCURVE",
"113 1186 CURVE SMOOTH",
"113 989 OFFCURVE",
"260 801 OFFCURVE",
"473 788 CURVE",
"473 -223 LINE",
"496 -232 OFFCURVE",
"529 -236 OFFCURVE",
"559 -236 CURVE SMOOTH",
"585 -236 OFFCURVE",
"610 -233 OFFCURVE",
"625 -229 CURVE",
"633 -166 OFFCURVE",
"636 126 OFFCURVE",
"636 455 CURVE SMOOTH",
"636 807 OFFCURVE",
"632 1202 OFFCURVE",
"625 1409 CURVE",
"770 1409 LINE",
"770 -223 LINE",
"793 -232 OFFCURVE",
"826 -236 OFFCURVE",
"856 -236 CURVE SMOOTH",
"882 -236 OFFCURVE",
"907 -233 OFFCURVE",
"922 -229 CURVE"
);
}
);
width = 1202;
}
);
unicode = 00B6;
},
{
glyphname = section;
layers = (
{
layerId = UUID0;
paths = (
{
closed = 1;
nodes = (
"195 442 OFFCURVE",
"354 373 OFFCURVE",
"516 287 CURVE SMOOTH",
"659 211 OFFCURVE",
"760 168 OFFCURVE",
"760 61 CURVE SMOOTH",
"760 -27 OFFCURVE",
"709 -92 OFFCURVE",
"588 -92 CURVE SMOOTH",
"432 -92 OFFCURVE",
"389 49 OFFCURVE",
"395 141 CURVE SMOOTH",
"395 139 OFFCURVE",
"348 174 OFFCURVE",
"272 176 CURVE SMOOTH",
"172 178 OFFCURVE",
"133 119 OFFCURVE",
"133 41 CURVE SMOOTH",
"133 -76 OFFCURVE",
"238 -211 OFFCURVE",
"573 -211 CURVE SMOOTH",
"846 -211 OFFCURVE",
"1006 -78 OFFCURVE",
"1006 104 CURVE SMOOTH",
"1006 248 OFFCURVE",
"918 332 OFFCURVE",
"784 399 CURVE",
"934 457 OFFCURVE",
"999 569 OFFCURVE",
"999 684 CURVE SMOOTH",
"999 868 OFFCURVE",
"811 961 OFFCURVE",
"621 1055 CURVE SMOOTH",
"510 1110 OFFCURVE",
"424 1163 OFFCURVE",
"426 1270 CURVE SMOOTH",
"428 1354 OFFCURVE",
"477 1403 OFFCURVE",
"580 1403 CURVE SMOOTH",
"692 1403 OFFCURVE",
"743 1323 OFFCURVE",
"739 1174 CURVE SMOOTH",
"739 1171 OFFCURVE",
"793 1137 OFFCURVE",
"872 1137 CURVE",
"961 1133 OFFCURVE",
"993 1198 OFFCURVE",
"993 1262 CURVE SMOOTH",
"993 1417 OFFCURVE",
"840 1524 OFFCURVE",
"614 1524 CURVE SMOOTH",
"377 1524 OFFCURVE",
"209 1432 OFFCURVE",
"209 1221 CURVE SMOOTH",
"209 1053 OFFCURVE",
"305 983 OFFCURVE",
"440 907 CURVE",
"289 858 OFFCURVE",
"195 745 OFFCURVE",
"195 625 CURVE SMOOTH"
);
},
{
closed = 1;
nodes = (
"612 481 LINE SMOOTH",
"502 537 OFFCURVE",
"391 565 OFFCURVE",
"393 680 CURVE SMOOTH",
"395 762 OFFCURVE",
"483 811 OFFCURVE",
"565 838 CURVE",
"688 768 OFFCURVE",
"791 725 OFFCURVE",
"788 633 CURVE",
"786 535 OFFCURVE",
"711 498 OFFCURVE",
"645 465 CURVE"
);
}
);
width = 1139;
}
);
unicode = 00A7;
},
{
glyphname = copyright;
layers = (
{
layerId = UUID0;
paths = (
{
closed = 1;
nodes = (
"1737 1210 OFFCURVE",
"1366 1475 OFFCURVE",
"1032 1475 CURVE SMOOTH",
"530 1475 OFFCURVE",
"133 1210 OFFCURVE",
"133 700 CURVE SMOOTH",
"133 297 OFFCURVE",
"487 10 OFFCURVE",
"858 10 CURVE SMOOTH",
"1346 10 OFFCURVE",
"1737 262 OFFCURVE",
"1737 805 CURVE SMOOTH"
);
},
{
closed = 1;
nodes = (
"1597 346 OFFCURVE",
"1274 137 OFFCURVE",
"870 137 CURVE SMOOTH",
"565 137 OFFCURVE",
"272 373 OFFCURVE",
"272 707 CURVE SMOOTH",
"272 1128 OFFCURVE",
"602 1348 OFFCURVE",
"1016 1348 CURVE SMOOTH",
"1292 1348 OFFCURVE",
"1597 1128 OFFCURVE",
"1597 795 CURVE SMOOTH"
);
},
{
closed = 1;
nodes = (
"516 430 OFFCURVE",
"694 291 OFFCURVE",
"918 291 CURVE SMOOTH",
"1042 291 OFFCURVE",
"1139 330 OFFCURVE",
"1219 414 CURVE",
"1210 438 OFFCURVE",
"1188 469 OFFCURVE",
"1163 481 CURVE",
"1110 432 OFFCURVE",
"1063 410 OFFCURVE",
"993 410 CURVE SMOOTH",
"838 410 OFFCURVE",
"725 522 OFFCURVE",
"725 764 CURVE SMOOTH",
"725 1010 OFFCURVE",
"821 1083 OFFCURVE",
"948 1083 CURVE SMOOTH",
"975 1083 OFFCURVE",
"1022 1083 OFFCURVE",
"1051 1059 CURVE",
"1050 1046 OFFCURVE",
"1049 1033 OFFCURVE",
"1049 1020 CURVE SMOOTH",
"1049 972 OFFCURVE",
"1062 928 OFFCURVE",
"1135 928 CURVE SMOOTH",
"1169 928 OFFCURVE",
"1204 950 OFFCURVE",
"1204 950 CURVE",
"1210 1081 LINE",
"1210 1114 OFFCURVE",
"1208 1130 OFFCURVE",
"1200 1143 CURVE",
"1133 1171 OFFCURVE",
"1047 1190 OFFCURVE",
"973 1190 CURVE SMOOTH",
"705 1190 OFFCURVE",
"516 1004 OFFCURVE",
"516 733 CURVE SMOOTH"
);
}
);
width = 1870;
}
);
unicode = 00A9;
},
{
glyphname = registered;
layers = (
{
layerId = UUID0;
paths = (
{
closed = 1;
nodes = (
"1737 1210 OFFCURVE",
"1366 1475 OFFCURVE",
"1032 1475 CURVE SMOOTH",
"530 1475 OFFCURVE",
"133 1210 OFFCURVE",
"133 700 CURVE SMOOTH",
"133 297 OFFCURVE",
"487 10 OFFCURVE",
"858 10 CURVE SMOOTH",
"1346 10 OFFCURVE",
"1737 262 OFFCURVE",
"1737 805 CURVE SMOOTH"
);
},
{
closed = 1;
nodes = (
"1597 346 OFFCURVE",
"1274 137 OFFCURVE",
"870 137 CURVE SMOOTH",
"565 137 OFFCURVE",
"272 373 OFFCURVE",
"272 707 CURVE SMOOTH",
"272 1128 OFFCURVE",
"602 1348 OFFCURVE",
"1016 1348 CURVE SMOOTH",
"1292 1348 OFFCURVE",
"1597 1128 OFFCURVE",
"1597 795 CURVE SMOOTH"
);
},
{
closed = 1;
nodes = (
"608 1087 OFFCURVE",
"647 1085 OFFCURVE",
"647 991 CURVE SMOOTH",
"647 524 LINE SMOOTH",
"647 457 OFFCURVE",
"627 336 OFFCURVE",
"627 336 CURVE",
"641 324 OFFCURVE",
"676 319 OFFCURVE",
"714 319 CURVE SMOOTH",
"758 319 OFFCURVE",
"806 326 OFFCURVE",
"834 336 CURVE",
"834 336 OFFCURVE",
"823 467 OFFCURVE",
"823 520 CURVE SMOOTH",
"823 649 LINE",
"864 649 OFFCURVE",
"903 651 OFFCURVE",
"938 655 CURVE",
"977 524 OFFCURVE",
"1071 315 OFFCURVE",
"1194 305 CURVE",
"1288 293 OFFCURVE",
"1356 381 OFFCURVE",
"1356 381 CURVE",
"1335 420 LINE",
"1335 420 OFFCURVE",
"1313 408 OFFCURVE",
"1288 410 CURVE SMOOTH",
"1241 414 OFFCURVE",
"1188 516 OFFCURVE",
"1069 684 CURVE",
"1212 733 OFFCURVE",
"1262 834 OFFCURVE",
"1262 952 CURVE SMOOTH",
"1262 1116 OFFCURVE",
"1112 1192 OFFCURVE",
"952 1196 CURVE",
"778 1198 OFFCURVE",
"649 1180 OFFCURVE",
"598 1174 CURVE",
"588 1171 OFFCURVE",
"580 1169 OFFCURVE",
"575 1169 CURVE",
"573 1143 OFFCURVE",
"578 1106 OFFCURVE",
"584 1098 CURVE"
);
},
{
closed = 1;
nodes = (
"823 1100 LINE",
"848 1102 OFFCURVE",
"872 1104 OFFCURVE",
"905 1104 CURVE SMOOTH",
"1026 1104 OFFCURVE",
"1079 1042 OFFCURVE",
"1079 952 CURVE SMOOTH",
"1079 844 OFFCURVE",
"1055 748 OFFCURVE",
"823 741 CURVE"
);
}
);
width = 1870;
}
);
unicode = 00AE;
},
{
glyphname = degree;
layers = (
{
layerId = UUID0;
paths = (
{
closed = 1;
nodes = (
"752 1442 OFFCURVE",
"594 1552 OFFCURVE",
"453 1552 CURVE SMOOTH",
"240 1552 OFFCURVE",
"72 1442 OFFCURVE",
"72 1225 CURVE SMOOTH",
"72 1055 OFFCURVE",
"223 934 OFFCURVE",
"381 934 CURVE SMOOTH",
"586 934 OFFCURVE",
"752 1040 OFFCURVE",
"752 1270 CURVE SMOOTH"
);
},
{
closed = 1;
nodes = (
"248 1339 OFFCURVE",
"297 1419 OFFCURVE",
"403 1419 CURVE SMOOTH",
"506 1419 OFFCURVE",
"580 1346 OFFCURVE",
"580 1247 CURVE SMOOTH",
"580 1163 OFFCURVE",
"522 1079 OFFCURVE",
"430 1079 CURVE SMOOTH",
"344 1079 OFFCURVE",
"248 1122 OFFCURVE",
"248 1243 CURVE SMOOTH"
);
}
);
width = 823;
}
);
unicode = 00B0;
},
{
glyphname = bar;
layers = (
{
layerId = UUID0;
paths = (
{
closed = 1;
nodes = (
"178 -346 LINE",
"210 -357 OFFCURVE",
"251 -360 OFFCURVE",
"289 -360 CURVE SMOOTH",
"326 -360 OFFCURVE",
"360 -357 OFFCURVE",
"381 -354 CURVE",
"386 -323 OFFCURVE",
"388 -223 OFFCURVE",
"388 -83 CURVE SMOOTH",
"388 448 OFFCURVE",
"359 1555 OFFCURVE",
"336 1690 CURVE",
"322 1699 OFFCURVE",
"283 1702 OFFCURVE",
"244 1702 CURVE SMOOTH",
"205 1702 OFFCURVE",
"166 1699 OFFCURVE",
"154 1694 CURVE"
);
}
);
width = 543;
}
);
unicode = 007C;
},
{
glyphname = brokenbar;
layers = (
{
layerId = UUID0;
paths = (
{
closed = 1;
nodes = (
"154 -346 LINE",
"185 -357 OFFCURVE",
"226 -360 OFFCURVE",
"264 -360 CURVE SMOOTH",
"301 -360 OFFCURVE",
"335 -357 OFFCURVE",
"356 -354 CURVE",
"354 -203 OFFCURVE",
"358 324 OFFCURVE",
"336 494 CURVE",
"322 503 OFFCURVE",
"283 506 OFFCURVE",
"244 506 CURVE SMOOTH",
"205 506 OFFCURVE",
"166 503 OFFCURVE",
"154 498 CURVE"
);
},
{
closed = 1;
nodes = (
"154 854 LINE",
"186 844 OFFCURVE",
"227 840 OFFCURVE",
"266 840 CURVE SMOOTH",
"302 840 OFFCURVE",
"335 843 OFFCURVE",
"356 846 CURVE",
"354 997 OFFCURVE",
"358 1524 OFFCURVE",
"336 1694 CURVE",
"322 1703 OFFCURVE",
"283 1706 OFFCURVE",
"244 1706 CURVE SMOOTH",
"205 1706 OFFCURVE",
"166 1703 OFFCURVE",
"154 1698 CURVE"
);
}
);
width = 510;
}
);
unicode = 00A6;
},
{
glyphname = asciicircum;
layers = (
{
layerId = UUID0;
paths = (
{
closed = 1;
nodes = (
"291 1391 OFFCURVE",
"133 1085 OFFCURVE",
"72 930 CURVE",
"100 921 OFFCURVE",
"128 917 OFFCURVE",
"158 917 CURVE SMOOTH",
"188 917 OFFCURVE",
"219 921 OFFCURVE",
"254 930 CURVE",
"307 1022 OFFCURVE",
"403 1245 OFFCURVE",
"422 1292 CURVE",
"449 1227 OFFCURVE",
"522 1061 OFFCURVE",
"588 930 CURVE",
"620 921 OFFCURVE",
"650 917 OFFCURVE",
"680 917 CURVE SMOOTH",
"710 917 OFFCURVE",
"739 921 OFFCURVE",
"772 930 CURVE",
"707 1096 OFFCURVE",
"551 1403 OFFCURVE",
"498 1470 CURVE",
"473 1479 OFFCURVE",
"445 1482 OFFCURVE",
"418 1482 CURVE SMOOTH",
"392 1482 OFFCURVE",
"367 1479 OFFCURVE",
"348 1473 CURVE"
);
}
);
width = 844;
}
);
unicode = 005E;
},
{
glyphname = acute;
layers = (
{
anchors = (
{
name = _top;
position = "{287, 1118}";
}
);
layerId = UUID0;
paths = (
{
closed = 1;
nodes = (
"160 1190 OFFCURVE",
"193 1178 OFFCURVE",
"227 1169 CURVE",
"420 1413 OFFCURVE",
"487 1479 OFFCURVE",
"526 1509 CURVE",
"504 1577 OFFCURVE",
"438 1616 OFFCURVE",
"358 1618 CURVE",
"301 1616 OFFCURVE",
"223 1567 OFFCURVE",
"129 1219 CURVE"
);
}
);
width = 561;
}
);
unicode = 00B4;
},
{
glyphname = caron;
layers = (
{
anchors = (
{
name = _top;
position = "{356, 1118}";
}
);
layerId = UUID0;
paths = (
{
closed = 1;
nodes = (
"152 1362 OFFCURVE",
"336 1176 OFFCURVE",
"395 1176 CURVE SMOOTH",
"457 1176 OFFCURVE",
"643 1384 OFFCURVE",
"713 1522 CURVE",
"696 1556 OFFCURVE",
"653 1587 OFFCURVE",
"616 1595 CURVE",
"389 1380 LINE",
"152 1602 LINE",
"119 1595 OFFCURVE",
"57 1569 OFFCURVE",
"47 1546 CURVE"
);
}
);
width = 772;
}
);
unicode = 02C7;
},
{
glyphname = cedilla;
layers = (
{
anchors = (
{
name = _bottom;
position = "{326, 82}";
}
);
layerId = UUID0;
paths = (
{
closed = 1;
nodes = (
"317 -477 OFFCURVE",
"520 -432 OFFCURVE",
"520 -291 CURVE SMOOTH",
"520 -135 OFFCURVE",
"266 -129 OFFCURVE",
"219 -131 CURVE",
"295 10 LINE",
"193 10 LINE",
"113 -166 LINE",
"125 -190 OFFCURVE",
"150 -219 OFFCURVE",
"193 -219 CURVE SMOOTH",
"260 -219 OFFCURVE",
"346 -233 OFFCURVE",
"346 -293 CURVE SMOOTH",
"346 -354 OFFCURVE",
"274 -367 OFFCURVE",
"221 -367 CURVE SMOOTH",
"111 -367 OFFCURVE",
"88 -293 OFFCURVE",
"84 -293 CURVE SMOOTH",
"49 -293 OFFCURVE",
"4 -311 OFFCURVE",
"4 -362 CURVE SMOOTH",
"4 -444 OFFCURVE",
"133 -477 OFFCURVE",
"227 -477 CURVE SMOOTH"
);
}
);
width = 637;
}
);
unicode = 00B8;
},
{
glyphname = circumflex;
layers = (
{
anchors = (
{
name = top;
position = "{377, 1118}";
}
);
layerId = UUID0;
paths = (
{
closed = 1;
nodes = (
"55 1217 OFFCURVE",
"121 1186 OFFCURVE",
"154 1180 CURVE",
"389 1399 LINE",
"612 1174 LINE",
"649 1182 OFFCURVE",
"705 1217 OFFCURVE",
"721 1251 CURVE",
"651 1389 OFFCURVE",
"457 1602 OFFCURVE",
"395 1602 CURVE SMOOTH",
"336 1602 OFFCURVE",
"150 1423 OFFCURVE",
"45 1239 CURVE"
);
}
);
width = 776;
}
);
unicode = 02C6;
},
{
glyphname = dieresis;
layers = (
{
anchors = (
{
name = _top;
position = "{453, 1118}";
}
);
layerId = UUID0;
paths = (
{
closed = 1;
nodes = (
"388 1296 OFFCURVE",
"409 1345 OFFCURVE",
"409 1391 CURVE SMOOTH",
"409 1422 OFFCURVE",
"399 1452 OFFCURVE",
"379 1475 CURVE SMOOTH",
"353 1504 OFFCURVE",
"315 1517 OFFCURVE",
"277 1517 CURVE SMOOTH",
"237 1517 OFFCURVE",
"196 1503 OFFCURVE",
"164 1477 CURVE",
"130 1445 OFFCURVE",
"110 1399 OFFCURVE",
"110 1354 CURVE SMOOTH",
"110 1323 OFFCURVE",
"120 1292 OFFCURVE",
"141 1268 CURVE SMOOTH",
"168 1239 OFFCURVE",
"207 1225 OFFCURVE",
"246 1225 CURVE SMOOTH",
"285 1225 OFFCURVE",
"324 1238 OFFCURVE",
"352 1264 CURVE SMOOTH"
);
},
{
closed = 1;
nodes = (
"802 1316 OFFCURVE",
"823 1365 OFFCURVE",
"823 1412 CURVE SMOOTH",
"823 1443 OFFCURVE",
"813 1472 OFFCURVE",
"793 1495 CURVE SMOOTH",
"766 1524 OFFCURVE",
"729 1537 OFFCURVE",
"691 1537 CURVE SMOOTH",
"651 1537 OFFCURVE",
"610 1523 OFFCURVE",
"578 1497 CURVE",
"544 1466 OFFCURVE",
"524 1420 OFFCURVE",
"524 1375 CURVE SMOOTH",
"524 1344 OFFCURVE",
"534 1313 OFFCURVE",
"555 1288 CURVE",
"582 1259 OFFCURVE",
"621 1245 OFFCURVE",
"660 1245 CURVE SMOOTH",
"699 1245 OFFCURVE",
"738 1259 OFFCURVE",
"766 1284 CURVE SMOOTH"
);
}
);
width = 924;
}
);
unicode = 00A8;
},
{
glyphname = grave;
layers = (
{
anchors = (
{
name = _top;
position = "{451, 1118}";
}
);
layerId = UUID0;
paths = (
{
closed = 1;
nodes = (
"526 1567 OFFCURVE",
"449 1616 OFFCURVE",
"391 1618 CURVE",
"311 1616 OFFCURVE",
"246 1577 OFFCURVE",
"223 1509 CURVE",
"262 1479 OFFCURVE",
"330 1413 OFFCURVE",
"522 1169 CURVE",
"557 1178 OFFCURVE",
"590 1190 OFFCURVE",
"621 1219 CURVE"
);
}
);
width = 856;
}
);
unicode = 0060;
},
{
glyphname = macron;
layers = (
{
layerId = UUID0;
paths = (
{
closed = 1;
nodes = (
"819 1288 LINE",
"828 1311 OFFCURVE",
"832 1341 OFFCURVE",
"832 1368 CURVE SMOOTH",
"832 1391 OFFCURVE",
"829 1412 OFFCURVE",
"825 1427 CURVE",
"790 1432 OFFCURVE",
"671 1435 OFFCURVE",
"537 1435 CURVE SMOOTH",
"346 1435 OFFCURVE",
"124 1430 OFFCURVE",
"63 1421 CURVE",
"56 1411 OFFCURVE",
"51 1380 OFFCURVE",
"51 1349 CURVE SMOOTH",
"51 1322 OFFCURVE",
"54 1297 OFFCURVE",
"61 1288 CURVE"
);
}
);
width = 885;
}
);
unicode = 00AF;
},
{
glyphname = ring;
layers = (
{
anchors = (
{
name = _top;
position = "{319, 1118}";
}
);
layerId = UUID0;
paths = (
{
closed = 1;
nodes = (
"578 1511 OFFCURVE",
"469 1589 OFFCURVE",
"371 1589 CURVE SMOOTH",
"223 1589 OFFCURVE",
"106 1511 OFFCURVE",
"106 1362 CURVE SMOOTH",
"106 1243 OFFCURVE",
"211 1159 OFFCURVE",
"319 1159 CURVE SMOOTH",
"463 1159 OFFCURVE",
"578 1233 OFFCURVE",
"578 1393 CURVE SMOOTH"
);
},
{
closed = 1;
nodes = (
"254 1421 OFFCURVE",
"281 1464 OFFCURVE",
"338 1464 CURVE SMOOTH",
"393 1464 OFFCURVE",
"432 1425 OFFCURVE",
"432 1372 CURVE SMOOTH",
"432 1327 OFFCURVE",
"401 1282 OFFCURVE",
"352 1282 CURVE SMOOTH",
"305 1282 OFFCURVE",
"254 1305 OFFCURVE",
"254 1370 CURVE SMOOTH"
);
}
);
width = 711;
}
);
unicode = 02DA;
},
